%
M48
M72
T01C0.02000
T02C0.02756
T03C0.03200
T04C0.03543
T05C0.04000
T06C0.11800
%
T01
X468333Y177860
X523333Y102860
T02
X463333Y147860
X463333Y157860
X418333Y162860
X408333Y162860
T03
X478333Y157860
X478333Y167860
X478333Y177860
X478333Y187860
X478333Y197860
X478333Y207860
X478333Y217860
X508333Y217860
X508333Y207860
X508333Y197860
X508333Y187860
X508333Y177860
X508333Y167860
X508333Y157860
X508333Y147860
X508333Y137860
X508333Y127860
X508333Y117860
X508333Y107860
X508333Y97860
X508333Y87860
X478333Y87860
X478333Y97860
X478333Y107860
X478333Y117860
X478333Y127860
X478333Y137860
X478333Y147860
X543333Y112860
X553333Y112860
X553333Y72860
X543333Y72860
X543333Y32860
X553333Y32860
T04
X568333Y52860
X528333Y52860
X528333Y12860
X568333Y12860
X568333Y92860
X528333Y92860
X448333Y182860
X408333Y182860
T05
X408333Y62860
X408333Y72860
X408333Y82860
X408333Y92860
X408333Y102860
X408333Y112860
X483333Y57860
X493333Y57860
X503333Y57860
X503333Y47860
X493333Y47860
X483333Y47860
X568333Y162860
X568333Y172860
X568333Y182860
X568333Y192860
X568333Y202860
X568333Y212860
X568333Y222860
X568333Y232860
T06
X447270Y222860
X423648Y222860
X435459Y204356
M30
