G75*
%MOIN*%
%OFA0B0*%
%FSLAX25Y25*%
%IPPOS*%
%LPD*%
%AMOC8*
5,1,8,0,0,1.08239X$1,22.5*
%
%ADD10C,0.07300*%
%ADD11C,0.08200*%
%ADD12C,0.17800*%
%ADD13OC8,0.08200*%
%ADD14C,0.06400*%
D10*
X0408333Y0162860D03*
X0418333Y0162860D03*
X0463333Y0157860D03*
X0463333Y0147860D03*
D11*
X0408333Y0062860D03*
X0408333Y0072860D03*
X0408333Y0082860D03*
X0408333Y0092860D03*
X0408333Y0102860D03*
X0408333Y0112860D03*
X0528333Y0092860D03*
X0568333Y0092860D03*
X0553333Y0112860D03*
X0543333Y0112860D03*
X0543333Y0072860D03*
X0553333Y0072860D03*
X0568333Y0052860D03*
X0528333Y0052860D03*
X0543333Y0032860D03*
X0553333Y0032860D03*
X0568333Y0012860D03*
X0528333Y0012860D03*
X0568333Y0162860D03*
X0568333Y0172860D03*
X0568333Y0182860D03*
X0568333Y0192860D03*
X0568333Y0202860D03*
X0568333Y0212860D03*
X0568333Y0222860D03*
X0568333Y0232860D03*
X0448333Y0182860D03*
X0408333Y0182860D03*
D12*
X0435459Y0204356D03*
X0423648Y0222860D03*
X0447270Y0222860D03*
D13*
X0483333Y0057860D03*
X0493333Y0057860D03*
X0503333Y0057860D03*
X0503333Y0047860D03*
X0493333Y0047860D03*
X0483333Y0047860D03*
D14*
X0481133Y0087860D02*
X0475533Y0087860D01*
X0475533Y0097860D02*
X0481133Y0097860D01*
X0481133Y0107860D02*
X0475533Y0107860D01*
X0475533Y0117860D02*
X0481133Y0117860D01*
X0481133Y0127860D02*
X0475533Y0127860D01*
X0475533Y0137860D02*
X0481133Y0137860D01*
X0481133Y0147860D02*
X0475533Y0147860D01*
X0475533Y0157860D02*
X0481133Y0157860D01*
X0481133Y0167860D02*
X0475533Y0167860D01*
X0475533Y0177860D02*
X0481133Y0177860D01*
X0481133Y0187860D02*
X0475533Y0187860D01*
X0475533Y0197860D02*
X0481133Y0197860D01*
X0505533Y0197860D02*
X0511133Y0197860D01*
X0511133Y0187860D02*
X0505533Y0187860D01*
X0505533Y0177860D02*
X0511133Y0177860D01*
X0511133Y0167860D02*
X0505533Y0167860D01*
X0505533Y0157860D02*
X0511133Y0157860D01*
X0511133Y0147860D02*
X0505533Y0147860D01*
X0505533Y0137860D02*
X0511133Y0137860D01*
X0511133Y0127860D02*
X0505533Y0127860D01*
X0505533Y0117860D02*
X0511133Y0117860D01*
X0511133Y0107860D02*
X0505533Y0107860D01*
X0505533Y0097860D02*
X0511133Y0097860D01*
X0511133Y0087860D02*
X0505533Y0087860D01*
X0505533Y0207860D02*
X0511133Y0207860D01*
X0511133Y0217860D02*
X0505533Y0217860D01*
X0481133Y0217860D02*
X0475533Y0217860D01*
X0475533Y0207860D02*
X0481133Y0207860D01*
M02*
