G75*
%MOIN*%
%OFA0B0*%
%FSLAX25Y25*%
%IPPOS*%
%LPD*%
%AMOC8*
5,1,8,0,0,1.08239X$1,22.5*
%
%ADD10C,0.06500*%
%ADD11C,0.07400*%
%ADD12C,0.17000*%
%ADD13OC8,0.07400*%
%ADD14C,0.05600*%
%ADD15C,0.01000*%
%ADD16C,0.04000*%
D10*
X0408333Y0162860D03*
X0418333Y0162860D03*
X0463333Y0157860D03*
X0463333Y0147860D03*
D11*
X0408333Y0062860D03*
X0408333Y0072860D03*
X0408333Y0082860D03*
X0408333Y0092860D03*
X0408333Y0102860D03*
X0408333Y0112860D03*
X0528333Y0092860D03*
X0568333Y0092860D03*
X0553333Y0112860D03*
X0543333Y0112860D03*
X0543333Y0072860D03*
X0553333Y0072860D03*
X0568333Y0052860D03*
X0528333Y0052860D03*
X0543333Y0032860D03*
X0553333Y0032860D03*
X0568333Y0012860D03*
X0528333Y0012860D03*
X0568333Y0162860D03*
X0568333Y0172860D03*
X0568333Y0182860D03*
X0568333Y0192860D03*
X0568333Y0202860D03*
X0568333Y0212860D03*
X0568333Y0222860D03*
X0568333Y0232860D03*
X0448333Y0182860D03*
X0408333Y0182860D03*
D12*
X0435459Y0204356D03*
X0423648Y0222860D03*
X0447270Y0222860D03*
D13*
X0483333Y0057860D03*
X0493333Y0057860D03*
X0503333Y0057860D03*
X0503333Y0047860D03*
X0493333Y0047860D03*
X0483333Y0047860D03*
D14*
X0481133Y0087860D02*
X0475533Y0087860D01*
X0475533Y0097860D02*
X0481133Y0097860D01*
X0481133Y0107860D02*
X0475533Y0107860D01*
X0475533Y0117860D02*
X0481133Y0117860D01*
X0481133Y0127860D02*
X0475533Y0127860D01*
X0475533Y0137860D02*
X0481133Y0137860D01*
X0481133Y0147860D02*
X0475533Y0147860D01*
X0475533Y0157860D02*
X0481133Y0157860D01*
X0481133Y0167860D02*
X0475533Y0167860D01*
X0475533Y0177860D02*
X0481133Y0177860D01*
X0481133Y0187860D02*
X0475533Y0187860D01*
X0475533Y0197860D02*
X0481133Y0197860D01*
X0505533Y0197860D02*
X0511133Y0197860D01*
X0511133Y0187860D02*
X0505533Y0187860D01*
X0505533Y0177860D02*
X0511133Y0177860D01*
X0511133Y0167860D02*
X0505533Y0167860D01*
X0505533Y0157860D02*
X0511133Y0157860D01*
X0511133Y0147860D02*
X0505533Y0147860D01*
X0505533Y0137860D02*
X0511133Y0137860D01*
X0511133Y0127860D02*
X0505533Y0127860D01*
X0505533Y0117860D02*
X0511133Y0117860D01*
X0511133Y0107860D02*
X0505533Y0107860D01*
X0505533Y0097860D02*
X0511133Y0097860D01*
X0511133Y0087860D02*
X0505533Y0087860D01*
X0505533Y0207860D02*
X0511133Y0207860D01*
X0511133Y0217860D02*
X0505533Y0217860D01*
X0481133Y0217860D02*
X0475533Y0217860D01*
X0475533Y0207860D02*
X0481133Y0207860D01*
D15*
X0478333Y0207860D02*
X0468333Y0197860D01*
X0468333Y0177860D01*
X0454033Y0177160D02*
X0448333Y0182860D01*
X0447733Y0183460D01*
X0447733Y0222160D01*
X0447270Y0222860D01*
X0478333Y0217860D02*
X0478333Y0217660D01*
X0485533Y0210460D01*
X0485533Y0100660D01*
X0508333Y0077860D01*
X0508333Y0055060D01*
X0503533Y0050260D01*
X0503533Y0048460D01*
X0503333Y0047860D01*
X0505333Y0042160D02*
X0499033Y0042160D01*
X0493333Y0047860D01*
X0488333Y0042860D02*
X0483333Y0047860D01*
X0488333Y0042860D02*
X0488333Y0037860D01*
X0508333Y0037860D01*
X0523333Y0047860D01*
X0523333Y0102860D01*
X0515233Y0119560D02*
X0515233Y0052060D01*
X0505333Y0042160D01*
X0503333Y0057860D02*
X0502633Y0058360D01*
X0498133Y0062860D01*
X0463033Y0062860D01*
X0463033Y0147460D01*
X0463333Y0147860D01*
X0463033Y0148360D01*
X0436033Y0175360D01*
X0436033Y0204160D01*
X0435459Y0204356D01*
X0454033Y0177160D02*
X0454033Y0167260D01*
X0463033Y0158260D01*
X0463333Y0157860D01*
X0463933Y0158260D01*
X0478333Y0158260D01*
X0478333Y0157860D01*
X0508333Y0157860D02*
X0508933Y0158260D01*
X0515233Y0164560D01*
X0515233Y0177160D01*
X0568333Y0230260D01*
X0568333Y0232860D01*
X0508933Y0127660D02*
X0508333Y0127860D01*
X0508933Y0127660D02*
X0508933Y0125860D01*
X0515233Y0119560D01*
X0463033Y0062860D02*
X0408333Y0062860D01*
D16*
X0523333Y0102860D03*
X0468333Y0177860D03*
M02*
