G75*
%MOIN*%
%OFA0B0*%
%FSLAX25Y25*%
%IPPOS*%
%LPD*%
%AMOC8*
5,1,8,0,0,1.08239X$1,22.5*
%
%ADD10C,0.06500*%
%ADD11C,0.07400*%
%ADD12C,0.17000*%
%ADD13C,0.05600*%
%ADD14C,0.00700*%
%ADD15C,0.01000*%
%ADD16C,0.01600*%
D10*
X0410333Y0120756D03*
X0410333Y0130756D03*
X0448333Y0121256D03*
X0448333Y0111256D03*
D11*
X0410333Y0105256D03*
X0410333Y0095256D03*
X0429333Y0086256D03*
X0443333Y0086256D03*
X0453333Y0086256D03*
X0410333Y0085256D03*
X0410333Y0075256D03*
X0410333Y0065256D03*
X0410333Y0055256D03*
X0429333Y0046256D03*
X0443335Y0036500D03*
X0443333Y0026256D03*
X0483333Y0026256D03*
X0503333Y0026256D03*
X0503333Y0036256D03*
X0483332Y0036012D03*
X0522333Y0056256D03*
X0522333Y0066256D03*
X0522333Y0076256D03*
X0522333Y0086256D03*
X0522333Y0096256D03*
X0522333Y0106256D03*
X0522333Y0121256D03*
X0522333Y0131256D03*
X0522333Y0141256D03*
X0522333Y0151256D03*
X0522333Y0161256D03*
X0522333Y0171256D03*
X0522333Y0181256D03*
X0522333Y0191256D03*
X0450833Y0147756D03*
X0410833Y0147756D03*
X0443333Y0061256D03*
X0453333Y0061256D03*
D12*
X0436459Y0162752D03*
X0424648Y0181256D03*
X0448270Y0181256D03*
D13*
X0465533Y0181256D02*
X0471133Y0181256D01*
X0471133Y0171256D02*
X0465533Y0171256D01*
X0465533Y0161256D02*
X0471133Y0161256D01*
X0471133Y0151256D02*
X0465533Y0151256D01*
X0465533Y0141256D02*
X0471133Y0141256D01*
X0471133Y0131256D02*
X0465533Y0131256D01*
X0465533Y0121256D02*
X0471133Y0121256D01*
X0471133Y0111256D02*
X0465533Y0111256D01*
X0465533Y0101256D02*
X0471133Y0101256D01*
X0471133Y0091256D02*
X0465533Y0091256D01*
X0465533Y0081256D02*
X0471133Y0081256D01*
X0471133Y0071256D02*
X0465533Y0071256D01*
X0465533Y0061256D02*
X0471133Y0061256D01*
X0471133Y0051256D02*
X0465533Y0051256D01*
X0495533Y0051256D02*
X0501133Y0051256D01*
X0501133Y0061256D02*
X0495533Y0061256D01*
X0495533Y0071256D02*
X0501133Y0071256D01*
X0501133Y0081256D02*
X0495533Y0081256D01*
X0495533Y0091256D02*
X0501133Y0091256D01*
X0501133Y0101256D02*
X0495533Y0101256D01*
X0495533Y0111256D02*
X0501133Y0111256D01*
X0501133Y0121256D02*
X0495533Y0121256D01*
X0495533Y0131256D02*
X0501133Y0131256D01*
X0501133Y0141256D02*
X0495533Y0141256D01*
X0495533Y0151256D02*
X0501133Y0151256D01*
X0501133Y0161256D02*
X0495533Y0161256D01*
X0495533Y0171256D02*
X0501133Y0171256D01*
X0501133Y0181256D02*
X0495533Y0181256D01*
D14*
X0498333Y0181256D02*
X0522333Y0181256D01*
X0522333Y0171256D02*
X0498333Y0171256D01*
X0498333Y0161256D02*
X0522333Y0161256D01*
X0522333Y0151256D02*
X0498333Y0151256D01*
X0498333Y0141256D02*
X0522333Y0141256D01*
X0522333Y0131256D02*
X0498333Y0131256D01*
X0522083Y0121256D02*
X0522333Y0121256D01*
X0522083Y0121256D02*
X0502083Y0101256D01*
X0498333Y0101256D01*
X0463958Y0076881D02*
X0454583Y0086256D01*
X0453333Y0086256D01*
X0463958Y0076881D02*
X0471458Y0076881D01*
X0487083Y0061256D01*
X0498333Y0061256D01*
X0498333Y0051256D02*
X0498333Y0041256D01*
X0503333Y0036256D01*
X0410333Y0105256D02*
X0410333Y0120756D01*
X0410333Y0130756D02*
X0410083Y0130756D01*
X0410083Y0135256D01*
X0412333Y0137506D01*
X0412333Y0142756D01*
X0410833Y0144256D01*
X0410833Y0147756D01*
D15*
X0450833Y0147756D02*
X0450833Y0152756D01*
X0455833Y0157756D01*
X0455833Y0173756D01*
X0453333Y0176256D01*
X0453270Y0176256D01*
X0448270Y0181256D01*
X0468333Y0161256D02*
X0458333Y0151256D01*
X0458333Y0141256D01*
X0412333Y0095256D01*
X0410333Y0095256D01*
X0423333Y0101256D02*
X0428333Y0106256D01*
X0433333Y0106256D01*
X0448333Y0121256D01*
X0423333Y0101256D02*
X0423333Y0086256D01*
X0412333Y0075256D01*
X0410333Y0075256D01*
X0443333Y0061256D02*
X0448333Y0056256D01*
X0448333Y0041256D01*
X0443578Y0036500D01*
X0443335Y0036500D01*
D16*
X0405333Y0023256D02*
X0405333Y0052954D01*
X0405629Y0052373D01*
X0406138Y0051673D01*
X0406750Y0051061D01*
X0407451Y0050552D01*
X0408222Y0050159D01*
X0409045Y0049891D01*
X0409900Y0049756D01*
X0410133Y0049756D01*
X0410133Y0055056D01*
X0410533Y0055056D01*
X0410533Y0049756D01*
X0410766Y0049756D01*
X0411621Y0049891D01*
X0412445Y0050159D01*
X0413216Y0050552D01*
X0413916Y0051061D01*
X0414528Y0051673D01*
X0415037Y0052373D01*
X0415430Y0053145D01*
X0415698Y0053968D01*
X0415833Y0054823D01*
X0415833Y0055056D01*
X0410533Y0055056D01*
X0410533Y0055456D01*
X0415833Y0055456D01*
X0415833Y0055689D01*
X0415698Y0056544D01*
X0415430Y0057367D01*
X0415037Y0058139D01*
X0414528Y0058839D01*
X0413916Y0059451D01*
X0413216Y0059960D01*
X0412445Y0060353D01*
X0412389Y0060371D01*
X0413336Y0060763D01*
X0414826Y0062254D01*
X0415633Y0064202D01*
X0415633Y0066310D01*
X0414826Y0068258D01*
X0413336Y0069749D01*
X0412112Y0070256D01*
X0413336Y0070763D01*
X0414826Y0072254D01*
X0415633Y0074202D01*
X0415633Y0075586D01*
X0424203Y0084156D01*
X0424389Y0084342D01*
X0424840Y0083254D01*
X0426331Y0081763D01*
X0428279Y0080956D01*
X0430388Y0080956D01*
X0432336Y0081763D01*
X0433826Y0083254D01*
X0434633Y0085202D01*
X0434633Y0087310D01*
X0433826Y0089258D01*
X0432336Y0090749D01*
X0430388Y0091556D01*
X0428279Y0091556D01*
X0426331Y0090749D01*
X0425433Y0089851D01*
X0425433Y0100386D01*
X0429203Y0104156D01*
X0434203Y0104156D01*
X0444185Y0114138D01*
X0444014Y0113903D01*
X0443653Y0113194D01*
X0443408Y0112438D01*
X0443283Y0111653D01*
X0443283Y0111256D01*
X0448333Y0111256D01*
X0448333Y0111256D01*
X0448333Y0116306D01*
X0447936Y0116306D01*
X0447151Y0116182D01*
X0446395Y0115936D01*
X0445687Y0115575D01*
X0445452Y0115404D01*
X0446721Y0116674D01*
X0447369Y0116406D01*
X0449298Y0116406D01*
X0451081Y0117144D01*
X0452445Y0118509D01*
X0453183Y0120291D01*
X0453183Y0122221D01*
X0452445Y0124003D01*
X0451081Y0125368D01*
X0449298Y0126106D01*
X0447369Y0126106D01*
X0445586Y0125368D01*
X0444222Y0124003D01*
X0443483Y0122221D01*
X0443483Y0120291D01*
X0443751Y0119644D01*
X0432463Y0108356D01*
X0428403Y0108356D01*
X0459203Y0139156D01*
X0460433Y0140386D01*
X0460433Y0150386D01*
X0461133Y0151086D01*
X0461133Y0150381D01*
X0461803Y0148763D01*
X0463041Y0147526D01*
X0464658Y0146856D01*
X0472009Y0146856D01*
X0473626Y0147526D01*
X0474863Y0148763D01*
X0475533Y0150381D01*
X0475533Y0152131D01*
X0474863Y0153748D01*
X0473626Y0154986D01*
X0472009Y0155656D01*
X0465703Y0155656D01*
X0466903Y0156856D01*
X0472009Y0156856D01*
X0473626Y0157526D01*
X0474863Y0158763D01*
X0475533Y0160381D01*
X0475533Y0162131D01*
X0474863Y0163748D01*
X0473626Y0164986D01*
X0472009Y0165656D01*
X0464658Y0165656D01*
X0463041Y0164986D01*
X0461803Y0163748D01*
X0461133Y0162131D01*
X0461133Y0160381D01*
X0461803Y0158763D01*
X0462337Y0158230D01*
X0456233Y0152126D01*
X0456233Y0142126D01*
X0413596Y0099488D01*
X0413336Y0099749D01*
X0412112Y0100256D01*
X0413336Y0100763D01*
X0414826Y0102254D01*
X0415633Y0104202D01*
X0415633Y0106310D01*
X0414826Y0108258D01*
X0413336Y0109749D01*
X0412283Y0110185D01*
X0412283Y0116314D01*
X0413081Y0116644D01*
X0414445Y0118009D01*
X0415183Y0119791D01*
X0415183Y0121721D01*
X0414445Y0123503D01*
X0413081Y0124868D01*
X0411298Y0125606D01*
X0409369Y0125606D01*
X0407586Y0124868D01*
X0406222Y0123503D01*
X0405483Y0121721D01*
X0405483Y0119791D01*
X0406222Y0118009D01*
X0407586Y0116644D01*
X0408383Y0116314D01*
X0408383Y0110185D01*
X0407331Y0109749D01*
X0405840Y0108258D01*
X0405333Y0107034D01*
X0405333Y0199256D01*
X0526333Y0199256D01*
X0526333Y0195034D01*
X0525916Y0195451D01*
X0525216Y0195960D01*
X0524445Y0196353D01*
X0523621Y0196620D01*
X0522766Y0196756D01*
X0522533Y0196756D01*
X0522533Y0191456D01*
X0522133Y0191456D01*
X0522133Y0191056D01*
X0516833Y0191056D01*
X0516833Y0190823D01*
X0516969Y0189968D01*
X0517236Y0189145D01*
X0517629Y0188373D01*
X0518138Y0187673D01*
X0518750Y0187061D01*
X0519451Y0186552D01*
X0520222Y0186159D01*
X0520277Y0186141D01*
X0519331Y0185749D01*
X0517840Y0184258D01*
X0517404Y0183206D01*
X0505088Y0183206D01*
X0504863Y0183748D01*
X0503626Y0184986D01*
X0502009Y0185656D01*
X0494658Y0185656D01*
X0493041Y0184986D01*
X0491803Y0183748D01*
X0491133Y0182131D01*
X0491133Y0180381D01*
X0491803Y0178763D01*
X0493041Y0177526D01*
X0494658Y0176856D01*
X0502009Y0176856D01*
X0503626Y0177526D01*
X0504863Y0178763D01*
X0505088Y0179306D01*
X0517404Y0179306D01*
X0517840Y0178254D01*
X0519331Y0176763D01*
X0520555Y0176256D01*
X0519331Y0175749D01*
X0517840Y0174258D01*
X0517404Y0173206D01*
X0505088Y0173206D01*
X0504863Y0173748D01*
X0503626Y0174986D01*
X0502009Y0175656D01*
X0494658Y0175656D01*
X0493041Y0174986D01*
X0491803Y0173748D01*
X0491133Y0172131D01*
X0491133Y0170381D01*
X0491803Y0168763D01*
X0493041Y0167526D01*
X0494658Y0166856D01*
X0502009Y0166856D01*
X0503626Y0167526D01*
X0504863Y0168763D01*
X0505088Y0169306D01*
X0517404Y0169306D01*
X0517840Y0168254D01*
X0519331Y0166763D01*
X0520555Y0166256D01*
X0519331Y0165749D01*
X0517840Y0164258D01*
X0517404Y0163206D01*
X0505088Y0163206D01*
X0504863Y0163748D01*
X0503626Y0164986D01*
X0502009Y0165656D01*
X0494658Y0165656D01*
X0493041Y0164986D01*
X0491803Y0163748D01*
X0491133Y0162131D01*
X0491133Y0160381D01*
X0491803Y0158763D01*
X0493041Y0157526D01*
X0494658Y0156856D01*
X0502009Y0156856D01*
X0503626Y0157526D01*
X0504863Y0158763D01*
X0505088Y0159306D01*
X0517404Y0159306D01*
X0517840Y0158254D01*
X0519331Y0156763D01*
X0520555Y0156256D01*
X0519331Y0155749D01*
X0517840Y0154258D01*
X0517404Y0153206D01*
X0505088Y0153206D01*
X0504863Y0153748D01*
X0503626Y0154986D01*
X0502009Y0155656D01*
X0494658Y0155656D01*
X0493041Y0154986D01*
X0491803Y0153748D01*
X0491133Y0152131D01*
X0491133Y0150381D01*
X0491803Y0148763D01*
X0493041Y0147526D01*
X0494658Y0146856D01*
X0502009Y0146856D01*
X0503626Y0147526D01*
X0504863Y0148763D01*
X0505088Y0149306D01*
X0517404Y0149306D01*
X0517840Y0148254D01*
X0519331Y0146763D01*
X0520555Y0146256D01*
X0519331Y0145749D01*
X0517840Y0144258D01*
X0517404Y0143206D01*
X0505088Y0143206D01*
X0504863Y0143748D01*
X0503626Y0144986D01*
X0502009Y0145656D01*
X0494658Y0145656D01*
X0493041Y0144986D01*
X0491803Y0143748D01*
X0491133Y0142131D01*
X0491133Y0140381D01*
X0491803Y0138763D01*
X0493041Y0137526D01*
X0494658Y0136856D01*
X0502009Y0136856D01*
X0503626Y0137526D01*
X0504863Y0138763D01*
X0505088Y0139306D01*
X0517404Y0139306D01*
X0517840Y0138254D01*
X0519331Y0136763D01*
X0520555Y0136256D01*
X0519331Y0135749D01*
X0517840Y0134258D01*
X0517404Y0133206D01*
X0505088Y0133206D01*
X0504863Y0133748D01*
X0503626Y0134986D01*
X0502009Y0135656D01*
X0494658Y0135656D01*
X0493041Y0134986D01*
X0491803Y0133748D01*
X0491133Y0132131D01*
X0491133Y0130381D01*
X0491803Y0128763D01*
X0493041Y0127526D01*
X0494658Y0126856D01*
X0502009Y0126856D01*
X0503626Y0127526D01*
X0504863Y0128763D01*
X0505088Y0129306D01*
X0517404Y0129306D01*
X0517840Y0128254D01*
X0519331Y0126763D01*
X0520555Y0126256D01*
X0519331Y0125749D01*
X0517840Y0124258D01*
X0517033Y0122310D01*
X0517033Y0120202D01*
X0517396Y0119326D01*
X0503223Y0105153D01*
X0502009Y0105656D01*
X0494658Y0105656D01*
X0493041Y0104986D01*
X0491803Y0103748D01*
X0491133Y0102131D01*
X0491133Y0100381D01*
X0491803Y0098763D01*
X0493041Y0097526D01*
X0494658Y0096856D01*
X0502009Y0096856D01*
X0503626Y0097526D01*
X0504863Y0098763D01*
X0505533Y0100381D01*
X0505533Y0101948D01*
X0520050Y0116465D01*
X0521279Y0115956D01*
X0523388Y0115956D01*
X0525336Y0116763D01*
X0526333Y0117761D01*
X0526333Y0109751D01*
X0525336Y0110749D01*
X0523388Y0111556D01*
X0521279Y0111556D01*
X0519331Y0110749D01*
X0517840Y0109258D01*
X0517033Y0107310D01*
X0517033Y0105202D01*
X0517840Y0103254D01*
X0519331Y0101763D01*
X0520555Y0101256D01*
X0519331Y0100749D01*
X0517840Y0099258D01*
X0517033Y0097310D01*
X0517033Y0095202D01*
X0517840Y0093254D01*
X0519331Y0091763D01*
X0520555Y0091256D01*
X0519331Y0090749D01*
X0517840Y0089258D01*
X0517033Y0087310D01*
X0517033Y0085202D01*
X0517840Y0083254D01*
X0519331Y0081763D01*
X0520555Y0081256D01*
X0519331Y0080749D01*
X0517840Y0079258D01*
X0517033Y0077310D01*
X0517033Y0075202D01*
X0517840Y0073254D01*
X0519331Y0071763D01*
X0520555Y0071256D01*
X0519331Y0070749D01*
X0517840Y0069258D01*
X0517033Y0067310D01*
X0517033Y0065202D01*
X0517840Y0063254D01*
X0519331Y0061763D01*
X0520277Y0061371D01*
X0520222Y0061353D01*
X0519451Y0060960D01*
X0518750Y0060451D01*
X0518138Y0059839D01*
X0517629Y0059139D01*
X0517236Y0058367D01*
X0516969Y0057544D01*
X0516833Y0056689D01*
X0516833Y0056456D01*
X0522133Y0056456D01*
X0522133Y0056056D01*
X0516833Y0056056D01*
X0516833Y0055823D01*
X0516969Y0054968D01*
X0517236Y0054145D01*
X0517629Y0053373D01*
X0518138Y0052673D01*
X0518750Y0052061D01*
X0519451Y0051552D01*
X0520222Y0051159D01*
X0521045Y0050891D01*
X0521900Y0050756D01*
X0522133Y0050756D01*
X0522133Y0056056D01*
X0522533Y0056056D01*
X0522533Y0050756D01*
X0522766Y0050756D01*
X0523621Y0050891D01*
X0524445Y0051159D01*
X0525216Y0051552D01*
X0525916Y0052061D01*
X0526333Y0052478D01*
X0526333Y0023256D01*
X0507827Y0023256D01*
X0508633Y0025202D01*
X0508633Y0027310D01*
X0507826Y0029258D01*
X0506336Y0030749D01*
X0505112Y0031256D01*
X0506336Y0031763D01*
X0507826Y0033254D01*
X0508633Y0035202D01*
X0508633Y0037310D01*
X0507826Y0039258D01*
X0506336Y0040749D01*
X0504388Y0041556D01*
X0502279Y0041556D01*
X0501227Y0041120D01*
X0500283Y0042064D01*
X0500283Y0046856D01*
X0502009Y0046856D01*
X0503626Y0047526D01*
X0504863Y0048763D01*
X0505533Y0050381D01*
X0505533Y0052131D01*
X0504863Y0053748D01*
X0503626Y0054986D01*
X0502009Y0055656D01*
X0494658Y0055656D01*
X0493041Y0054986D01*
X0491803Y0053748D01*
X0491133Y0052131D01*
X0491133Y0050381D01*
X0491803Y0048763D01*
X0493041Y0047526D01*
X0494658Y0046856D01*
X0496383Y0046856D01*
X0496383Y0040448D01*
X0498469Y0038362D01*
X0498033Y0037310D01*
X0498033Y0035202D01*
X0498840Y0033254D01*
X0500331Y0031763D01*
X0501555Y0031256D01*
X0500331Y0030749D01*
X0498840Y0029258D01*
X0498033Y0027310D01*
X0498033Y0025202D01*
X0498839Y0023256D01*
X0487827Y0023256D01*
X0488633Y0025202D01*
X0488633Y0027310D01*
X0487826Y0029258D01*
X0486336Y0030749D01*
X0485664Y0031027D01*
X0486214Y0031308D01*
X0486915Y0031816D01*
X0487527Y0032429D01*
X0488036Y0033129D01*
X0488429Y0033900D01*
X0488696Y0034724D01*
X0488832Y0035579D01*
X0488832Y0035859D01*
X0483417Y0035925D01*
X0483419Y0036096D01*
X0488832Y0036030D01*
X0488832Y0036444D01*
X0488696Y0037299D01*
X0488429Y0038123D01*
X0488036Y0038894D01*
X0487527Y0039595D01*
X0486915Y0040207D01*
X0486214Y0040716D01*
X0485443Y0041109D01*
X0484620Y0041376D01*
X0483765Y0041512D01*
X0483485Y0041512D01*
X0483419Y0036096D01*
X0483247Y0036098D01*
X0483245Y0035927D01*
X0477832Y0035993D01*
X0477832Y0035579D01*
X0477967Y0034724D01*
X0478235Y0033900D01*
X0478628Y0033129D01*
X0479137Y0032429D01*
X0479749Y0031816D01*
X0480449Y0031308D01*
X0481001Y0031026D01*
X0480331Y0030749D01*
X0478840Y0029258D01*
X0478033Y0027310D01*
X0478033Y0025202D01*
X0478839Y0023256D01*
X0447952Y0023256D01*
X0448037Y0023373D01*
X0448430Y0024145D01*
X0448698Y0024968D01*
X0448833Y0025823D01*
X0448833Y0026170D01*
X0443419Y0026170D01*
X0443419Y0026342D01*
X0448833Y0026342D01*
X0448833Y0026689D01*
X0448698Y0027544D01*
X0448430Y0028367D01*
X0448037Y0029139D01*
X0447528Y0029839D01*
X0446916Y0030451D01*
X0446216Y0030960D01*
X0445445Y0031353D01*
X0445060Y0031478D01*
X0446337Y0032007D01*
X0447828Y0033498D01*
X0448635Y0035446D01*
X0448635Y0037554D01*
X0448332Y0038285D01*
X0449203Y0039156D01*
X0450433Y0040386D01*
X0450433Y0056720D01*
X0452279Y0055956D01*
X0454388Y0055956D01*
X0456336Y0056763D01*
X0457826Y0058254D01*
X0458633Y0060202D01*
X0458633Y0062310D01*
X0457826Y0064258D01*
X0456336Y0065749D01*
X0454388Y0066556D01*
X0452279Y0066556D01*
X0450331Y0065749D01*
X0448840Y0064258D01*
X0448333Y0063034D01*
X0447826Y0064258D01*
X0446336Y0065749D01*
X0444388Y0066556D01*
X0442279Y0066556D01*
X0440331Y0065749D01*
X0438840Y0064258D01*
X0438033Y0062310D01*
X0438033Y0060202D01*
X0438840Y0058254D01*
X0440331Y0056763D01*
X0442279Y0055956D01*
X0444388Y0055956D01*
X0445290Y0056330D01*
X0446233Y0055386D01*
X0446233Y0042126D01*
X0445463Y0041355D01*
X0444389Y0041800D01*
X0442281Y0041800D01*
X0440333Y0040993D01*
X0438842Y0039502D01*
X0438035Y0037554D01*
X0438035Y0035446D01*
X0438842Y0033498D01*
X0440333Y0032007D01*
X0441609Y0031479D01*
X0441222Y0031353D01*
X0440451Y0030960D01*
X0439750Y0030451D01*
X0439138Y0029839D01*
X0438629Y0029139D01*
X0438236Y0028367D01*
X0437969Y0027544D01*
X0437833Y0026689D01*
X0437833Y0026342D01*
X0443247Y0026342D01*
X0443247Y0026170D01*
X0437833Y0026170D01*
X0437833Y0025823D01*
X0437969Y0024968D01*
X0438236Y0024145D01*
X0438629Y0023373D01*
X0438715Y0023256D01*
X0405333Y0023256D01*
X0405333Y0023728D02*
X0438449Y0023728D01*
X0437912Y0025326D02*
X0405333Y0025326D01*
X0405333Y0026925D02*
X0437871Y0026925D01*
X0438316Y0028523D02*
X0405333Y0028523D01*
X0405333Y0030122D02*
X0439421Y0030122D01*
X0441025Y0031720D02*
X0405333Y0031720D01*
X0405333Y0033319D02*
X0439021Y0033319D01*
X0438254Y0034917D02*
X0405333Y0034917D01*
X0405333Y0036516D02*
X0438035Y0036516D01*
X0438267Y0038114D02*
X0405333Y0038114D01*
X0405333Y0039713D02*
X0439052Y0039713D01*
X0441101Y0041312D02*
X0431744Y0041312D01*
X0431445Y0041159D02*
X0432216Y0041552D01*
X0432916Y0042061D01*
X0433528Y0042673D01*
X0434037Y0043373D01*
X0434430Y0044145D01*
X0434698Y0044968D01*
X0434833Y0045823D01*
X0434833Y0046170D01*
X0429419Y0046170D01*
X0429419Y0040756D01*
X0429766Y0040756D01*
X0430621Y0040891D01*
X0431445Y0041159D01*
X0429419Y0041312D02*
X0429247Y0041312D01*
X0429247Y0040756D02*
X0429247Y0046170D01*
X0423833Y0046170D01*
X0423833Y0045823D01*
X0423969Y0044968D01*
X0424236Y0044145D01*
X0424629Y0043373D01*
X0425138Y0042673D01*
X0425750Y0042061D01*
X0426451Y0041552D01*
X0427222Y0041159D01*
X0428045Y0040891D01*
X0428900Y0040756D01*
X0429247Y0040756D01*
X0429247Y0042910D02*
X0429419Y0042910D01*
X0429419Y0044509D02*
X0429247Y0044509D01*
X0429247Y0046107D02*
X0429419Y0046107D01*
X0429419Y0046170D02*
X0429247Y0046170D01*
X0429247Y0046342D01*
X0423833Y0046342D01*
X0423833Y0046689D01*
X0423969Y0047544D01*
X0424236Y0048367D01*
X0424629Y0049139D01*
X0425138Y0049839D01*
X0425750Y0050451D01*
X0426451Y0050960D01*
X0427222Y0051353D01*
X0428045Y0051620D01*
X0428900Y0051756D01*
X0429247Y0051756D01*
X0429247Y0046342D01*
X0429419Y0046342D01*
X0429419Y0051756D01*
X0429766Y0051756D01*
X0430621Y0051620D01*
X0431445Y0051353D01*
X0432216Y0050960D01*
X0432916Y0050451D01*
X0433528Y0049839D01*
X0434037Y0049139D01*
X0434430Y0048367D01*
X0434698Y0047544D01*
X0434833Y0046689D01*
X0434833Y0046342D01*
X0429419Y0046342D01*
X0429419Y0046170D01*
X0429419Y0047706D02*
X0429247Y0047706D01*
X0429247Y0049304D02*
X0429419Y0049304D01*
X0429419Y0050903D02*
X0429247Y0050903D01*
X0426372Y0050903D02*
X0413699Y0050903D01*
X0415102Y0052501D02*
X0446233Y0052501D01*
X0446233Y0050903D02*
X0432295Y0050903D01*
X0433917Y0049304D02*
X0446233Y0049304D01*
X0446233Y0047706D02*
X0434645Y0047706D01*
X0434833Y0046107D02*
X0446233Y0046107D01*
X0446233Y0044509D02*
X0434549Y0044509D01*
X0433701Y0042910D02*
X0446233Y0042910D01*
X0450433Y0042910D02*
X0496383Y0042910D01*
X0496383Y0041312D02*
X0484819Y0041312D01*
X0483482Y0041312D02*
X0483311Y0041312D01*
X0483313Y0041512D02*
X0482899Y0041512D01*
X0482044Y0041376D01*
X0481221Y0041109D01*
X0480449Y0040716D01*
X0479749Y0040207D01*
X0479137Y0039595D01*
X0478628Y0038894D01*
X0478235Y0038123D01*
X0477967Y0037299D01*
X0477832Y0036444D01*
X0477832Y0036165D01*
X0483247Y0036098D01*
X0483313Y0041512D01*
X0481845Y0041312D02*
X0450433Y0041312D01*
X0449760Y0039713D02*
X0479255Y0039713D01*
X0478232Y0038114D02*
X0448403Y0038114D01*
X0448635Y0036516D02*
X0477843Y0036516D01*
X0477937Y0034917D02*
X0448416Y0034917D01*
X0447649Y0033319D02*
X0478531Y0033319D01*
X0479881Y0031720D02*
X0445645Y0031720D01*
X0447245Y0030122D02*
X0479704Y0030122D01*
X0478536Y0028523D02*
X0448351Y0028523D01*
X0448796Y0026925D02*
X0478033Y0026925D01*
X0478033Y0025326D02*
X0448755Y0025326D01*
X0448218Y0023728D02*
X0478644Y0023728D01*
X0488023Y0023728D02*
X0498644Y0023728D01*
X0498033Y0025326D02*
X0488633Y0025326D01*
X0488633Y0026925D02*
X0498033Y0026925D01*
X0498536Y0028523D02*
X0488131Y0028523D01*
X0486963Y0030122D02*
X0499704Y0030122D01*
X0500433Y0031720D02*
X0486783Y0031720D01*
X0488133Y0033319D02*
X0498813Y0033319D01*
X0498151Y0034917D02*
X0488727Y0034917D01*
X0488820Y0036516D02*
X0498033Y0036516D01*
X0498367Y0038114D02*
X0488432Y0038114D01*
X0487409Y0039713D02*
X0497119Y0039713D01*
X0501035Y0041312D02*
X0501689Y0041312D01*
X0500283Y0042910D02*
X0526333Y0042910D01*
X0526333Y0041312D02*
X0504978Y0041312D01*
X0507372Y0039713D02*
X0526333Y0039713D01*
X0526333Y0038114D02*
X0508300Y0038114D01*
X0508633Y0036516D02*
X0526333Y0036516D01*
X0526333Y0034917D02*
X0508516Y0034917D01*
X0507853Y0033319D02*
X0526333Y0033319D01*
X0526333Y0031720D02*
X0506233Y0031720D01*
X0506963Y0030122D02*
X0526333Y0030122D01*
X0526333Y0028523D02*
X0508131Y0028523D01*
X0508633Y0026925D02*
X0526333Y0026925D01*
X0526333Y0025326D02*
X0508633Y0025326D01*
X0508023Y0023728D02*
X0526333Y0023728D01*
X0483424Y0036516D02*
X0483252Y0036516D01*
X0483272Y0038114D02*
X0483443Y0038114D01*
X0483463Y0039713D02*
X0483291Y0039713D01*
X0496383Y0044509D02*
X0450433Y0044509D01*
X0450433Y0046107D02*
X0496383Y0046107D01*
X0492861Y0047706D02*
X0473806Y0047706D01*
X0473626Y0047526D02*
X0474863Y0048763D01*
X0475533Y0050381D01*
X0475533Y0052131D01*
X0474863Y0053748D01*
X0473626Y0054986D01*
X0472009Y0055656D01*
X0464658Y0055656D01*
X0463041Y0054986D01*
X0461803Y0053748D01*
X0461133Y0052131D01*
X0461133Y0050381D01*
X0461803Y0048763D01*
X0463041Y0047526D01*
X0464658Y0046856D01*
X0472009Y0046856D01*
X0473626Y0047526D01*
X0475087Y0049304D02*
X0491579Y0049304D01*
X0491133Y0050903D02*
X0475533Y0050903D01*
X0475380Y0052501D02*
X0491287Y0052501D01*
X0492154Y0054100D02*
X0474512Y0054100D01*
X0473073Y0057297D02*
X0493594Y0057297D01*
X0493041Y0057526D02*
X0494658Y0056856D01*
X0502009Y0056856D01*
X0503626Y0057526D01*
X0504863Y0058763D01*
X0505533Y0060381D01*
X0505533Y0062131D01*
X0504863Y0063748D01*
X0503626Y0064986D01*
X0502009Y0065656D01*
X0494658Y0065656D01*
X0493041Y0064986D01*
X0491803Y0063748D01*
X0491579Y0063206D01*
X0487891Y0063206D01*
X0473587Y0077510D01*
X0473626Y0077526D01*
X0474863Y0078763D01*
X0475533Y0080381D01*
X0475533Y0082131D01*
X0474863Y0083748D01*
X0473626Y0084986D01*
X0472009Y0085656D01*
X0464658Y0085656D01*
X0463041Y0084986D01*
X0461803Y0083748D01*
X0461231Y0082366D01*
X0458564Y0085033D01*
X0458633Y0085202D01*
X0458633Y0087310D01*
X0457826Y0089258D01*
X0456336Y0090749D01*
X0454388Y0091556D01*
X0452279Y0091556D01*
X0450331Y0090749D01*
X0448840Y0089258D01*
X0448333Y0088034D01*
X0447826Y0089258D01*
X0446336Y0090749D01*
X0444388Y0091556D01*
X0442279Y0091556D01*
X0440331Y0090749D01*
X0438840Y0089258D01*
X0438033Y0087310D01*
X0438033Y0085202D01*
X0438840Y0083254D01*
X0440331Y0081763D01*
X0442279Y0080956D01*
X0444388Y0080956D01*
X0446336Y0081763D01*
X0447826Y0083254D01*
X0448333Y0084477D01*
X0448840Y0083254D01*
X0450331Y0081763D01*
X0452279Y0080956D01*
X0454388Y0080956D01*
X0456324Y0081758D01*
X0463080Y0075002D01*
X0463041Y0074986D01*
X0461803Y0073748D01*
X0461133Y0072131D01*
X0461133Y0070381D01*
X0461803Y0068763D01*
X0463041Y0067526D01*
X0464658Y0066856D01*
X0472009Y0066856D01*
X0473626Y0067526D01*
X0474863Y0068763D01*
X0475436Y0070146D01*
X0486276Y0059306D01*
X0491579Y0059306D01*
X0491803Y0058763D01*
X0493041Y0057526D01*
X0491749Y0058895D02*
X0474918Y0058895D01*
X0474863Y0058763D02*
X0475533Y0060381D01*
X0475533Y0062131D01*
X0474863Y0063748D01*
X0473626Y0064986D01*
X0472009Y0065656D01*
X0464658Y0065656D01*
X0463041Y0064986D01*
X0461803Y0063748D01*
X0461133Y0062131D01*
X0461133Y0060381D01*
X0461803Y0058763D01*
X0463041Y0057526D01*
X0464658Y0056856D01*
X0472009Y0056856D01*
X0473626Y0057526D01*
X0474863Y0058763D01*
X0475533Y0060494D02*
X0485088Y0060494D01*
X0483489Y0062092D02*
X0475533Y0062092D01*
X0474887Y0063691D02*
X0481891Y0063691D01*
X0480292Y0065289D02*
X0472894Y0065289D01*
X0472085Y0066888D02*
X0478694Y0066888D01*
X0477095Y0068486D02*
X0474586Y0068486D01*
X0475411Y0070085D02*
X0475497Y0070085D01*
X0479414Y0071683D02*
X0491133Y0071683D01*
X0491133Y0072131D02*
X0491133Y0070381D01*
X0491803Y0068763D01*
X0493041Y0067526D01*
X0494658Y0066856D01*
X0502009Y0066856D01*
X0503626Y0067526D01*
X0504863Y0068763D01*
X0505533Y0070381D01*
X0505533Y0072131D01*
X0504863Y0073748D01*
X0503626Y0074986D01*
X0502009Y0075656D01*
X0494658Y0075656D01*
X0493041Y0074986D01*
X0491803Y0073748D01*
X0491133Y0072131D01*
X0491610Y0073282D02*
X0477815Y0073282D01*
X0476217Y0074880D02*
X0492935Y0074880D01*
X0494658Y0076856D02*
X0502009Y0076856D01*
X0503626Y0077526D01*
X0504863Y0078763D01*
X0505533Y0080381D01*
X0505533Y0082131D01*
X0504863Y0083748D01*
X0503626Y0084986D01*
X0502009Y0085656D01*
X0494658Y0085656D01*
X0493041Y0084986D01*
X0491803Y0083748D01*
X0491133Y0082131D01*
X0491133Y0080381D01*
X0491803Y0078763D01*
X0493041Y0077526D01*
X0494658Y0076856D01*
X0492489Y0078077D02*
X0474177Y0078077D01*
X0474618Y0076479D02*
X0517033Y0076479D01*
X0517166Y0074880D02*
X0503732Y0074880D01*
X0505057Y0073282D02*
X0517829Y0073282D01*
X0519523Y0071683D02*
X0505533Y0071683D01*
X0505411Y0070085D02*
X0518667Y0070085D01*
X0517520Y0068486D02*
X0504586Y0068486D01*
X0502085Y0066888D02*
X0517033Y0066888D01*
X0517033Y0065289D02*
X0502894Y0065289D01*
X0504887Y0063691D02*
X0517659Y0063691D01*
X0519002Y0062092D02*
X0505533Y0062092D01*
X0505533Y0060494D02*
X0518809Y0060494D01*
X0517505Y0058895D02*
X0504918Y0058895D01*
X0503073Y0057297D02*
X0516930Y0057297D01*
X0516853Y0055698D02*
X0450433Y0055698D01*
X0450433Y0054100D02*
X0462154Y0054100D01*
X0461287Y0052501D02*
X0450433Y0052501D01*
X0450433Y0050903D02*
X0461133Y0050903D01*
X0461579Y0049304D02*
X0450433Y0049304D01*
X0450433Y0047706D02*
X0462861Y0047706D01*
X0446233Y0054100D02*
X0415719Y0054100D01*
X0415832Y0055698D02*
X0445921Y0055698D01*
X0439797Y0057297D02*
X0415453Y0057297D01*
X0414472Y0058895D02*
X0438575Y0058895D01*
X0438033Y0060494D02*
X0412686Y0060494D01*
X0414665Y0062092D02*
X0438033Y0062092D01*
X0438605Y0063691D02*
X0415422Y0063691D01*
X0415633Y0065289D02*
X0439871Y0065289D01*
X0446795Y0065289D02*
X0449871Y0065289D01*
X0448605Y0063691D02*
X0448061Y0063691D01*
X0456795Y0065289D02*
X0463773Y0065289D01*
X0464581Y0066888D02*
X0415394Y0066888D01*
X0414598Y0068486D02*
X0462080Y0068486D01*
X0461256Y0070085D02*
X0412525Y0070085D01*
X0414256Y0071683D02*
X0461133Y0071683D01*
X0461610Y0073282D02*
X0415252Y0073282D01*
X0415633Y0074880D02*
X0462935Y0074880D01*
X0461603Y0076479D02*
X0416526Y0076479D01*
X0418125Y0078077D02*
X0460004Y0078077D01*
X0458406Y0079676D02*
X0419723Y0079676D01*
X0421322Y0081274D02*
X0427510Y0081274D01*
X0425221Y0082873D02*
X0422920Y0082873D01*
X0431156Y0081274D02*
X0441510Y0081274D01*
X0439221Y0082873D02*
X0433446Y0082873D01*
X0434331Y0084471D02*
X0438336Y0084471D01*
X0438033Y0086070D02*
X0434633Y0086070D01*
X0434485Y0087668D02*
X0438182Y0087668D01*
X0438849Y0089267D02*
X0433818Y0089267D01*
X0432055Y0090865D02*
X0440612Y0090865D01*
X0446055Y0090865D02*
X0450612Y0090865D01*
X0448849Y0089267D02*
X0447818Y0089267D01*
X0448331Y0084471D02*
X0448336Y0084471D01*
X0449221Y0082873D02*
X0447446Y0082873D01*
X0445156Y0081274D02*
X0451510Y0081274D01*
X0455156Y0081274D02*
X0456807Y0081274D01*
X0459126Y0084471D02*
X0462526Y0084471D01*
X0461441Y0082873D02*
X0460724Y0082873D01*
X0458633Y0086070D02*
X0517033Y0086070D01*
X0517182Y0087668D02*
X0503768Y0087668D01*
X0503626Y0087526D02*
X0504863Y0088763D01*
X0505533Y0090381D01*
X0505533Y0092131D01*
X0504863Y0093748D01*
X0503626Y0094986D01*
X0502009Y0095656D01*
X0494658Y0095656D01*
X0493041Y0094986D01*
X0491803Y0093748D01*
X0491133Y0092131D01*
X0491133Y0090381D01*
X0491803Y0088763D01*
X0493041Y0087526D01*
X0494658Y0086856D01*
X0502009Y0086856D01*
X0503626Y0087526D01*
X0505072Y0089267D02*
X0517849Y0089267D01*
X0519612Y0090865D02*
X0505533Y0090865D01*
X0505395Y0092464D02*
X0518630Y0092464D01*
X0517505Y0094062D02*
X0504549Y0094062D01*
X0502983Y0097259D02*
X0517033Y0097259D01*
X0517033Y0095661D02*
X0425433Y0095661D01*
X0425433Y0097259D02*
X0463684Y0097259D01*
X0463041Y0097526D02*
X0464658Y0096856D01*
X0472009Y0096856D01*
X0473626Y0097526D01*
X0474863Y0098763D01*
X0475533Y0100381D01*
X0475533Y0102131D01*
X0474863Y0103748D01*
X0473626Y0104986D01*
X0472009Y0105656D01*
X0464658Y0105656D01*
X0463041Y0104986D01*
X0461803Y0103748D01*
X0461133Y0102131D01*
X0461133Y0100381D01*
X0461803Y0098763D01*
X0463041Y0097526D01*
X0461764Y0098858D02*
X0425433Y0098858D01*
X0425504Y0100456D02*
X0461133Y0100456D01*
X0461133Y0102055D02*
X0427102Y0102055D01*
X0428701Y0103653D02*
X0461764Y0103653D01*
X0463683Y0105252D02*
X0435299Y0105252D01*
X0436898Y0106850D02*
X0445856Y0106850D01*
X0445687Y0106937D02*
X0446395Y0106576D01*
X0447151Y0106330D01*
X0447936Y0106206D01*
X0448333Y0106206D01*
X0448333Y0111256D01*
X0448333Y0111256D01*
X0443283Y0111256D01*
X0443283Y0110858D01*
X0443408Y0110073D01*
X0443653Y0109317D01*
X0444014Y0108609D01*
X0444481Y0107966D01*
X0445043Y0107404D01*
X0445687Y0106937D01*
X0444131Y0108449D02*
X0438496Y0108449D01*
X0440095Y0110047D02*
X0443416Y0110047D01*
X0443283Y0111646D02*
X0441693Y0111646D01*
X0443292Y0113245D02*
X0443679Y0113245D01*
X0448333Y0113245D02*
X0448333Y0113245D01*
X0448333Y0114843D02*
X0448333Y0114843D01*
X0448333Y0116306D02*
X0448333Y0111256D01*
X0448333Y0111256D01*
X0448333Y0106206D01*
X0448731Y0106206D01*
X0449516Y0106330D01*
X0450272Y0106576D01*
X0450980Y0106937D01*
X0451623Y0107404D01*
X0452185Y0107966D01*
X0452652Y0108609D01*
X0453013Y0109317D01*
X0453259Y0110073D01*
X0453383Y0110858D01*
X0453383Y0111256D01*
X0453383Y0111653D01*
X0453259Y0112438D01*
X0453013Y0113194D01*
X0452652Y0113903D01*
X0452185Y0114546D01*
X0451623Y0115108D01*
X0450980Y0115575D01*
X0450272Y0115936D01*
X0449516Y0116182D01*
X0448731Y0116306D01*
X0448333Y0116306D01*
X0447283Y0116442D02*
X0446489Y0116442D01*
X0449384Y0116442D02*
X0514511Y0116442D01*
X0516110Y0118040D02*
X0504423Y0118040D01*
X0504642Y0118259D02*
X0505068Y0118845D01*
X0505396Y0119490D01*
X0505620Y0120179D01*
X0505733Y0120894D01*
X0505733Y0121256D01*
X0505733Y0121618D01*
X0505620Y0122333D01*
X0505396Y0123022D01*
X0505068Y0123667D01*
X0504642Y0124253D01*
X0504130Y0124765D01*
X0503544Y0125190D01*
X0502899Y0125519D01*
X0502210Y0125743D01*
X0501495Y0125856D01*
X0498333Y0125856D01*
X0495171Y0125856D01*
X0494456Y0125743D01*
X0493768Y0125519D01*
X0493122Y0125190D01*
X0492537Y0124765D01*
X0492025Y0124253D01*
X0491599Y0123667D01*
X0491270Y0123022D01*
X0491047Y0122333D01*
X0490933Y0121618D01*
X0490933Y0121256D01*
X0498333Y0121256D01*
X0498333Y0121256D01*
X0490933Y0121256D01*
X0490933Y0120894D01*
X0491047Y0120179D01*
X0491270Y0119490D01*
X0491599Y0118845D01*
X0492025Y0118259D01*
X0492537Y0117747D01*
X0493122Y0117322D01*
X0493768Y0116993D01*
X0494456Y0116769D01*
X0495171Y0116656D01*
X0498333Y0116656D01*
X0498333Y0121256D01*
X0498333Y0125856D01*
X0498333Y0121256D01*
X0498333Y0121256D01*
X0498333Y0121256D01*
X0498333Y0116656D01*
X0501495Y0116656D01*
X0502210Y0116769D01*
X0502899Y0116993D01*
X0503544Y0117322D01*
X0504130Y0117747D01*
X0504642Y0118259D01*
X0505445Y0119639D02*
X0517267Y0119639D01*
X0517033Y0121237D02*
X0505733Y0121237D01*
X0505733Y0121256D02*
X0498333Y0121256D01*
X0505733Y0121256D01*
X0505457Y0122836D02*
X0517251Y0122836D01*
X0518016Y0124434D02*
X0504461Y0124434D01*
X0503731Y0127631D02*
X0518463Y0127631D01*
X0517436Y0129230D02*
X0505057Y0129230D01*
X0498333Y0124434D02*
X0498333Y0124434D01*
X0498333Y0122836D02*
X0498333Y0122836D01*
X0498333Y0121256D02*
X0498333Y0121256D01*
X0498333Y0121237D02*
X0498333Y0121237D01*
X0498333Y0119639D02*
X0498333Y0119639D01*
X0498333Y0118040D02*
X0498333Y0118040D01*
X0494658Y0115656D02*
X0493041Y0114986D01*
X0491803Y0113748D01*
X0491133Y0112131D01*
X0491133Y0110381D01*
X0491803Y0108763D01*
X0493041Y0107526D01*
X0494658Y0106856D01*
X0502009Y0106856D01*
X0503626Y0107526D01*
X0504863Y0108763D01*
X0505533Y0110381D01*
X0505533Y0112131D01*
X0504863Y0113748D01*
X0503626Y0114986D01*
X0502009Y0115656D01*
X0494658Y0115656D01*
X0492898Y0114843D02*
X0474022Y0114843D01*
X0474130Y0114765D02*
X0473544Y0115190D01*
X0472899Y0115519D01*
X0472210Y0115743D01*
X0471495Y0115856D01*
X0468333Y0115856D01*
X0465171Y0115856D01*
X0464456Y0115743D01*
X0463768Y0115519D01*
X0463122Y0115190D01*
X0462537Y0114765D01*
X0462025Y0114253D01*
X0461599Y0113667D01*
X0461270Y0113022D01*
X0461047Y0112333D01*
X0460933Y0111618D01*
X0460933Y0111256D01*
X0468333Y0111256D01*
X0468333Y0111256D01*
X0460933Y0111256D01*
X0460933Y0110894D01*
X0461047Y0110179D01*
X0461270Y0109490D01*
X0461599Y0108845D01*
X0462025Y0108259D01*
X0462537Y0107747D01*
X0463122Y0107322D01*
X0463768Y0106993D01*
X0464456Y0106769D01*
X0465171Y0106656D01*
X0468333Y0106656D01*
X0468333Y0111256D01*
X0468333Y0115856D01*
X0468333Y0111256D01*
X0468333Y0111256D01*
X0468333Y0111256D01*
X0468333Y0106656D01*
X0471495Y0106656D01*
X0472210Y0106769D01*
X0472899Y0106993D01*
X0473544Y0107322D01*
X0474130Y0107747D01*
X0474642Y0108259D01*
X0475068Y0108845D01*
X0475396Y0109490D01*
X0475620Y0110179D01*
X0475733Y0110894D01*
X0475733Y0111256D01*
X0475733Y0111618D01*
X0475620Y0112333D01*
X0475396Y0113022D01*
X0475068Y0113667D01*
X0474642Y0114253D01*
X0474130Y0114765D01*
X0475283Y0113245D02*
X0491595Y0113245D01*
X0491133Y0111646D02*
X0475729Y0111646D01*
X0475733Y0111256D02*
X0468333Y0111256D01*
X0468333Y0111256D01*
X0475733Y0111256D01*
X0475577Y0110047D02*
X0491271Y0110047D01*
X0492118Y0108449D02*
X0474780Y0108449D01*
X0472461Y0106850D02*
X0504920Y0106850D01*
X0504549Y0108449D02*
X0506519Y0108449D01*
X0505395Y0110047D02*
X0508117Y0110047D01*
X0509716Y0111646D02*
X0505533Y0111646D01*
X0505072Y0113245D02*
X0511314Y0113245D01*
X0512913Y0114843D02*
X0503769Y0114843D01*
X0513633Y0110047D02*
X0518630Y0110047D01*
X0517505Y0108449D02*
X0512034Y0108449D01*
X0510436Y0106850D02*
X0517033Y0106850D01*
X0517033Y0105252D02*
X0508837Y0105252D01*
X0507239Y0103653D02*
X0517675Y0103653D01*
X0519039Y0102055D02*
X0505640Y0102055D01*
X0505533Y0100456D02*
X0519039Y0100456D01*
X0517674Y0098858D02*
X0504903Y0098858D01*
X0493684Y0097259D02*
X0472983Y0097259D01*
X0472009Y0095656D02*
X0473626Y0094986D01*
X0474863Y0093748D01*
X0475533Y0092131D01*
X0475533Y0090381D01*
X0474863Y0088763D01*
X0473626Y0087526D01*
X0472009Y0086856D01*
X0464658Y0086856D01*
X0463041Y0087526D01*
X0461803Y0088763D01*
X0461133Y0090381D01*
X0461133Y0092131D01*
X0461803Y0093748D01*
X0463041Y0094986D01*
X0464658Y0095656D01*
X0472009Y0095656D01*
X0474549Y0094062D02*
X0492117Y0094062D01*
X0491271Y0092464D02*
X0475395Y0092464D01*
X0475533Y0090865D02*
X0491133Y0090865D01*
X0491595Y0089267D02*
X0475072Y0089267D01*
X0473768Y0087668D02*
X0492898Y0087668D01*
X0492526Y0084471D02*
X0474140Y0084471D01*
X0475226Y0082873D02*
X0491441Y0082873D01*
X0491133Y0081274D02*
X0475533Y0081274D01*
X0475241Y0079676D02*
X0491425Y0079676D01*
X0504177Y0078077D02*
X0517351Y0078077D01*
X0518258Y0079676D02*
X0505241Y0079676D01*
X0505533Y0081274D02*
X0520510Y0081274D01*
X0518221Y0082873D02*
X0505226Y0082873D01*
X0504140Y0084471D02*
X0517336Y0084471D01*
X0491764Y0098858D02*
X0474903Y0098858D01*
X0475533Y0100456D02*
X0491133Y0100456D01*
X0491133Y0102055D02*
X0475533Y0102055D01*
X0474903Y0103653D02*
X0491764Y0103653D01*
X0493683Y0105252D02*
X0472984Y0105252D01*
X0468333Y0106850D02*
X0468333Y0106850D01*
X0468333Y0108449D02*
X0468333Y0108449D01*
X0468333Y0110047D02*
X0468333Y0110047D01*
X0468333Y0111646D02*
X0468333Y0111646D01*
X0468333Y0113245D02*
X0468333Y0113245D01*
X0468333Y0114843D02*
X0468333Y0114843D01*
X0464658Y0116856D02*
X0472009Y0116856D01*
X0473626Y0117526D01*
X0474863Y0118763D01*
X0475533Y0120381D01*
X0475533Y0122131D01*
X0474863Y0123748D01*
X0473626Y0124986D01*
X0472009Y0125656D01*
X0464658Y0125656D01*
X0463041Y0124986D01*
X0461803Y0123748D01*
X0461133Y0122131D01*
X0461133Y0120381D01*
X0461803Y0118763D01*
X0463041Y0117526D01*
X0464658Y0116856D01*
X0462527Y0118040D02*
X0451976Y0118040D01*
X0452913Y0119639D02*
X0461441Y0119639D01*
X0461133Y0121237D02*
X0453183Y0121237D01*
X0452929Y0122836D02*
X0461425Y0122836D01*
X0462489Y0124434D02*
X0452014Y0124434D01*
X0449475Y0126033D02*
X0520016Y0126033D01*
X0517744Y0134025D02*
X0504587Y0134025D01*
X0502086Y0135624D02*
X0519206Y0135624D01*
X0518872Y0137222D02*
X0502893Y0137222D01*
X0504887Y0138821D02*
X0517605Y0138821D01*
X0517574Y0143616D02*
X0504918Y0143616D01*
X0503074Y0145215D02*
X0518797Y0145215D01*
X0519281Y0146813D02*
X0460433Y0146813D01*
X0460433Y0145215D02*
X0463593Y0145215D01*
X0463041Y0144986D02*
X0461803Y0143748D01*
X0461133Y0142131D01*
X0461133Y0140381D01*
X0461803Y0138763D01*
X0463041Y0137526D01*
X0464658Y0136856D01*
X0472009Y0136856D01*
X0473626Y0137526D01*
X0474863Y0138763D01*
X0475533Y0140381D01*
X0475533Y0142131D01*
X0474863Y0143748D01*
X0473626Y0144986D01*
X0472009Y0145656D01*
X0464658Y0145656D01*
X0463041Y0144986D01*
X0461748Y0143616D02*
X0460433Y0143616D01*
X0460433Y0142018D02*
X0461133Y0142018D01*
X0461133Y0140419D02*
X0460433Y0140419D01*
X0461779Y0138821D02*
X0458868Y0138821D01*
X0457269Y0137222D02*
X0463774Y0137222D01*
X0464580Y0135624D02*
X0455671Y0135624D01*
X0454072Y0134025D02*
X0462080Y0134025D01*
X0461803Y0133748D02*
X0463041Y0134986D01*
X0464658Y0135656D01*
X0472009Y0135656D01*
X0473626Y0134986D01*
X0474863Y0133748D01*
X0475533Y0132131D01*
X0475533Y0130381D01*
X0474863Y0128763D01*
X0473626Y0127526D01*
X0472009Y0126856D01*
X0464658Y0126856D01*
X0463041Y0127526D01*
X0461803Y0128763D01*
X0461133Y0130381D01*
X0461133Y0132131D01*
X0461803Y0133748D01*
X0461256Y0132427D02*
X0452474Y0132427D01*
X0450875Y0130828D02*
X0461133Y0130828D01*
X0461610Y0129230D02*
X0449277Y0129230D01*
X0447678Y0127631D02*
X0462936Y0127631D01*
X0473731Y0127631D02*
X0492936Y0127631D01*
X0491610Y0129230D02*
X0475057Y0129230D01*
X0475533Y0130828D02*
X0491133Y0130828D01*
X0491256Y0132427D02*
X0475411Y0132427D01*
X0474587Y0134025D02*
X0492080Y0134025D01*
X0494580Y0135624D02*
X0472086Y0135624D01*
X0472893Y0137222D02*
X0493774Y0137222D01*
X0491779Y0138821D02*
X0474887Y0138821D01*
X0475533Y0140419D02*
X0491133Y0140419D01*
X0491133Y0142018D02*
X0475533Y0142018D01*
X0474918Y0143616D02*
X0491748Y0143616D01*
X0493593Y0145215D02*
X0473074Y0145215D01*
X0474512Y0148412D02*
X0492155Y0148412D01*
X0491287Y0150010D02*
X0475380Y0150010D01*
X0475533Y0151609D02*
X0491133Y0151609D01*
X0491579Y0153207D02*
X0475088Y0153207D01*
X0473806Y0154806D02*
X0492861Y0154806D01*
X0492564Y0158003D02*
X0474103Y0158003D01*
X0475210Y0159601D02*
X0491456Y0159601D01*
X0491133Y0161200D02*
X0475533Y0161200D01*
X0475257Y0162798D02*
X0491410Y0162798D01*
X0492452Y0164397D02*
X0474215Y0164397D01*
X0473626Y0167526D02*
X0474863Y0168763D01*
X0475533Y0170381D01*
X0475533Y0172131D01*
X0474863Y0173748D01*
X0473626Y0174986D01*
X0472009Y0175656D01*
X0464658Y0175656D01*
X0463041Y0174986D01*
X0461803Y0173748D01*
X0461133Y0172131D01*
X0461133Y0170381D01*
X0461803Y0168763D01*
X0463041Y0167526D01*
X0464658Y0166856D01*
X0472009Y0166856D01*
X0473626Y0167526D01*
X0473694Y0167594D02*
X0492973Y0167594D01*
X0491626Y0169192D02*
X0475041Y0169192D01*
X0475533Y0170791D02*
X0491133Y0170791D01*
X0491240Y0172389D02*
X0475426Y0172389D01*
X0474624Y0173988D02*
X0492043Y0173988D01*
X0494490Y0175586D02*
X0472176Y0175586D01*
X0472009Y0176856D02*
X0473626Y0177526D01*
X0474863Y0178763D01*
X0475533Y0180381D01*
X0475533Y0182131D01*
X0474863Y0183748D01*
X0473626Y0184986D01*
X0472009Y0185656D01*
X0464658Y0185656D01*
X0463041Y0184986D01*
X0461803Y0183748D01*
X0461133Y0182131D01*
X0461133Y0180381D01*
X0461803Y0178763D01*
X0463041Y0177526D01*
X0464658Y0176856D01*
X0472009Y0176856D01*
X0472803Y0177185D02*
X0493864Y0177185D01*
X0491795Y0178783D02*
X0474872Y0178783D01*
X0475533Y0180382D02*
X0491133Y0180382D01*
X0491133Y0181980D02*
X0475533Y0181980D01*
X0474934Y0183579D02*
X0491733Y0183579D01*
X0493503Y0185178D02*
X0473163Y0185178D01*
X0463503Y0185178D02*
X0457669Y0185178D01*
X0457682Y0185154D02*
X0456352Y0187457D01*
X0454472Y0189338D01*
X0452169Y0190668D01*
X0449600Y0191356D01*
X0446941Y0191356D01*
X0444372Y0190668D01*
X0442069Y0189338D01*
X0440188Y0187457D01*
X0438859Y0185154D01*
X0438170Y0182586D01*
X0438170Y0179926D01*
X0438859Y0177357D01*
X0440188Y0175054D01*
X0442069Y0173174D01*
X0444372Y0171844D01*
X0446941Y0171156D01*
X0449600Y0171156D01*
X0452169Y0171844D01*
X0453733Y0172748D01*
X0453733Y0158626D01*
X0448733Y0153626D01*
X0448733Y0152623D01*
X0447831Y0152249D01*
X0446340Y0150758D01*
X0445533Y0148810D01*
X0445533Y0146702D01*
X0446340Y0144754D01*
X0447831Y0143263D01*
X0449779Y0142456D01*
X0451888Y0142456D01*
X0453836Y0143263D01*
X0455326Y0144754D01*
X0456133Y0146702D01*
X0456133Y0148810D01*
X0455326Y0150758D01*
X0453836Y0152249D01*
X0453454Y0152407D01*
X0456703Y0155656D01*
X0457933Y0156886D01*
X0457933Y0174626D01*
X0456774Y0175785D01*
X0457682Y0177357D01*
X0458370Y0179926D01*
X0458370Y0182586D01*
X0457682Y0185154D01*
X0458104Y0183579D02*
X0461733Y0183579D01*
X0461133Y0181980D02*
X0458370Y0181980D01*
X0458370Y0180382D02*
X0461133Y0180382D01*
X0461795Y0178783D02*
X0458064Y0178783D01*
X0457582Y0177185D02*
X0463864Y0177185D01*
X0464490Y0175586D02*
X0456973Y0175586D01*
X0457933Y0173988D02*
X0462043Y0173988D01*
X0461240Y0172389D02*
X0457933Y0172389D01*
X0457933Y0170791D02*
X0461133Y0170791D01*
X0461626Y0169192D02*
X0457933Y0169192D01*
X0457933Y0167594D02*
X0462973Y0167594D01*
X0457933Y0165995D02*
X0519926Y0165995D01*
X0518500Y0167594D02*
X0503694Y0167594D01*
X0505041Y0169192D02*
X0517451Y0169192D01*
X0517728Y0173988D02*
X0504624Y0173988D01*
X0502176Y0175586D02*
X0519169Y0175586D01*
X0518909Y0177185D02*
X0502803Y0177185D01*
X0504872Y0178783D02*
X0517621Y0178783D01*
X0517559Y0183579D02*
X0504934Y0183579D01*
X0503163Y0185178D02*
X0518760Y0185178D01*
X0519142Y0186776D02*
X0456746Y0186776D01*
X0455435Y0188375D02*
X0517629Y0188375D01*
X0516968Y0189973D02*
X0453372Y0189973D01*
X0443169Y0189973D02*
X0430135Y0189973D01*
X0430618Y0189669D02*
X0429638Y0190285D01*
X0428596Y0190787D01*
X0427504Y0191169D01*
X0426376Y0191426D01*
X0425448Y0191531D01*
X0425448Y0182056D01*
X0423848Y0182056D01*
X0423848Y0180456D01*
X0414373Y0180456D01*
X0414478Y0179528D01*
X0414735Y0178400D01*
X0415117Y0177308D01*
X0415619Y0176266D01*
X0416235Y0175286D01*
X0416956Y0174382D01*
X0417774Y0173564D01*
X0418679Y0172842D01*
X0419658Y0172227D01*
X0420700Y0171725D01*
X0421792Y0171343D01*
X0422920Y0171085D01*
X0423848Y0170981D01*
X0423848Y0180456D01*
X0425448Y0180456D01*
X0425448Y0170981D01*
X0426376Y0171085D01*
X0427504Y0171343D01*
X0428596Y0171725D01*
X0429638Y0172227D01*
X0430618Y0172842D01*
X0431522Y0173564D01*
X0432341Y0174382D01*
X0433062Y0175286D01*
X0433677Y0176266D01*
X0434179Y0177308D01*
X0434561Y0178400D01*
X0434819Y0179528D01*
X0434923Y0180456D01*
X0425448Y0180456D01*
X0425448Y0182056D01*
X0434923Y0182056D01*
X0434819Y0182984D01*
X0434561Y0184112D01*
X0434179Y0185204D01*
X0433677Y0186246D01*
X0433062Y0187226D01*
X0432341Y0188130D01*
X0431522Y0188948D01*
X0430618Y0189669D01*
X0432096Y0188375D02*
X0441105Y0188375D01*
X0439795Y0186776D02*
X0433344Y0186776D01*
X0434188Y0185178D02*
X0438872Y0185178D01*
X0438437Y0183579D02*
X0434683Y0183579D01*
X0438170Y0181980D02*
X0425448Y0181980D01*
X0425448Y0180382D02*
X0423848Y0180382D01*
X0423848Y0181980D02*
X0405333Y0181980D01*
X0405333Y0180382D02*
X0414382Y0180382D01*
X0414648Y0178783D02*
X0405333Y0178783D01*
X0405333Y0177185D02*
X0415177Y0177185D01*
X0416046Y0175586D02*
X0405333Y0175586D01*
X0405333Y0173988D02*
X0417350Y0173988D01*
X0419399Y0172389D02*
X0405333Y0172389D01*
X0405333Y0170791D02*
X0430020Y0170791D01*
X0429585Y0170444D02*
X0430490Y0171165D01*
X0431469Y0171781D01*
X0432511Y0172283D01*
X0433603Y0172665D01*
X0434731Y0172922D01*
X0435659Y0173027D01*
X0435659Y0163552D01*
X0435659Y0161952D01*
X0426184Y0161952D01*
X0426289Y0161024D01*
X0426546Y0159896D01*
X0426928Y0158804D01*
X0427430Y0157762D01*
X0428046Y0156782D01*
X0428767Y0155878D01*
X0429585Y0155060D01*
X0430490Y0154338D01*
X0431469Y0153723D01*
X0432511Y0153221D01*
X0433603Y0152839D01*
X0434731Y0152581D01*
X0435659Y0152477D01*
X0435659Y0161952D01*
X0437259Y0161952D01*
X0437259Y0152477D01*
X0438187Y0152581D01*
X0439315Y0152839D01*
X0440407Y0153221D01*
X0441449Y0153723D01*
X0442429Y0154338D01*
X0443333Y0155060D01*
X0444152Y0155878D01*
X0444873Y0156782D01*
X0445488Y0157762D01*
X0445990Y0158804D01*
X0446372Y0159896D01*
X0446630Y0161024D01*
X0446734Y0161952D01*
X0437259Y0161952D01*
X0437259Y0163552D01*
X0435659Y0163552D01*
X0426184Y0163552D01*
X0426289Y0164480D01*
X0426546Y0165608D01*
X0426928Y0166700D01*
X0427430Y0167742D01*
X0428046Y0168722D01*
X0428767Y0169626D01*
X0429585Y0170444D01*
X0428421Y0169192D02*
X0405333Y0169192D01*
X0405333Y0167594D02*
X0427359Y0167594D01*
X0426682Y0165995D02*
X0405333Y0165995D01*
X0405333Y0164397D02*
X0426279Y0164397D01*
X0426269Y0161200D02*
X0405333Y0161200D01*
X0405333Y0162798D02*
X0435659Y0162798D01*
X0435659Y0161200D02*
X0437259Y0161200D01*
X0437259Y0162798D02*
X0453733Y0162798D01*
X0453733Y0161200D02*
X0446650Y0161200D01*
X0446269Y0159601D02*
X0453733Y0159601D01*
X0453110Y0158003D02*
X0445604Y0158003D01*
X0444571Y0156404D02*
X0451512Y0156404D01*
X0449913Y0154806D02*
X0443015Y0154806D01*
X0440368Y0153207D02*
X0448733Y0153207D01*
X0447191Y0151609D02*
X0414476Y0151609D01*
X0413836Y0152249D02*
X0411888Y0153056D01*
X0409779Y0153056D01*
X0407831Y0152249D01*
X0406340Y0150758D01*
X0405533Y0148810D01*
X0405533Y0146702D01*
X0406340Y0144754D01*
X0407831Y0143263D01*
X0409779Y0142456D01*
X0409876Y0142456D01*
X0410026Y0142306D01*
X0410383Y0141948D01*
X0410383Y0138314D01*
X0408133Y0136064D01*
X0408133Y0135094D01*
X0407586Y0134868D01*
X0406222Y0133503D01*
X0405483Y0131721D01*
X0405483Y0129791D01*
X0406222Y0128009D01*
X0407586Y0126644D01*
X0409369Y0125906D01*
X0411298Y0125906D01*
X0413081Y0126644D01*
X0414445Y0128009D01*
X0415183Y0129791D01*
X0415183Y0131721D01*
X0414445Y0133503D01*
X0413081Y0134868D01*
X0412637Y0135051D01*
X0413141Y0135556D01*
X0414283Y0136698D01*
X0414283Y0143564D01*
X0414210Y0143637D01*
X0415326Y0144754D01*
X0416133Y0146702D01*
X0416133Y0148810D01*
X0415326Y0150758D01*
X0413836Y0152249D01*
X0415636Y0150010D02*
X0446030Y0150010D01*
X0445533Y0148412D02*
X0416133Y0148412D01*
X0416133Y0146813D02*
X0445533Y0146813D01*
X0446149Y0145215D02*
X0415517Y0145215D01*
X0414231Y0143616D02*
X0447478Y0143616D01*
X0454189Y0143616D02*
X0456233Y0143616D01*
X0456233Y0145215D02*
X0455517Y0145215D01*
X0456133Y0146813D02*
X0456233Y0146813D01*
X0456233Y0148412D02*
X0456133Y0148412D01*
X0456233Y0150010D02*
X0455636Y0150010D01*
X0456233Y0151609D02*
X0454476Y0151609D01*
X0454255Y0153207D02*
X0457315Y0153207D01*
X0455853Y0154806D02*
X0458913Y0154806D01*
X0457452Y0156404D02*
X0460512Y0156404D01*
X0462110Y0158003D02*
X0457933Y0158003D01*
X0457933Y0159601D02*
X0461456Y0159601D01*
X0461133Y0161200D02*
X0457933Y0161200D01*
X0457933Y0162798D02*
X0461410Y0162798D01*
X0462452Y0164397D02*
X0457933Y0164397D01*
X0453733Y0164397D02*
X0446639Y0164397D01*
X0446630Y0164480D02*
X0446734Y0163552D01*
X0437259Y0163552D01*
X0437259Y0173027D01*
X0438187Y0172922D01*
X0439315Y0172665D01*
X0440407Y0172283D01*
X0441449Y0171781D01*
X0442429Y0171165D01*
X0443333Y0170444D01*
X0444152Y0169626D01*
X0444873Y0168722D01*
X0445488Y0167742D01*
X0445990Y0166700D01*
X0446372Y0165608D01*
X0446630Y0164480D01*
X0446237Y0165995D02*
X0453733Y0165995D01*
X0453733Y0167594D02*
X0445560Y0167594D01*
X0444497Y0169192D02*
X0453733Y0169192D01*
X0453733Y0170791D02*
X0442899Y0170791D01*
X0443428Y0172389D02*
X0440103Y0172389D01*
X0441255Y0173988D02*
X0431947Y0173988D01*
X0432816Y0172389D02*
X0429897Y0172389D01*
X0425448Y0172389D02*
X0423848Y0172389D01*
X0423848Y0173988D02*
X0425448Y0173988D01*
X0425448Y0175586D02*
X0423848Y0175586D01*
X0423848Y0177185D02*
X0425448Y0177185D01*
X0425448Y0178783D02*
X0423848Y0178783D01*
X0423848Y0182056D02*
X0414373Y0182056D01*
X0414478Y0182984D01*
X0414735Y0184112D01*
X0415117Y0185204D01*
X0415619Y0186246D01*
X0416235Y0187226D01*
X0416956Y0188130D01*
X0417774Y0188948D01*
X0418679Y0189669D01*
X0419658Y0190285D01*
X0420700Y0190787D01*
X0421792Y0191169D01*
X0422920Y0191426D01*
X0423848Y0191531D01*
X0423848Y0182056D01*
X0423848Y0183579D02*
X0425448Y0183579D01*
X0425448Y0185178D02*
X0423848Y0185178D01*
X0423848Y0186776D02*
X0425448Y0186776D01*
X0425448Y0188375D02*
X0423848Y0188375D01*
X0423848Y0189973D02*
X0425448Y0189973D01*
X0419162Y0189973D02*
X0405333Y0189973D01*
X0405333Y0188375D02*
X0417201Y0188375D01*
X0415952Y0186776D02*
X0405333Y0186776D01*
X0405333Y0185178D02*
X0415108Y0185178D01*
X0414614Y0183579D02*
X0405333Y0183579D01*
X0405333Y0191572D02*
X0516833Y0191572D01*
X0516833Y0191456D02*
X0522133Y0191456D01*
X0522133Y0196756D01*
X0521900Y0196756D01*
X0521045Y0196620D01*
X0520222Y0196353D01*
X0519451Y0195960D01*
X0518750Y0195451D01*
X0518138Y0194839D01*
X0517629Y0194139D01*
X0517236Y0193367D01*
X0516969Y0192544D01*
X0516833Y0191689D01*
X0516833Y0191456D01*
X0517172Y0193170D02*
X0405333Y0193170D01*
X0405333Y0194769D02*
X0518087Y0194769D01*
X0520266Y0196367D02*
X0405333Y0196367D01*
X0405333Y0197966D02*
X0526333Y0197966D01*
X0526333Y0196367D02*
X0524401Y0196367D01*
X0522533Y0196367D02*
X0522133Y0196367D01*
X0522133Y0194769D02*
X0522533Y0194769D01*
X0522533Y0193170D02*
X0522133Y0193170D01*
X0522133Y0191572D02*
X0522533Y0191572D01*
X0453733Y0172389D02*
X0453113Y0172389D01*
X0439881Y0175586D02*
X0433250Y0175586D01*
X0434120Y0177185D02*
X0438958Y0177185D01*
X0438477Y0178783D02*
X0434649Y0178783D01*
X0434915Y0180382D02*
X0438170Y0180382D01*
X0437259Y0172389D02*
X0435659Y0172389D01*
X0435659Y0170791D02*
X0437259Y0170791D01*
X0437259Y0169192D02*
X0435659Y0169192D01*
X0435659Y0167594D02*
X0437259Y0167594D01*
X0437259Y0165995D02*
X0435659Y0165995D01*
X0435659Y0164397D02*
X0437259Y0164397D01*
X0437259Y0159601D02*
X0435659Y0159601D01*
X0435659Y0158003D02*
X0437259Y0158003D01*
X0437259Y0156404D02*
X0435659Y0156404D01*
X0435659Y0154806D02*
X0437259Y0154806D01*
X0437259Y0153207D02*
X0435659Y0153207D01*
X0432551Y0153207D02*
X0405333Y0153207D01*
X0405333Y0151609D02*
X0407191Y0151609D01*
X0406030Y0150010D02*
X0405333Y0150010D01*
X0405333Y0148412D02*
X0405533Y0148412D01*
X0405533Y0146813D02*
X0405333Y0146813D01*
X0405333Y0145215D02*
X0406149Y0145215D01*
X0405333Y0143616D02*
X0407478Y0143616D01*
X0405333Y0142018D02*
X0410314Y0142018D01*
X0410383Y0140419D02*
X0405333Y0140419D01*
X0405333Y0138821D02*
X0410383Y0138821D01*
X0409292Y0137222D02*
X0405333Y0137222D01*
X0405333Y0135624D02*
X0408133Y0135624D01*
X0406744Y0134025D02*
X0405333Y0134025D01*
X0405333Y0132427D02*
X0405776Y0132427D01*
X0405483Y0130828D02*
X0405333Y0130828D01*
X0405333Y0129230D02*
X0405716Y0129230D01*
X0405333Y0127631D02*
X0406599Y0127631D01*
X0405333Y0126033D02*
X0409063Y0126033D01*
X0407153Y0124434D02*
X0405333Y0124434D01*
X0405333Y0122836D02*
X0405945Y0122836D01*
X0405483Y0121237D02*
X0405333Y0121237D01*
X0405333Y0119639D02*
X0405547Y0119639D01*
X0405333Y0118040D02*
X0406209Y0118040D01*
X0405333Y0116442D02*
X0408075Y0116442D01*
X0408383Y0114843D02*
X0405333Y0114843D01*
X0405333Y0113245D02*
X0408383Y0113245D01*
X0408383Y0111646D02*
X0405333Y0111646D01*
X0405333Y0110047D02*
X0408052Y0110047D01*
X0406031Y0108449D02*
X0405333Y0108449D01*
X0412615Y0110047D02*
X0424155Y0110047D01*
X0422557Y0108449D02*
X0414636Y0108449D01*
X0415410Y0106850D02*
X0420958Y0106850D01*
X0419360Y0105252D02*
X0415633Y0105252D01*
X0415406Y0103653D02*
X0417761Y0103653D01*
X0416163Y0102055D02*
X0414628Y0102055D01*
X0414564Y0100456D02*
X0412596Y0100456D01*
X0425433Y0094062D02*
X0462117Y0094062D01*
X0461271Y0092464D02*
X0425433Y0092464D01*
X0425433Y0090865D02*
X0426612Y0090865D01*
X0456055Y0090865D02*
X0461133Y0090865D01*
X0461595Y0089267D02*
X0457818Y0089267D01*
X0458485Y0087668D02*
X0462898Y0087668D01*
X0502984Y0105252D02*
X0503322Y0105252D01*
X0515231Y0111646D02*
X0526333Y0111646D01*
X0526333Y0110047D02*
X0526037Y0110047D01*
X0526333Y0113245D02*
X0516830Y0113245D01*
X0518428Y0114843D02*
X0526333Y0114843D01*
X0526333Y0116442D02*
X0524560Y0116442D01*
X0520107Y0116442D02*
X0520027Y0116442D01*
X0492244Y0118040D02*
X0474140Y0118040D01*
X0475226Y0119639D02*
X0491222Y0119639D01*
X0490933Y0121237D02*
X0475533Y0121237D01*
X0475242Y0122836D02*
X0491210Y0122836D01*
X0492206Y0124434D02*
X0474178Y0124434D01*
X0462645Y0114843D02*
X0451888Y0114843D01*
X0452988Y0113245D02*
X0461384Y0113245D01*
X0460938Y0111646D02*
X0453383Y0111646D01*
X0453383Y0111256D02*
X0448333Y0111256D01*
X0448333Y0111256D01*
X0453383Y0111256D01*
X0453251Y0110047D02*
X0461089Y0110047D01*
X0461887Y0108449D02*
X0452536Y0108449D01*
X0450811Y0106850D02*
X0464206Y0106850D01*
X0448333Y0106850D02*
X0448333Y0106850D01*
X0448333Y0108449D02*
X0448333Y0108449D01*
X0448333Y0110047D02*
X0448333Y0110047D01*
X0448333Y0111646D02*
X0448333Y0111646D01*
X0438951Y0114843D02*
X0434890Y0114843D01*
X0433292Y0113245D02*
X0437352Y0113245D01*
X0435754Y0111646D02*
X0431693Y0111646D01*
X0430095Y0110047D02*
X0434155Y0110047D01*
X0432557Y0108449D02*
X0428496Y0108449D01*
X0425754Y0111646D02*
X0412283Y0111646D01*
X0412283Y0113245D02*
X0427352Y0113245D01*
X0428951Y0114843D02*
X0412283Y0114843D01*
X0412591Y0116442D02*
X0430549Y0116442D01*
X0432148Y0118040D02*
X0414458Y0118040D01*
X0415120Y0119639D02*
X0433746Y0119639D01*
X0435345Y0121237D02*
X0415183Y0121237D01*
X0414721Y0122836D02*
X0436943Y0122836D01*
X0438542Y0124434D02*
X0413514Y0124434D01*
X0411604Y0126033D02*
X0440140Y0126033D01*
X0441739Y0127631D02*
X0414067Y0127631D01*
X0414951Y0129230D02*
X0443337Y0129230D01*
X0444936Y0130828D02*
X0415183Y0130828D01*
X0414891Y0132427D02*
X0446534Y0132427D01*
X0448133Y0134025D02*
X0413923Y0134025D01*
X0413209Y0135624D02*
X0449731Y0135624D01*
X0451330Y0137222D02*
X0414283Y0137222D01*
X0414283Y0138821D02*
X0452928Y0138821D01*
X0454527Y0140419D02*
X0414283Y0140419D01*
X0414283Y0142018D02*
X0456125Y0142018D01*
X0460433Y0148412D02*
X0462155Y0148412D01*
X0461287Y0150010D02*
X0460433Y0150010D01*
X0466452Y0156404D02*
X0520197Y0156404D01*
X0518388Y0154806D02*
X0503806Y0154806D01*
X0505088Y0153207D02*
X0517405Y0153207D01*
X0517775Y0148412D02*
X0504512Y0148412D01*
X0504103Y0158003D02*
X0518091Y0158003D01*
X0517979Y0164397D02*
X0504215Y0164397D01*
X0429904Y0154806D02*
X0405333Y0154806D01*
X0405333Y0156404D02*
X0428347Y0156404D01*
X0427314Y0158003D02*
X0405333Y0158003D01*
X0405333Y0159601D02*
X0426649Y0159601D01*
X0446080Y0126033D02*
X0447192Y0126033D01*
X0444653Y0124434D02*
X0444481Y0124434D01*
X0443738Y0122836D02*
X0442883Y0122836D01*
X0443483Y0121237D02*
X0441284Y0121237D01*
X0439686Y0119639D02*
X0443746Y0119639D01*
X0442148Y0118040D02*
X0438087Y0118040D01*
X0436489Y0116442D02*
X0440549Y0116442D01*
X0481012Y0070085D02*
X0491256Y0070085D01*
X0492080Y0068486D02*
X0482611Y0068486D01*
X0484209Y0066888D02*
X0494581Y0066888D01*
X0493773Y0065289D02*
X0485808Y0065289D01*
X0487406Y0063691D02*
X0491779Y0063691D01*
X0504512Y0054100D02*
X0517259Y0054100D01*
X0518310Y0052501D02*
X0505380Y0052501D01*
X0505533Y0050903D02*
X0521011Y0050903D01*
X0522133Y0050903D02*
X0522533Y0050903D01*
X0523656Y0050903D02*
X0526333Y0050903D01*
X0526333Y0049304D02*
X0505087Y0049304D01*
X0503806Y0047706D02*
X0526333Y0047706D01*
X0526333Y0046107D02*
X0500283Y0046107D01*
X0500283Y0044509D02*
X0526333Y0044509D01*
X0522533Y0052501D02*
X0522133Y0052501D01*
X0522133Y0054100D02*
X0522533Y0054100D01*
X0522533Y0055698D02*
X0522133Y0055698D01*
X0463594Y0057297D02*
X0456869Y0057297D01*
X0458092Y0058895D02*
X0461749Y0058895D01*
X0461133Y0060494D02*
X0458633Y0060494D01*
X0458633Y0062092D02*
X0461133Y0062092D01*
X0461779Y0063691D02*
X0458061Y0063691D01*
X0424750Y0049304D02*
X0405333Y0049304D01*
X0405333Y0047706D02*
X0424021Y0047706D01*
X0423833Y0046107D02*
X0405333Y0046107D01*
X0405333Y0044509D02*
X0424118Y0044509D01*
X0424966Y0042910D02*
X0405333Y0042910D01*
X0405333Y0041312D02*
X0426922Y0041312D01*
X0410533Y0050903D02*
X0410133Y0050903D01*
X0410133Y0052501D02*
X0410533Y0052501D01*
X0410533Y0054100D02*
X0410133Y0054100D01*
X0406968Y0050903D02*
X0405333Y0050903D01*
X0405333Y0052501D02*
X0405564Y0052501D01*
M02*
