G75*
%MOIN*%
%OFA0B0*%
%FSLAX25Y25*%
%IPPOS*%
%LPD*%
%AMOC8*
5,1,8,0,0,1.08239X$1,22.5*
%
%ADD10C,0.01100*%
%ADD11C,0.00800*%
%ADD12C,0.00600*%
%ADD13C,0.00100*%
D10*
X0413883Y0014394D02*
X0414867Y0013410D01*
X0415852Y0013410D01*
X0416836Y0014394D01*
X0416836Y0019315D01*
X0415852Y0019315D02*
X0417820Y0019315D01*
X0420329Y0018331D02*
X0420329Y0014394D01*
X0421313Y0013410D01*
X0423281Y0013410D01*
X0424266Y0014394D01*
X0424266Y0016363D01*
X0422297Y0016363D01*
X0420329Y0018331D02*
X0421313Y0019315D01*
X0423281Y0019315D01*
X0424266Y0018331D01*
X0426684Y0023410D02*
X0425700Y0024394D01*
X0425700Y0026363D01*
X0426684Y0027347D01*
X0429637Y0027347D01*
X0429637Y0029315D02*
X0429637Y0023410D01*
X0426684Y0023410D01*
X0432146Y0024394D02*
X0433130Y0023410D01*
X0436082Y0023410D01*
X0436082Y0027347D01*
X0438591Y0027347D02*
X0439575Y0027347D01*
X0439575Y0023410D01*
X0438591Y0023410D02*
X0440559Y0023410D01*
X0442888Y0023410D02*
X0442888Y0027347D01*
X0445841Y0027347D01*
X0446825Y0026363D01*
X0446825Y0023410D01*
X0449334Y0024394D02*
X0449334Y0026363D01*
X0450318Y0027347D01*
X0452286Y0027347D01*
X0453270Y0026363D01*
X0453270Y0024394D01*
X0452286Y0023410D01*
X0450318Y0023410D01*
X0449334Y0024394D01*
X0439575Y0029315D02*
X0439575Y0030299D01*
X0435098Y0033410D02*
X0433130Y0033410D01*
X0432146Y0034394D01*
X0432146Y0036363D01*
X0433130Y0037347D01*
X0435098Y0037347D01*
X0436082Y0036363D01*
X0436082Y0035378D01*
X0432146Y0035378D01*
X0429727Y0037347D02*
X0428743Y0037347D01*
X0426774Y0035378D01*
X0426774Y0033410D02*
X0426774Y0037347D01*
X0424266Y0036363D02*
X0424266Y0033410D01*
X0421313Y0033410D01*
X0420329Y0034394D01*
X0421313Y0035378D01*
X0424266Y0035378D01*
X0424266Y0036363D02*
X0423281Y0037347D01*
X0421313Y0037347D01*
X0417820Y0037347D02*
X0416836Y0036363D01*
X0413883Y0036363D01*
X0413883Y0039315D02*
X0413883Y0033410D01*
X0416836Y0033410D01*
X0417820Y0034394D01*
X0417820Y0035378D01*
X0416836Y0036363D01*
X0417820Y0037347D02*
X0417820Y0038331D01*
X0416836Y0039315D01*
X0413883Y0039315D01*
X0415852Y0029315D02*
X0417820Y0027347D01*
X0417820Y0023410D01*
X0420329Y0023410D02*
X0420329Y0027347D01*
X0422297Y0027347D02*
X0423281Y0027347D01*
X0422297Y0027347D02*
X0420329Y0025378D01*
X0417820Y0026363D02*
X0413883Y0026363D01*
X0413883Y0027347D02*
X0413883Y0023410D01*
X0413883Y0027347D02*
X0415852Y0029315D01*
X0432146Y0027347D02*
X0432146Y0024394D01*
X0445037Y0033410D02*
X0447989Y0033410D01*
X0448973Y0034394D01*
X0448973Y0035378D01*
X0447989Y0036363D01*
X0445037Y0036363D01*
X0445037Y0039315D02*
X0445037Y0033410D01*
X0447989Y0036363D02*
X0448973Y0037347D01*
X0448973Y0038331D01*
X0447989Y0039315D01*
X0445037Y0039315D01*
X0451482Y0036363D02*
X0452466Y0037347D01*
X0454435Y0037347D01*
X0455419Y0036363D01*
X0455419Y0034394D01*
X0454435Y0033410D01*
X0452466Y0033410D01*
X0451482Y0034394D01*
X0451482Y0036363D01*
X0457928Y0037347D02*
X0457928Y0033410D01*
X0461864Y0033410D02*
X0461864Y0036363D01*
X0460880Y0037347D01*
X0457928Y0037347D01*
X0464373Y0036363D02*
X0465357Y0037347D01*
X0467326Y0037347D01*
X0468310Y0036363D01*
X0468310Y0035378D01*
X0464373Y0035378D01*
X0464373Y0034394D02*
X0464373Y0036363D01*
X0464373Y0034394D02*
X0465357Y0033410D01*
X0467326Y0033410D01*
X0470819Y0033410D02*
X0473771Y0033410D01*
X0474755Y0034394D01*
X0473771Y0035378D01*
X0471803Y0035378D01*
X0470819Y0036363D01*
X0471803Y0037347D01*
X0474755Y0037347D01*
X0477084Y0029315D02*
X0477084Y0023410D01*
X0475116Y0023410D02*
X0479052Y0023410D01*
X0481561Y0023410D02*
X0484514Y0023410D01*
X0485498Y0024394D01*
X0484514Y0025378D01*
X0482545Y0025378D01*
X0481561Y0026363D01*
X0482545Y0027347D01*
X0485498Y0027347D01*
X0488007Y0027347D02*
X0489975Y0027347D01*
X0488991Y0028331D02*
X0488991Y0024394D01*
X0489975Y0023410D01*
X0498749Y0023410D02*
X0498749Y0029315D01*
X0501702Y0029315D01*
X0502686Y0028331D01*
X0502686Y0026363D01*
X0501702Y0025378D01*
X0498749Y0025378D01*
X0505195Y0024394D02*
X0506179Y0023410D01*
X0508147Y0023410D01*
X0509131Y0024394D01*
X0511640Y0023410D02*
X0514593Y0023410D01*
X0515577Y0024394D01*
X0515577Y0025378D01*
X0514593Y0026363D01*
X0511640Y0026363D01*
X0511640Y0029315D02*
X0511640Y0023410D01*
X0514593Y0026363D02*
X0515577Y0027347D01*
X0515577Y0028331D01*
X0514593Y0029315D01*
X0511640Y0029315D01*
X0509131Y0028331D02*
X0508147Y0029315D01*
X0506179Y0029315D01*
X0505195Y0028331D01*
X0505195Y0024394D01*
X0477084Y0029315D02*
X0475116Y0027347D01*
X0466161Y0026363D02*
X0462225Y0026363D01*
X0434727Y0058410D02*
X0435711Y0059394D01*
X0435711Y0063331D01*
X0434727Y0064315D01*
X0431774Y0064315D01*
X0431774Y0058410D01*
X0434727Y0058410D01*
X0429266Y0058410D02*
X0429266Y0064315D01*
X0425329Y0064315D02*
X0429266Y0058410D01*
X0425329Y0058410D02*
X0425329Y0064315D01*
X0422820Y0063331D02*
X0421836Y0064315D01*
X0419867Y0064315D01*
X0418883Y0063331D01*
X0418883Y0059394D01*
X0419867Y0058410D01*
X0421836Y0058410D01*
X0422820Y0059394D01*
X0422820Y0061363D01*
X0420852Y0061363D01*
X0421836Y0068910D02*
X0422820Y0069894D01*
X0421836Y0068910D02*
X0419867Y0068910D01*
X0418883Y0069894D01*
X0418883Y0073831D01*
X0419867Y0074815D01*
X0421836Y0074815D01*
X0422820Y0073831D01*
X0425329Y0074815D02*
X0429266Y0074815D01*
X0427297Y0074815D02*
X0427297Y0068910D01*
X0431774Y0069894D02*
X0432758Y0068910D01*
X0434727Y0068910D01*
X0435711Y0069894D01*
X0435711Y0070878D01*
X0434727Y0071863D01*
X0432758Y0071863D01*
X0431774Y0072847D01*
X0431774Y0073831D01*
X0432758Y0074815D01*
X0434727Y0074815D01*
X0435711Y0073831D01*
X0434727Y0079410D02*
X0435711Y0080394D01*
X0434727Y0079410D02*
X0432758Y0079410D01*
X0431774Y0080394D01*
X0431774Y0084331D01*
X0432758Y0085315D01*
X0434727Y0085315D01*
X0435711Y0084331D01*
X0429266Y0084331D02*
X0428281Y0085315D01*
X0426313Y0085315D01*
X0425329Y0084331D01*
X0425329Y0080394D01*
X0426313Y0079410D01*
X0428281Y0079410D01*
X0429266Y0080394D01*
X0422820Y0081378D02*
X0422820Y0085315D01*
X0422820Y0081378D02*
X0420852Y0079410D01*
X0418883Y0081378D01*
X0418883Y0085315D01*
X0418883Y0089910D02*
X0418883Y0095815D01*
X0421836Y0095815D01*
X0422820Y0094831D01*
X0422820Y0092863D01*
X0421836Y0091878D01*
X0418883Y0091878D01*
X0420852Y0091878D02*
X0422820Y0089910D01*
X0425329Y0089910D02*
X0429266Y0095815D01*
X0425329Y0095815D02*
X0429266Y0089910D01*
X0429266Y0100410D02*
X0425329Y0106315D01*
X0422820Y0106315D02*
X0418883Y0106315D01*
X0420852Y0106315D02*
X0420852Y0100410D01*
X0425329Y0100410D02*
X0429266Y0106315D01*
X0427297Y0108410D02*
X0427297Y0114315D01*
X0425329Y0114315D02*
X0429266Y0114315D01*
X0431774Y0114315D02*
X0434727Y0114315D01*
X0435711Y0113331D01*
X0435711Y0111363D01*
X0434727Y0110378D01*
X0431774Y0110378D01*
X0431774Y0108410D02*
X0431774Y0114315D01*
X0433743Y0110378D02*
X0435711Y0108410D01*
X0422820Y0109394D02*
X0422820Y0113331D01*
X0421836Y0114315D01*
X0418883Y0114315D01*
X0418883Y0108410D01*
X0421836Y0108410D01*
X0422820Y0109394D01*
X0543883Y0160378D02*
X0545852Y0158410D01*
X0547820Y0160378D01*
X0547820Y0164315D01*
X0550329Y0163331D02*
X0551313Y0164315D01*
X0553281Y0164315D01*
X0554266Y0163331D01*
X0556774Y0163331D02*
X0556774Y0159394D01*
X0557758Y0158410D01*
X0559727Y0158410D01*
X0560711Y0159394D01*
X0560711Y0163331D02*
X0559727Y0164315D01*
X0557758Y0164315D01*
X0556774Y0163331D01*
X0554266Y0159394D02*
X0553281Y0158410D01*
X0551313Y0158410D01*
X0550329Y0159394D01*
X0550329Y0163331D01*
X0543883Y0164315D02*
X0543883Y0160378D01*
X0548883Y0168410D02*
X0548883Y0172347D01*
X0550852Y0174315D01*
X0552820Y0172347D01*
X0552820Y0168410D01*
X0555329Y0169394D02*
X0556313Y0168410D01*
X0558281Y0168410D01*
X0559266Y0169394D01*
X0559266Y0171363D01*
X0558281Y0172347D01*
X0557297Y0172347D01*
X0555329Y0171363D01*
X0555329Y0174315D01*
X0559266Y0174315D01*
X0552820Y0171363D02*
X0548883Y0171363D01*
X0548883Y0178410D02*
X0548883Y0182347D01*
X0550852Y0184315D01*
X0552820Y0182347D01*
X0552820Y0178410D01*
X0552820Y0181363D02*
X0548883Y0181363D01*
X0555329Y0181363D02*
X0559266Y0181363D01*
X0558281Y0184315D02*
X0558281Y0178410D01*
X0555329Y0181363D02*
X0558281Y0184315D01*
X0558281Y0188410D02*
X0556313Y0188410D01*
X0555329Y0189394D01*
X0552820Y0188410D02*
X0552820Y0192347D01*
X0550852Y0194315D01*
X0548883Y0192347D01*
X0548883Y0188410D01*
X0548883Y0191363D02*
X0552820Y0191363D01*
X0555329Y0193331D02*
X0556313Y0194315D01*
X0558281Y0194315D01*
X0559266Y0193331D01*
X0559266Y0192347D01*
X0558281Y0191363D01*
X0559266Y0190378D01*
X0559266Y0189394D01*
X0558281Y0188410D01*
X0558281Y0191363D02*
X0557297Y0191363D01*
X0555329Y0198410D02*
X0559266Y0202347D01*
X0559266Y0203331D01*
X0558281Y0204315D01*
X0556313Y0204315D01*
X0555329Y0203331D01*
X0552820Y0202347D02*
X0552820Y0198410D01*
X0555329Y0198410D02*
X0559266Y0198410D01*
X0552820Y0201363D02*
X0548883Y0201363D01*
X0548883Y0202347D02*
X0550852Y0204315D01*
X0552820Y0202347D01*
X0548883Y0202347D02*
X0548883Y0198410D01*
X0548883Y0208410D02*
X0548883Y0212347D01*
X0550852Y0214315D01*
X0552820Y0212347D01*
X0552820Y0208410D01*
X0555329Y0208410D02*
X0559266Y0208410D01*
X0557297Y0208410D02*
X0557297Y0214315D01*
X0555329Y0212347D01*
X0552820Y0211363D02*
X0548883Y0211363D01*
X0548883Y0218410D02*
X0548883Y0222347D01*
X0550852Y0224315D01*
X0552820Y0222347D01*
X0552820Y0218410D01*
X0555329Y0219394D02*
X0559266Y0223331D01*
X0559266Y0219394D01*
X0558281Y0218410D01*
X0556313Y0218410D01*
X0555329Y0219394D01*
X0555329Y0223331D01*
X0556313Y0224315D01*
X0558281Y0224315D01*
X0559266Y0223331D01*
X0552820Y0221363D02*
X0548883Y0221363D01*
X0550329Y0228410D02*
X0550329Y0234315D01*
X0554266Y0228410D01*
X0554266Y0234315D01*
X0556774Y0234315D02*
X0559727Y0234315D01*
X0560711Y0233331D01*
X0560711Y0229394D01*
X0559727Y0228410D01*
X0556774Y0228410D01*
X0556774Y0234315D01*
X0547820Y0233331D02*
X0546836Y0234315D01*
X0544867Y0234315D01*
X0543883Y0233331D01*
X0543883Y0229394D01*
X0544867Y0228410D01*
X0546836Y0228410D01*
X0547820Y0229394D01*
X0547820Y0231363D01*
X0545852Y0231363D01*
D11*
X0403333Y0060360D02*
X0405833Y0057860D01*
X0410833Y0057860D01*
X0413333Y0060360D01*
X0413333Y0065360D01*
X0410833Y0067860D01*
X0413333Y0070360D01*
X0413333Y0075360D01*
X0410833Y0077860D01*
X0413333Y0080360D01*
X0413333Y0085360D01*
X0410833Y0087860D01*
X0413333Y0090360D01*
X0413333Y0095360D01*
X0410833Y0097860D01*
X0413333Y0100360D01*
X0413333Y0105360D01*
X0410833Y0107860D01*
X0413333Y0110360D01*
X0413333Y0115360D01*
X0410833Y0117860D01*
X0405833Y0117860D01*
X0403333Y0115360D01*
X0403333Y0110360D01*
X0405833Y0107860D01*
X0403333Y0105360D01*
X0403333Y0100360D01*
X0405833Y0097860D01*
X0403333Y0095360D01*
X0403333Y0090360D01*
X0405833Y0087860D01*
X0403333Y0085360D01*
X0403333Y0080360D01*
X0405833Y0077860D01*
X0403333Y0075360D01*
X0403333Y0070360D01*
X0405833Y0067860D01*
X0403333Y0065360D01*
X0403333Y0060360D01*
X0478333Y0060360D02*
X0478333Y0045360D01*
X0480833Y0042860D01*
X0485833Y0042860D01*
X0488333Y0045360D01*
X0488333Y0060360D01*
X0490833Y0062860D01*
X0495833Y0062860D01*
X0498333Y0060360D01*
X0498333Y0045360D01*
X0500833Y0042860D01*
X0505833Y0042860D01*
X0508333Y0045360D01*
X0508333Y0060360D01*
X0505833Y0062860D01*
X0500833Y0062860D01*
X0498333Y0060360D01*
X0488333Y0060360D02*
X0485833Y0062860D01*
X0480833Y0062860D01*
X0478333Y0060360D01*
X0488333Y0045360D02*
X0490833Y0042860D01*
X0495833Y0042860D01*
X0498333Y0045360D01*
X0485833Y0041541D02*
X0480833Y0041541D01*
X0535932Y0048136D02*
X0535932Y0057584D01*
X0560735Y0057584D01*
X0560735Y0048136D01*
X0535932Y0048136D01*
X0542733Y0051961D02*
X0543434Y0051260D01*
X0544835Y0051260D01*
X0545536Y0051961D01*
X0545536Y0052661D01*
X0544835Y0053362D01*
X0544135Y0053362D01*
X0544835Y0053362D02*
X0545536Y0054062D01*
X0545536Y0054763D01*
X0544835Y0055464D01*
X0543434Y0055464D01*
X0542733Y0054763D01*
X0547337Y0054763D02*
X0548038Y0055464D01*
X0549439Y0055464D01*
X0550140Y0054763D01*
X0550140Y0054062D01*
X0549439Y0053362D01*
X0550140Y0052661D01*
X0550140Y0051961D01*
X0549439Y0051260D01*
X0548038Y0051260D01*
X0547337Y0051961D01*
X0548738Y0053362D02*
X0549439Y0053362D01*
X0551941Y0054763D02*
X0552642Y0055464D01*
X0554043Y0055464D01*
X0554744Y0054763D01*
X0551941Y0051961D01*
X0552642Y0051260D01*
X0554043Y0051260D01*
X0554744Y0051961D01*
X0554744Y0054763D01*
X0551941Y0054763D02*
X0551941Y0051961D01*
X0558333Y0040360D02*
X0558333Y0025360D01*
X0560735Y0017584D02*
X0535932Y0017584D01*
X0535932Y0008136D01*
X0560735Y0008136D01*
X0560735Y0017584D01*
X0555244Y0014763D02*
X0552441Y0011961D01*
X0553142Y0011260D01*
X0554543Y0011260D01*
X0555244Y0011961D01*
X0555244Y0014763D01*
X0554543Y0015464D01*
X0553142Y0015464D01*
X0552441Y0014763D01*
X0552441Y0011961D01*
X0550640Y0011961D02*
X0550640Y0012661D01*
X0549939Y0013362D01*
X0549238Y0013362D01*
X0549939Y0013362D02*
X0550640Y0014062D01*
X0550640Y0014763D01*
X0549939Y0015464D01*
X0548538Y0015464D01*
X0547837Y0014763D01*
X0546036Y0014763D02*
X0546036Y0014062D01*
X0545335Y0013362D01*
X0546036Y0012661D01*
X0546036Y0011961D01*
X0545335Y0011260D01*
X0543934Y0011260D01*
X0543233Y0011961D01*
X0544635Y0013362D02*
X0545335Y0013362D01*
X0546036Y0014763D02*
X0545335Y0015464D01*
X0543934Y0015464D01*
X0543233Y0014763D01*
X0547837Y0011961D02*
X0548538Y0011260D01*
X0549939Y0011260D01*
X0550640Y0011961D01*
X0558333Y0065360D02*
X0558333Y0080360D01*
X0560735Y0088136D02*
X0535932Y0088136D01*
X0535932Y0097584D01*
X0560735Y0097584D01*
X0560735Y0088136D01*
X0554744Y0091961D02*
X0554043Y0091260D01*
X0552642Y0091260D01*
X0551941Y0091961D01*
X0554744Y0094763D01*
X0554744Y0091961D01*
X0554744Y0094763D02*
X0554043Y0095464D01*
X0552642Y0095464D01*
X0551941Y0094763D01*
X0551941Y0091961D01*
X0550140Y0091961D02*
X0549439Y0091260D01*
X0548038Y0091260D01*
X0547337Y0091961D01*
X0545536Y0091961D02*
X0544835Y0091260D01*
X0543434Y0091260D01*
X0542733Y0091961D01*
X0544135Y0093362D02*
X0544835Y0093362D01*
X0545536Y0092661D01*
X0545536Y0091961D01*
X0544835Y0093362D02*
X0545536Y0094062D01*
X0545536Y0094763D01*
X0544835Y0095464D01*
X0543434Y0095464D01*
X0542733Y0094763D01*
X0547337Y0094763D02*
X0548038Y0095464D01*
X0549439Y0095464D01*
X0550140Y0094763D01*
X0550140Y0094062D01*
X0549439Y0093362D01*
X0550140Y0092661D01*
X0550140Y0091961D01*
X0549439Y0093362D02*
X0548738Y0093362D01*
X0558333Y0105360D02*
X0558333Y0120360D01*
X0565833Y0157860D02*
X0563333Y0160360D01*
X0563333Y0165360D01*
X0565833Y0167860D01*
X0563333Y0170360D01*
X0563333Y0175360D01*
X0565833Y0177860D01*
X0563333Y0180360D01*
X0563333Y0185360D01*
X0565833Y0187860D01*
X0563333Y0190360D01*
X0563333Y0195360D01*
X0565833Y0197860D01*
X0563333Y0200360D01*
X0563333Y0205360D01*
X0565833Y0207860D01*
X0563333Y0210360D01*
X0563333Y0215360D01*
X0565833Y0217860D01*
X0563333Y0220360D01*
X0563333Y0225360D01*
X0565833Y0227860D01*
X0563333Y0230360D01*
X0563333Y0235360D01*
X0565833Y0237860D01*
X0570833Y0237860D01*
X0573333Y0235360D01*
X0573333Y0230360D01*
X0570833Y0227860D01*
X0573333Y0225360D01*
X0573333Y0220360D01*
X0570833Y0217860D01*
X0573333Y0215360D01*
X0573333Y0210360D01*
X0570833Y0207860D01*
X0573333Y0205360D01*
X0573333Y0200360D01*
X0570833Y0197860D01*
X0573333Y0195360D01*
X0573333Y0190360D01*
X0570833Y0187860D01*
X0573333Y0185360D01*
X0573333Y0180360D01*
X0570833Y0177860D01*
X0573333Y0175360D01*
X0573333Y0170360D01*
X0570833Y0167860D01*
X0573333Y0165360D01*
X0573333Y0160360D01*
X0570833Y0157860D01*
X0565833Y0157860D01*
X0492933Y0166825D02*
X0490131Y0166825D01*
X0488730Y0168226D01*
X0490131Y0169627D01*
X0492933Y0169627D01*
X0490832Y0169627D02*
X0490832Y0166825D01*
X0488730Y0171429D02*
X0488730Y0174231D01*
X0488730Y0172830D02*
X0492933Y0172830D01*
X0492933Y0176032D02*
X0490131Y0176032D01*
X0490131Y0176733D01*
X0490832Y0177434D01*
X0490131Y0178134D01*
X0490832Y0178835D01*
X0492933Y0178835D01*
X0492933Y0177434D02*
X0490832Y0177434D01*
X0490832Y0180636D02*
X0490131Y0181337D01*
X0490131Y0182738D01*
X0490832Y0183439D01*
X0491532Y0183439D01*
X0491532Y0180636D01*
X0490832Y0180636D02*
X0492233Y0180636D01*
X0492933Y0181337D01*
X0492933Y0182738D01*
X0492233Y0185240D02*
X0492933Y0185941D01*
X0492933Y0188043D01*
X0493634Y0188043D02*
X0490131Y0188043D01*
X0490131Y0185941D01*
X0490832Y0185240D01*
X0492233Y0185240D01*
X0494335Y0186641D02*
X0494335Y0187342D01*
X0493634Y0188043D01*
X0492233Y0189844D02*
X0491532Y0190545D01*
X0491532Y0192647D01*
X0490832Y0192647D02*
X0492933Y0192647D01*
X0492933Y0190545D01*
X0492233Y0189844D01*
X0490131Y0190545D02*
X0490131Y0191946D01*
X0490832Y0192647D01*
X0492233Y0194448D02*
X0492933Y0195149D01*
X0492933Y0196550D01*
X0492233Y0197251D01*
X0491532Y0197251D01*
X0490832Y0196550D01*
X0490832Y0195849D01*
X0490832Y0196550D02*
X0490131Y0197251D01*
X0489430Y0197251D01*
X0488730Y0196550D01*
X0488730Y0195149D01*
X0489430Y0194448D01*
X0489430Y0199052D02*
X0488730Y0199753D01*
X0488730Y0201154D01*
X0489430Y0201854D01*
X0490131Y0201854D01*
X0492933Y0199052D01*
X0492933Y0201854D01*
X0492233Y0203656D02*
X0491532Y0203656D01*
X0490832Y0204357D01*
X0490832Y0205758D01*
X0491532Y0206458D01*
X0492233Y0206458D01*
X0492933Y0205758D01*
X0492933Y0204357D01*
X0492233Y0203656D01*
X0490832Y0204357D02*
X0490131Y0203656D01*
X0489430Y0203656D01*
X0488730Y0204357D01*
X0488730Y0205758D01*
X0489430Y0206458D01*
X0490131Y0206458D01*
X0490832Y0205758D01*
X0481333Y0221860D02*
X0481333Y0222860D01*
X0488333Y0222860D01*
X0488335Y0222720D01*
X0488341Y0222580D01*
X0488351Y0222440D01*
X0488364Y0222300D01*
X0488382Y0222161D01*
X0488404Y0222022D01*
X0488429Y0221885D01*
X0488458Y0221747D01*
X0488491Y0221611D01*
X0488528Y0221476D01*
X0488569Y0221342D01*
X0488614Y0221209D01*
X0488662Y0221077D01*
X0488714Y0220947D01*
X0488769Y0220818D01*
X0488828Y0220691D01*
X0488891Y0220565D01*
X0488957Y0220441D01*
X0489026Y0220320D01*
X0489099Y0220200D01*
X0489176Y0220082D01*
X0489255Y0219967D01*
X0489338Y0219853D01*
X0489424Y0219743D01*
X0489513Y0219634D01*
X0489605Y0219528D01*
X0489700Y0219425D01*
X0489797Y0219324D01*
X0489898Y0219227D01*
X0490001Y0219132D01*
X0490107Y0219040D01*
X0490216Y0218951D01*
X0490326Y0218865D01*
X0490440Y0218782D01*
X0490555Y0218703D01*
X0490673Y0218626D01*
X0490793Y0218553D01*
X0490914Y0218484D01*
X0491038Y0218418D01*
X0491164Y0218355D01*
X0491291Y0218296D01*
X0491420Y0218241D01*
X0491550Y0218189D01*
X0491682Y0218141D01*
X0491815Y0218096D01*
X0491949Y0218055D01*
X0492084Y0218018D01*
X0492220Y0217985D01*
X0492358Y0217956D01*
X0492495Y0217931D01*
X0492634Y0217909D01*
X0492773Y0217891D01*
X0492913Y0217878D01*
X0493053Y0217868D01*
X0493193Y0217862D01*
X0493333Y0217860D01*
X0493473Y0217862D01*
X0493613Y0217868D01*
X0493753Y0217878D01*
X0493893Y0217891D01*
X0494032Y0217909D01*
X0494171Y0217931D01*
X0494308Y0217956D01*
X0494446Y0217985D01*
X0494582Y0218018D01*
X0494717Y0218055D01*
X0494851Y0218096D01*
X0494984Y0218141D01*
X0495116Y0218189D01*
X0495246Y0218241D01*
X0495375Y0218296D01*
X0495502Y0218355D01*
X0495628Y0218418D01*
X0495752Y0218484D01*
X0495873Y0218553D01*
X0495993Y0218626D01*
X0496111Y0218703D01*
X0496226Y0218782D01*
X0496340Y0218865D01*
X0496450Y0218951D01*
X0496559Y0219040D01*
X0496665Y0219132D01*
X0496768Y0219227D01*
X0496869Y0219324D01*
X0496966Y0219425D01*
X0497061Y0219528D01*
X0497153Y0219634D01*
X0497242Y0219743D01*
X0497328Y0219853D01*
X0497411Y0219967D01*
X0497490Y0220082D01*
X0497567Y0220200D01*
X0497640Y0220320D01*
X0497709Y0220441D01*
X0497775Y0220565D01*
X0497838Y0220691D01*
X0497897Y0220818D01*
X0497952Y0220947D01*
X0498004Y0221077D01*
X0498052Y0221209D01*
X0498097Y0221342D01*
X0498138Y0221476D01*
X0498175Y0221611D01*
X0498208Y0221747D01*
X0498237Y0221885D01*
X0498262Y0222022D01*
X0498284Y0222161D01*
X0498302Y0222300D01*
X0498315Y0222440D01*
X0498325Y0222580D01*
X0498331Y0222720D01*
X0498333Y0222860D01*
X0505333Y0222860D01*
X0505333Y0221860D01*
X0447270Y0213411D02*
X0447270Y0205143D01*
X0444514Y0205143D01*
X0426010Y0205143D02*
X0405144Y0205143D01*
X0405144Y0240577D01*
X0447270Y0240577D01*
X0447270Y0232309D01*
X0440735Y0187584D02*
X0415932Y0187584D01*
X0415932Y0178136D01*
X0440735Y0178136D01*
X0440735Y0187584D01*
X0432640Y0184964D02*
X0429837Y0182161D01*
X0430538Y0182862D02*
X0432640Y0180760D01*
X0429837Y0180760D02*
X0429837Y0184964D01*
X0426635Y0184964D02*
X0426635Y0180760D01*
X0428036Y0180760D02*
X0425233Y0180760D01*
X0425233Y0183562D02*
X0426635Y0184964D01*
X0413333Y0165360D02*
X0413333Y0160360D01*
X0410835Y0157464D02*
X0411536Y0156763D01*
X0408733Y0153961D01*
X0409434Y0153260D01*
X0410835Y0153260D01*
X0411536Y0153961D01*
X0411536Y0156763D01*
X0410835Y0157464D02*
X0409434Y0157464D01*
X0408733Y0156763D01*
X0408733Y0153961D01*
X0413337Y0153961D02*
X0414038Y0153961D01*
X0414038Y0153260D01*
X0413337Y0153260D01*
X0413337Y0153961D01*
X0415639Y0153260D02*
X0418442Y0153260D01*
X0417040Y0153260D02*
X0417040Y0157464D01*
X0415639Y0156062D01*
X0420243Y0156062D02*
X0420243Y0153961D01*
X0420944Y0153260D01*
X0423046Y0153260D01*
X0423046Y0156062D01*
X0424847Y0155362D02*
X0426248Y0155362D01*
X0424847Y0153260D02*
X0424847Y0157464D01*
X0427649Y0157464D01*
X0453730Y0159374D02*
X0453730Y0162176D01*
X0455832Y0160775D02*
X0455832Y0159374D01*
X0455131Y0157572D02*
X0457933Y0157572D01*
X0457933Y0155470D01*
X0457233Y0154770D01*
X0455131Y0154770D01*
X0457933Y0152968D02*
X0457933Y0150166D01*
X0457933Y0151567D02*
X0453730Y0151567D01*
X0455131Y0150166D01*
X0457233Y0148565D02*
X0457933Y0148565D01*
X0457933Y0147864D01*
X0457233Y0147864D01*
X0457233Y0148565D01*
X0457233Y0146062D02*
X0457933Y0145362D01*
X0457933Y0143961D01*
X0457233Y0143260D01*
X0454430Y0146062D01*
X0457233Y0146062D01*
X0457233Y0143260D02*
X0454430Y0143260D01*
X0453730Y0143961D01*
X0453730Y0145362D01*
X0454430Y0146062D01*
X0460833Y0152860D02*
X0465833Y0152860D01*
X0457933Y0159374D02*
X0453730Y0159374D01*
X0481333Y0083860D02*
X0481333Y0082860D01*
X0505333Y0082860D01*
X0505333Y0083860D01*
D12*
X0538333Y0072860D02*
X0538336Y0073105D01*
X0538345Y0073351D01*
X0538360Y0073596D01*
X0538381Y0073840D01*
X0538408Y0074084D01*
X0538441Y0074327D01*
X0538480Y0074570D01*
X0538525Y0074811D01*
X0538576Y0075051D01*
X0538633Y0075290D01*
X0538695Y0075527D01*
X0538764Y0075763D01*
X0538838Y0075997D01*
X0538918Y0076229D01*
X0539003Y0076459D01*
X0539094Y0076687D01*
X0539191Y0076912D01*
X0539293Y0077136D01*
X0539401Y0077356D01*
X0539514Y0077574D01*
X0539632Y0077789D01*
X0539756Y0078001D01*
X0539884Y0078210D01*
X0540018Y0078416D01*
X0540157Y0078618D01*
X0540301Y0078817D01*
X0540450Y0079012D01*
X0540603Y0079204D01*
X0540761Y0079392D01*
X0540923Y0079576D01*
X0541091Y0079755D01*
X0541262Y0079931D01*
X0541438Y0080102D01*
X0541617Y0080270D01*
X0541801Y0080432D01*
X0541989Y0080590D01*
X0542181Y0080743D01*
X0542376Y0080892D01*
X0542575Y0081036D01*
X0542777Y0081175D01*
X0542983Y0081309D01*
X0543192Y0081437D01*
X0543404Y0081561D01*
X0543619Y0081679D01*
X0543837Y0081792D01*
X0544057Y0081900D01*
X0544281Y0082002D01*
X0544506Y0082099D01*
X0544734Y0082190D01*
X0544964Y0082275D01*
X0545196Y0082355D01*
X0545430Y0082429D01*
X0545666Y0082498D01*
X0545903Y0082560D01*
X0546142Y0082617D01*
X0546382Y0082668D01*
X0546623Y0082713D01*
X0546866Y0082752D01*
X0547109Y0082785D01*
X0547353Y0082812D01*
X0547597Y0082833D01*
X0547842Y0082848D01*
X0548088Y0082857D01*
X0548333Y0082860D01*
X0548578Y0082857D01*
X0548824Y0082848D01*
X0549069Y0082833D01*
X0549313Y0082812D01*
X0549557Y0082785D01*
X0549800Y0082752D01*
X0550043Y0082713D01*
X0550284Y0082668D01*
X0550524Y0082617D01*
X0550763Y0082560D01*
X0551000Y0082498D01*
X0551236Y0082429D01*
X0551470Y0082355D01*
X0551702Y0082275D01*
X0551932Y0082190D01*
X0552160Y0082099D01*
X0552385Y0082002D01*
X0552609Y0081900D01*
X0552829Y0081792D01*
X0553047Y0081679D01*
X0553262Y0081561D01*
X0553474Y0081437D01*
X0553683Y0081309D01*
X0553889Y0081175D01*
X0554091Y0081036D01*
X0554290Y0080892D01*
X0554485Y0080743D01*
X0554677Y0080590D01*
X0554865Y0080432D01*
X0555049Y0080270D01*
X0555228Y0080102D01*
X0555404Y0079931D01*
X0555575Y0079755D01*
X0555743Y0079576D01*
X0555905Y0079392D01*
X0556063Y0079204D01*
X0556216Y0079012D01*
X0556365Y0078817D01*
X0556509Y0078618D01*
X0556648Y0078416D01*
X0556782Y0078210D01*
X0556910Y0078001D01*
X0557034Y0077789D01*
X0557152Y0077574D01*
X0557265Y0077356D01*
X0557373Y0077136D01*
X0557475Y0076912D01*
X0557572Y0076687D01*
X0557663Y0076459D01*
X0557748Y0076229D01*
X0557828Y0075997D01*
X0557902Y0075763D01*
X0557971Y0075527D01*
X0558033Y0075290D01*
X0558090Y0075051D01*
X0558141Y0074811D01*
X0558186Y0074570D01*
X0558225Y0074327D01*
X0558258Y0074084D01*
X0558285Y0073840D01*
X0558306Y0073596D01*
X0558321Y0073351D01*
X0558330Y0073105D01*
X0558333Y0072860D01*
X0558330Y0072615D01*
X0558321Y0072369D01*
X0558306Y0072124D01*
X0558285Y0071880D01*
X0558258Y0071636D01*
X0558225Y0071393D01*
X0558186Y0071150D01*
X0558141Y0070909D01*
X0558090Y0070669D01*
X0558033Y0070430D01*
X0557971Y0070193D01*
X0557902Y0069957D01*
X0557828Y0069723D01*
X0557748Y0069491D01*
X0557663Y0069261D01*
X0557572Y0069033D01*
X0557475Y0068808D01*
X0557373Y0068584D01*
X0557265Y0068364D01*
X0557152Y0068146D01*
X0557034Y0067931D01*
X0556910Y0067719D01*
X0556782Y0067510D01*
X0556648Y0067304D01*
X0556509Y0067102D01*
X0556365Y0066903D01*
X0556216Y0066708D01*
X0556063Y0066516D01*
X0555905Y0066328D01*
X0555743Y0066144D01*
X0555575Y0065965D01*
X0555404Y0065789D01*
X0555228Y0065618D01*
X0555049Y0065450D01*
X0554865Y0065288D01*
X0554677Y0065130D01*
X0554485Y0064977D01*
X0554290Y0064828D01*
X0554091Y0064684D01*
X0553889Y0064545D01*
X0553683Y0064411D01*
X0553474Y0064283D01*
X0553262Y0064159D01*
X0553047Y0064041D01*
X0552829Y0063928D01*
X0552609Y0063820D01*
X0552385Y0063718D01*
X0552160Y0063621D01*
X0551932Y0063530D01*
X0551702Y0063445D01*
X0551470Y0063365D01*
X0551236Y0063291D01*
X0551000Y0063222D01*
X0550763Y0063160D01*
X0550524Y0063103D01*
X0550284Y0063052D01*
X0550043Y0063007D01*
X0549800Y0062968D01*
X0549557Y0062935D01*
X0549313Y0062908D01*
X0549069Y0062887D01*
X0548824Y0062872D01*
X0548578Y0062863D01*
X0548333Y0062860D01*
X0548088Y0062863D01*
X0547842Y0062872D01*
X0547597Y0062887D01*
X0547353Y0062908D01*
X0547109Y0062935D01*
X0546866Y0062968D01*
X0546623Y0063007D01*
X0546382Y0063052D01*
X0546142Y0063103D01*
X0545903Y0063160D01*
X0545666Y0063222D01*
X0545430Y0063291D01*
X0545196Y0063365D01*
X0544964Y0063445D01*
X0544734Y0063530D01*
X0544506Y0063621D01*
X0544281Y0063718D01*
X0544057Y0063820D01*
X0543837Y0063928D01*
X0543619Y0064041D01*
X0543404Y0064159D01*
X0543192Y0064283D01*
X0542983Y0064411D01*
X0542777Y0064545D01*
X0542575Y0064684D01*
X0542376Y0064828D01*
X0542181Y0064977D01*
X0541989Y0065130D01*
X0541801Y0065288D01*
X0541617Y0065450D01*
X0541438Y0065618D01*
X0541262Y0065789D01*
X0541091Y0065965D01*
X0540923Y0066144D01*
X0540761Y0066328D01*
X0540603Y0066516D01*
X0540450Y0066708D01*
X0540301Y0066903D01*
X0540157Y0067102D01*
X0540018Y0067304D01*
X0539884Y0067510D01*
X0539756Y0067719D01*
X0539632Y0067931D01*
X0539514Y0068146D01*
X0539401Y0068364D01*
X0539293Y0068584D01*
X0539191Y0068808D01*
X0539094Y0069033D01*
X0539003Y0069261D01*
X0538918Y0069491D01*
X0538838Y0069723D01*
X0538764Y0069957D01*
X0538695Y0070193D01*
X0538633Y0070430D01*
X0538576Y0070669D01*
X0538525Y0070909D01*
X0538480Y0071150D01*
X0538441Y0071393D01*
X0538408Y0071636D01*
X0538381Y0071880D01*
X0538360Y0072124D01*
X0538345Y0072369D01*
X0538336Y0072615D01*
X0538333Y0072860D01*
X0538333Y0032860D02*
X0538336Y0033105D01*
X0538345Y0033351D01*
X0538360Y0033596D01*
X0538381Y0033840D01*
X0538408Y0034084D01*
X0538441Y0034327D01*
X0538480Y0034570D01*
X0538525Y0034811D01*
X0538576Y0035051D01*
X0538633Y0035290D01*
X0538695Y0035527D01*
X0538764Y0035763D01*
X0538838Y0035997D01*
X0538918Y0036229D01*
X0539003Y0036459D01*
X0539094Y0036687D01*
X0539191Y0036912D01*
X0539293Y0037136D01*
X0539401Y0037356D01*
X0539514Y0037574D01*
X0539632Y0037789D01*
X0539756Y0038001D01*
X0539884Y0038210D01*
X0540018Y0038416D01*
X0540157Y0038618D01*
X0540301Y0038817D01*
X0540450Y0039012D01*
X0540603Y0039204D01*
X0540761Y0039392D01*
X0540923Y0039576D01*
X0541091Y0039755D01*
X0541262Y0039931D01*
X0541438Y0040102D01*
X0541617Y0040270D01*
X0541801Y0040432D01*
X0541989Y0040590D01*
X0542181Y0040743D01*
X0542376Y0040892D01*
X0542575Y0041036D01*
X0542777Y0041175D01*
X0542983Y0041309D01*
X0543192Y0041437D01*
X0543404Y0041561D01*
X0543619Y0041679D01*
X0543837Y0041792D01*
X0544057Y0041900D01*
X0544281Y0042002D01*
X0544506Y0042099D01*
X0544734Y0042190D01*
X0544964Y0042275D01*
X0545196Y0042355D01*
X0545430Y0042429D01*
X0545666Y0042498D01*
X0545903Y0042560D01*
X0546142Y0042617D01*
X0546382Y0042668D01*
X0546623Y0042713D01*
X0546866Y0042752D01*
X0547109Y0042785D01*
X0547353Y0042812D01*
X0547597Y0042833D01*
X0547842Y0042848D01*
X0548088Y0042857D01*
X0548333Y0042860D01*
X0548578Y0042857D01*
X0548824Y0042848D01*
X0549069Y0042833D01*
X0549313Y0042812D01*
X0549557Y0042785D01*
X0549800Y0042752D01*
X0550043Y0042713D01*
X0550284Y0042668D01*
X0550524Y0042617D01*
X0550763Y0042560D01*
X0551000Y0042498D01*
X0551236Y0042429D01*
X0551470Y0042355D01*
X0551702Y0042275D01*
X0551932Y0042190D01*
X0552160Y0042099D01*
X0552385Y0042002D01*
X0552609Y0041900D01*
X0552829Y0041792D01*
X0553047Y0041679D01*
X0553262Y0041561D01*
X0553474Y0041437D01*
X0553683Y0041309D01*
X0553889Y0041175D01*
X0554091Y0041036D01*
X0554290Y0040892D01*
X0554485Y0040743D01*
X0554677Y0040590D01*
X0554865Y0040432D01*
X0555049Y0040270D01*
X0555228Y0040102D01*
X0555404Y0039931D01*
X0555575Y0039755D01*
X0555743Y0039576D01*
X0555905Y0039392D01*
X0556063Y0039204D01*
X0556216Y0039012D01*
X0556365Y0038817D01*
X0556509Y0038618D01*
X0556648Y0038416D01*
X0556782Y0038210D01*
X0556910Y0038001D01*
X0557034Y0037789D01*
X0557152Y0037574D01*
X0557265Y0037356D01*
X0557373Y0037136D01*
X0557475Y0036912D01*
X0557572Y0036687D01*
X0557663Y0036459D01*
X0557748Y0036229D01*
X0557828Y0035997D01*
X0557902Y0035763D01*
X0557971Y0035527D01*
X0558033Y0035290D01*
X0558090Y0035051D01*
X0558141Y0034811D01*
X0558186Y0034570D01*
X0558225Y0034327D01*
X0558258Y0034084D01*
X0558285Y0033840D01*
X0558306Y0033596D01*
X0558321Y0033351D01*
X0558330Y0033105D01*
X0558333Y0032860D01*
X0558330Y0032615D01*
X0558321Y0032369D01*
X0558306Y0032124D01*
X0558285Y0031880D01*
X0558258Y0031636D01*
X0558225Y0031393D01*
X0558186Y0031150D01*
X0558141Y0030909D01*
X0558090Y0030669D01*
X0558033Y0030430D01*
X0557971Y0030193D01*
X0557902Y0029957D01*
X0557828Y0029723D01*
X0557748Y0029491D01*
X0557663Y0029261D01*
X0557572Y0029033D01*
X0557475Y0028808D01*
X0557373Y0028584D01*
X0557265Y0028364D01*
X0557152Y0028146D01*
X0557034Y0027931D01*
X0556910Y0027719D01*
X0556782Y0027510D01*
X0556648Y0027304D01*
X0556509Y0027102D01*
X0556365Y0026903D01*
X0556216Y0026708D01*
X0556063Y0026516D01*
X0555905Y0026328D01*
X0555743Y0026144D01*
X0555575Y0025965D01*
X0555404Y0025789D01*
X0555228Y0025618D01*
X0555049Y0025450D01*
X0554865Y0025288D01*
X0554677Y0025130D01*
X0554485Y0024977D01*
X0554290Y0024828D01*
X0554091Y0024684D01*
X0553889Y0024545D01*
X0553683Y0024411D01*
X0553474Y0024283D01*
X0553262Y0024159D01*
X0553047Y0024041D01*
X0552829Y0023928D01*
X0552609Y0023820D01*
X0552385Y0023718D01*
X0552160Y0023621D01*
X0551932Y0023530D01*
X0551702Y0023445D01*
X0551470Y0023365D01*
X0551236Y0023291D01*
X0551000Y0023222D01*
X0550763Y0023160D01*
X0550524Y0023103D01*
X0550284Y0023052D01*
X0550043Y0023007D01*
X0549800Y0022968D01*
X0549557Y0022935D01*
X0549313Y0022908D01*
X0549069Y0022887D01*
X0548824Y0022872D01*
X0548578Y0022863D01*
X0548333Y0022860D01*
X0548088Y0022863D01*
X0547842Y0022872D01*
X0547597Y0022887D01*
X0547353Y0022908D01*
X0547109Y0022935D01*
X0546866Y0022968D01*
X0546623Y0023007D01*
X0546382Y0023052D01*
X0546142Y0023103D01*
X0545903Y0023160D01*
X0545666Y0023222D01*
X0545430Y0023291D01*
X0545196Y0023365D01*
X0544964Y0023445D01*
X0544734Y0023530D01*
X0544506Y0023621D01*
X0544281Y0023718D01*
X0544057Y0023820D01*
X0543837Y0023928D01*
X0543619Y0024041D01*
X0543404Y0024159D01*
X0543192Y0024283D01*
X0542983Y0024411D01*
X0542777Y0024545D01*
X0542575Y0024684D01*
X0542376Y0024828D01*
X0542181Y0024977D01*
X0541989Y0025130D01*
X0541801Y0025288D01*
X0541617Y0025450D01*
X0541438Y0025618D01*
X0541262Y0025789D01*
X0541091Y0025965D01*
X0540923Y0026144D01*
X0540761Y0026328D01*
X0540603Y0026516D01*
X0540450Y0026708D01*
X0540301Y0026903D01*
X0540157Y0027102D01*
X0540018Y0027304D01*
X0539884Y0027510D01*
X0539756Y0027719D01*
X0539632Y0027931D01*
X0539514Y0028146D01*
X0539401Y0028364D01*
X0539293Y0028584D01*
X0539191Y0028808D01*
X0539094Y0029033D01*
X0539003Y0029261D01*
X0538918Y0029491D01*
X0538838Y0029723D01*
X0538764Y0029957D01*
X0538695Y0030193D01*
X0538633Y0030430D01*
X0538576Y0030669D01*
X0538525Y0030909D01*
X0538480Y0031150D01*
X0538441Y0031393D01*
X0538408Y0031636D01*
X0538381Y0031880D01*
X0538360Y0032124D01*
X0538345Y0032369D01*
X0538336Y0032615D01*
X0538333Y0032860D01*
X0538333Y0112860D02*
X0538336Y0113105D01*
X0538345Y0113351D01*
X0538360Y0113596D01*
X0538381Y0113840D01*
X0538408Y0114084D01*
X0538441Y0114327D01*
X0538480Y0114570D01*
X0538525Y0114811D01*
X0538576Y0115051D01*
X0538633Y0115290D01*
X0538695Y0115527D01*
X0538764Y0115763D01*
X0538838Y0115997D01*
X0538918Y0116229D01*
X0539003Y0116459D01*
X0539094Y0116687D01*
X0539191Y0116912D01*
X0539293Y0117136D01*
X0539401Y0117356D01*
X0539514Y0117574D01*
X0539632Y0117789D01*
X0539756Y0118001D01*
X0539884Y0118210D01*
X0540018Y0118416D01*
X0540157Y0118618D01*
X0540301Y0118817D01*
X0540450Y0119012D01*
X0540603Y0119204D01*
X0540761Y0119392D01*
X0540923Y0119576D01*
X0541091Y0119755D01*
X0541262Y0119931D01*
X0541438Y0120102D01*
X0541617Y0120270D01*
X0541801Y0120432D01*
X0541989Y0120590D01*
X0542181Y0120743D01*
X0542376Y0120892D01*
X0542575Y0121036D01*
X0542777Y0121175D01*
X0542983Y0121309D01*
X0543192Y0121437D01*
X0543404Y0121561D01*
X0543619Y0121679D01*
X0543837Y0121792D01*
X0544057Y0121900D01*
X0544281Y0122002D01*
X0544506Y0122099D01*
X0544734Y0122190D01*
X0544964Y0122275D01*
X0545196Y0122355D01*
X0545430Y0122429D01*
X0545666Y0122498D01*
X0545903Y0122560D01*
X0546142Y0122617D01*
X0546382Y0122668D01*
X0546623Y0122713D01*
X0546866Y0122752D01*
X0547109Y0122785D01*
X0547353Y0122812D01*
X0547597Y0122833D01*
X0547842Y0122848D01*
X0548088Y0122857D01*
X0548333Y0122860D01*
X0548578Y0122857D01*
X0548824Y0122848D01*
X0549069Y0122833D01*
X0549313Y0122812D01*
X0549557Y0122785D01*
X0549800Y0122752D01*
X0550043Y0122713D01*
X0550284Y0122668D01*
X0550524Y0122617D01*
X0550763Y0122560D01*
X0551000Y0122498D01*
X0551236Y0122429D01*
X0551470Y0122355D01*
X0551702Y0122275D01*
X0551932Y0122190D01*
X0552160Y0122099D01*
X0552385Y0122002D01*
X0552609Y0121900D01*
X0552829Y0121792D01*
X0553047Y0121679D01*
X0553262Y0121561D01*
X0553474Y0121437D01*
X0553683Y0121309D01*
X0553889Y0121175D01*
X0554091Y0121036D01*
X0554290Y0120892D01*
X0554485Y0120743D01*
X0554677Y0120590D01*
X0554865Y0120432D01*
X0555049Y0120270D01*
X0555228Y0120102D01*
X0555404Y0119931D01*
X0555575Y0119755D01*
X0555743Y0119576D01*
X0555905Y0119392D01*
X0556063Y0119204D01*
X0556216Y0119012D01*
X0556365Y0118817D01*
X0556509Y0118618D01*
X0556648Y0118416D01*
X0556782Y0118210D01*
X0556910Y0118001D01*
X0557034Y0117789D01*
X0557152Y0117574D01*
X0557265Y0117356D01*
X0557373Y0117136D01*
X0557475Y0116912D01*
X0557572Y0116687D01*
X0557663Y0116459D01*
X0557748Y0116229D01*
X0557828Y0115997D01*
X0557902Y0115763D01*
X0557971Y0115527D01*
X0558033Y0115290D01*
X0558090Y0115051D01*
X0558141Y0114811D01*
X0558186Y0114570D01*
X0558225Y0114327D01*
X0558258Y0114084D01*
X0558285Y0113840D01*
X0558306Y0113596D01*
X0558321Y0113351D01*
X0558330Y0113105D01*
X0558333Y0112860D01*
X0558330Y0112615D01*
X0558321Y0112369D01*
X0558306Y0112124D01*
X0558285Y0111880D01*
X0558258Y0111636D01*
X0558225Y0111393D01*
X0558186Y0111150D01*
X0558141Y0110909D01*
X0558090Y0110669D01*
X0558033Y0110430D01*
X0557971Y0110193D01*
X0557902Y0109957D01*
X0557828Y0109723D01*
X0557748Y0109491D01*
X0557663Y0109261D01*
X0557572Y0109033D01*
X0557475Y0108808D01*
X0557373Y0108584D01*
X0557265Y0108364D01*
X0557152Y0108146D01*
X0557034Y0107931D01*
X0556910Y0107719D01*
X0556782Y0107510D01*
X0556648Y0107304D01*
X0556509Y0107102D01*
X0556365Y0106903D01*
X0556216Y0106708D01*
X0556063Y0106516D01*
X0555905Y0106328D01*
X0555743Y0106144D01*
X0555575Y0105965D01*
X0555404Y0105789D01*
X0555228Y0105618D01*
X0555049Y0105450D01*
X0554865Y0105288D01*
X0554677Y0105130D01*
X0554485Y0104977D01*
X0554290Y0104828D01*
X0554091Y0104684D01*
X0553889Y0104545D01*
X0553683Y0104411D01*
X0553474Y0104283D01*
X0553262Y0104159D01*
X0553047Y0104041D01*
X0552829Y0103928D01*
X0552609Y0103820D01*
X0552385Y0103718D01*
X0552160Y0103621D01*
X0551932Y0103530D01*
X0551702Y0103445D01*
X0551470Y0103365D01*
X0551236Y0103291D01*
X0551000Y0103222D01*
X0550763Y0103160D01*
X0550524Y0103103D01*
X0550284Y0103052D01*
X0550043Y0103007D01*
X0549800Y0102968D01*
X0549557Y0102935D01*
X0549313Y0102908D01*
X0549069Y0102887D01*
X0548824Y0102872D01*
X0548578Y0102863D01*
X0548333Y0102860D01*
X0548088Y0102863D01*
X0547842Y0102872D01*
X0547597Y0102887D01*
X0547353Y0102908D01*
X0547109Y0102935D01*
X0546866Y0102968D01*
X0546623Y0103007D01*
X0546382Y0103052D01*
X0546142Y0103103D01*
X0545903Y0103160D01*
X0545666Y0103222D01*
X0545430Y0103291D01*
X0545196Y0103365D01*
X0544964Y0103445D01*
X0544734Y0103530D01*
X0544506Y0103621D01*
X0544281Y0103718D01*
X0544057Y0103820D01*
X0543837Y0103928D01*
X0543619Y0104041D01*
X0543404Y0104159D01*
X0543192Y0104283D01*
X0542983Y0104411D01*
X0542777Y0104545D01*
X0542575Y0104684D01*
X0542376Y0104828D01*
X0542181Y0104977D01*
X0541989Y0105130D01*
X0541801Y0105288D01*
X0541617Y0105450D01*
X0541438Y0105618D01*
X0541262Y0105789D01*
X0541091Y0105965D01*
X0540923Y0106144D01*
X0540761Y0106328D01*
X0540603Y0106516D01*
X0540450Y0106708D01*
X0540301Y0106903D01*
X0540157Y0107102D01*
X0540018Y0107304D01*
X0539884Y0107510D01*
X0539756Y0107719D01*
X0539632Y0107931D01*
X0539514Y0108146D01*
X0539401Y0108364D01*
X0539293Y0108584D01*
X0539191Y0108808D01*
X0539094Y0109033D01*
X0539003Y0109261D01*
X0538918Y0109491D01*
X0538838Y0109723D01*
X0538764Y0109957D01*
X0538695Y0110193D01*
X0538633Y0110430D01*
X0538576Y0110669D01*
X0538525Y0110909D01*
X0538480Y0111150D01*
X0538441Y0111393D01*
X0538408Y0111636D01*
X0538381Y0111880D01*
X0538360Y0112124D01*
X0538345Y0112369D01*
X0538336Y0112615D01*
X0538333Y0112860D01*
X0422476Y0199294D02*
X0422476Y0201563D01*
X0420207Y0201563D02*
X0420207Y0199294D01*
X0421342Y0198160D01*
X0422476Y0199294D01*
X0418793Y0198727D02*
X0418226Y0198160D01*
X0417091Y0198160D01*
X0416524Y0198727D01*
X0416524Y0199861D02*
X0417659Y0200429D01*
X0418226Y0200429D01*
X0418793Y0199861D01*
X0418793Y0198727D01*
X0416524Y0199861D02*
X0416524Y0201563D01*
X0418793Y0201563D01*
X0415110Y0199861D02*
X0412841Y0199861D01*
X0411427Y0199294D02*
X0411427Y0198727D01*
X0410859Y0198160D01*
X0409725Y0198160D01*
X0409158Y0198727D01*
X0407884Y0198727D02*
X0407884Y0198160D01*
X0407316Y0198160D01*
X0407316Y0198727D01*
X0407884Y0198727D01*
X0405902Y0198727D02*
X0405335Y0198160D01*
X0404200Y0198160D01*
X0403633Y0198727D01*
X0404768Y0199861D02*
X0405335Y0199861D01*
X0405902Y0199294D01*
X0405902Y0198727D01*
X0405335Y0199861D02*
X0405902Y0200429D01*
X0405902Y0200996D01*
X0405335Y0201563D01*
X0404200Y0201563D01*
X0403633Y0200996D01*
X0409158Y0200996D02*
X0409725Y0201563D01*
X0410859Y0201563D01*
X0411427Y0200996D01*
X0411427Y0200429D01*
X0410859Y0199861D01*
X0411427Y0199294D01*
X0410859Y0199861D02*
X0410292Y0199861D01*
D13*
X0558662Y0120669D02*
X0557942Y0120129D01*
X0557943Y0120130D02*
X0557762Y0120363D01*
X0557576Y0120591D01*
X0557384Y0120815D01*
X0557187Y0121034D01*
X0556985Y0121248D01*
X0556777Y0121457D01*
X0556564Y0121660D01*
X0556347Y0121859D01*
X0556124Y0122052D01*
X0555897Y0122240D01*
X0555666Y0122422D01*
X0555430Y0122599D01*
X0555189Y0122769D01*
X0554945Y0122934D01*
X0554697Y0123092D01*
X0554445Y0123245D01*
X0554189Y0123391D01*
X0553930Y0123531D01*
X0553667Y0123665D01*
X0553402Y0123792D01*
X0553133Y0123913D01*
X0552861Y0124027D01*
X0552587Y0124134D01*
X0552310Y0124235D01*
X0552031Y0124329D01*
X0551749Y0124416D01*
X0551466Y0124496D01*
X0551180Y0124569D01*
X0550893Y0124635D01*
X0550604Y0124694D01*
X0550314Y0124746D01*
X0550023Y0124791D01*
X0549731Y0124829D01*
X0549438Y0124859D01*
X0549144Y0124883D01*
X0548850Y0124899D01*
X0548556Y0124908D01*
X0548261Y0124910D01*
X0547966Y0124904D01*
X0547672Y0124892D01*
X0547378Y0124872D01*
X0547085Y0124845D01*
X0546792Y0124811D01*
X0546500Y0124770D01*
X0546210Y0124721D01*
X0545920Y0124666D01*
X0545633Y0124604D01*
X0545346Y0124534D01*
X0545062Y0124457D01*
X0544779Y0124374D01*
X0544499Y0124284D01*
X0544221Y0124187D01*
X0543945Y0124083D01*
X0543672Y0123972D01*
X0543402Y0123855D01*
X0543134Y0123731D01*
X0542870Y0123601D01*
X0542609Y0123464D01*
X0542352Y0123321D01*
X0542098Y0123171D01*
X0541847Y0123016D01*
X0541601Y0122854D01*
X0541359Y0122687D01*
X0541121Y0122513D01*
X0540887Y0122334D01*
X0540657Y0122149D01*
X0540433Y0121959D01*
X0540212Y0121763D01*
X0539997Y0121562D01*
X0539787Y0121355D01*
X0539582Y0121144D01*
X0539382Y0120927D01*
X0539187Y0120706D01*
X0538998Y0120480D01*
X0538815Y0120250D01*
X0538637Y0120015D01*
X0538465Y0119775D01*
X0538299Y0119532D01*
X0538139Y0119285D01*
X0537985Y0119034D01*
X0537837Y0118779D01*
X0537695Y0118520D01*
X0537560Y0118259D01*
X0537431Y0117994D01*
X0537309Y0117726D01*
X0537193Y0117455D01*
X0537084Y0117181D01*
X0536982Y0116905D01*
X0536887Y0116626D01*
X0536798Y0116345D01*
X0536716Y0116062D01*
X0536641Y0115777D01*
X0536574Y0115490D01*
X0536513Y0115202D01*
X0536459Y0114912D01*
X0536412Y0114621D01*
X0536373Y0114329D01*
X0536341Y0114037D01*
X0536315Y0113743D01*
X0536297Y0113449D01*
X0536287Y0113155D01*
X0536283Y0112860D01*
X0536287Y0112565D01*
X0536297Y0112271D01*
X0536315Y0111977D01*
X0536341Y0111683D01*
X0536373Y0111391D01*
X0536412Y0111099D01*
X0536459Y0110808D01*
X0536513Y0110518D01*
X0536574Y0110230D01*
X0536641Y0109943D01*
X0536716Y0109658D01*
X0536798Y0109375D01*
X0536887Y0109094D01*
X0536982Y0108815D01*
X0537084Y0108539D01*
X0537193Y0108265D01*
X0537309Y0107994D01*
X0537431Y0107726D01*
X0537560Y0107461D01*
X0537695Y0107200D01*
X0537837Y0106941D01*
X0537985Y0106686D01*
X0538139Y0106435D01*
X0538299Y0106188D01*
X0538465Y0105945D01*
X0538637Y0105705D01*
X0538815Y0105470D01*
X0538998Y0105240D01*
X0539187Y0105014D01*
X0539382Y0104793D01*
X0539582Y0104576D01*
X0539787Y0104365D01*
X0539997Y0104158D01*
X0540212Y0103957D01*
X0540433Y0103761D01*
X0540657Y0103571D01*
X0540887Y0103386D01*
X0541121Y0103207D01*
X0541359Y0103033D01*
X0541601Y0102866D01*
X0541847Y0102704D01*
X0542098Y0102549D01*
X0542352Y0102399D01*
X0542609Y0102256D01*
X0542870Y0102119D01*
X0543134Y0101989D01*
X0543402Y0101865D01*
X0543672Y0101748D01*
X0543945Y0101637D01*
X0544221Y0101533D01*
X0544499Y0101436D01*
X0544779Y0101346D01*
X0545062Y0101263D01*
X0545346Y0101186D01*
X0545633Y0101116D01*
X0545920Y0101054D01*
X0546210Y0100999D01*
X0546500Y0100950D01*
X0546792Y0100909D01*
X0547085Y0100875D01*
X0547378Y0100848D01*
X0547672Y0100828D01*
X0547966Y0100816D01*
X0548261Y0100810D01*
X0548556Y0100812D01*
X0548850Y0100821D01*
X0549144Y0100837D01*
X0549438Y0100861D01*
X0549731Y0100891D01*
X0550023Y0100929D01*
X0550314Y0100974D01*
X0550604Y0101026D01*
X0550893Y0101085D01*
X0551180Y0101151D01*
X0551466Y0101224D01*
X0551749Y0101304D01*
X0552031Y0101391D01*
X0552310Y0101485D01*
X0552587Y0101586D01*
X0552861Y0101693D01*
X0553133Y0101807D01*
X0553402Y0101928D01*
X0553667Y0102055D01*
X0553930Y0102189D01*
X0554189Y0102329D01*
X0554445Y0102475D01*
X0554697Y0102628D01*
X0554945Y0102786D01*
X0555189Y0102951D01*
X0555430Y0103121D01*
X0555666Y0103298D01*
X0555897Y0103480D01*
X0556124Y0103668D01*
X0556347Y0103861D01*
X0556564Y0104060D01*
X0556777Y0104263D01*
X0556985Y0104472D01*
X0557187Y0104686D01*
X0557384Y0104905D01*
X0557576Y0105129D01*
X0557762Y0105357D01*
X0557943Y0105590D01*
X0558662Y0105051D01*
X0558663Y0105050D01*
X0558469Y0104800D01*
X0558269Y0104554D01*
X0558063Y0104314D01*
X0557851Y0104079D01*
X0557633Y0103849D01*
X0557410Y0103624D01*
X0557182Y0103405D01*
X0556948Y0103191D01*
X0556709Y0102983D01*
X0556465Y0102781D01*
X0556216Y0102586D01*
X0555962Y0102396D01*
X0555704Y0102213D01*
X0555442Y0102036D01*
X0555175Y0101865D01*
X0554904Y0101701D01*
X0554629Y0101544D01*
X0554351Y0101393D01*
X0554068Y0101249D01*
X0553783Y0101113D01*
X0553494Y0100983D01*
X0553202Y0100860D01*
X0552907Y0100745D01*
X0552610Y0100637D01*
X0552309Y0100536D01*
X0552007Y0100442D01*
X0551702Y0100356D01*
X0551395Y0100277D01*
X0551087Y0100206D01*
X0550777Y0100143D01*
X0550465Y0100087D01*
X0550152Y0100038D01*
X0549838Y0099998D01*
X0549523Y0099965D01*
X0549207Y0099940D01*
X0548891Y0099922D01*
X0548575Y0099912D01*
X0548258Y0099910D01*
X0547941Y0099916D01*
X0547625Y0099929D01*
X0547309Y0099951D01*
X0546994Y0099979D01*
X0546679Y0100016D01*
X0546366Y0100060D01*
X0546053Y0100112D01*
X0545742Y0100172D01*
X0545433Y0100239D01*
X0545125Y0100314D01*
X0544819Y0100396D01*
X0544516Y0100485D01*
X0544214Y0100582D01*
X0543915Y0100687D01*
X0543619Y0100799D01*
X0543325Y0100917D01*
X0543035Y0101043D01*
X0542748Y0101176D01*
X0542463Y0101317D01*
X0542183Y0101464D01*
X0541906Y0101617D01*
X0541633Y0101778D01*
X0541364Y0101945D01*
X0541099Y0102119D01*
X0540839Y0102299D01*
X0540583Y0102485D01*
X0540332Y0102678D01*
X0540085Y0102876D01*
X0539843Y0103081D01*
X0539607Y0103291D01*
X0539375Y0103508D01*
X0539150Y0103730D01*
X0538929Y0103957D01*
X0538714Y0104189D01*
X0538505Y0104427D01*
X0538302Y0104670D01*
X0538104Y0104918D01*
X0537913Y0105170D01*
X0537728Y0105427D01*
X0537550Y0105689D01*
X0537378Y0105955D01*
X0537212Y0106224D01*
X0537053Y0106498D01*
X0536901Y0106776D01*
X0536756Y0107057D01*
X0536617Y0107342D01*
X0536486Y0107630D01*
X0536362Y0107922D01*
X0536244Y0108216D01*
X0536134Y0108513D01*
X0536032Y0108812D01*
X0535937Y0109114D01*
X0535849Y0109418D01*
X0535768Y0109725D01*
X0535695Y0110033D01*
X0535630Y0110343D01*
X0535572Y0110654D01*
X0535522Y0110967D01*
X0535480Y0111281D01*
X0535445Y0111595D01*
X0535418Y0111911D01*
X0535398Y0112227D01*
X0535387Y0112543D01*
X0535383Y0112860D01*
X0535387Y0113177D01*
X0535398Y0113493D01*
X0535418Y0113809D01*
X0535445Y0114125D01*
X0535480Y0114439D01*
X0535522Y0114753D01*
X0535572Y0115066D01*
X0535630Y0115377D01*
X0535695Y0115687D01*
X0535768Y0115995D01*
X0535849Y0116302D01*
X0535937Y0116606D01*
X0536032Y0116908D01*
X0536134Y0117207D01*
X0536244Y0117504D01*
X0536362Y0117798D01*
X0536486Y0118090D01*
X0536617Y0118378D01*
X0536756Y0118663D01*
X0536901Y0118944D01*
X0537053Y0119222D01*
X0537212Y0119496D01*
X0537378Y0119765D01*
X0537550Y0120031D01*
X0537728Y0120293D01*
X0537913Y0120550D01*
X0538104Y0120802D01*
X0538302Y0121050D01*
X0538505Y0121293D01*
X0538714Y0121531D01*
X0538929Y0121763D01*
X0539150Y0121990D01*
X0539375Y0122212D01*
X0539607Y0122429D01*
X0539843Y0122639D01*
X0540085Y0122844D01*
X0540332Y0123042D01*
X0540583Y0123235D01*
X0540839Y0123421D01*
X0541099Y0123601D01*
X0541364Y0123775D01*
X0541633Y0123942D01*
X0541906Y0124103D01*
X0542183Y0124256D01*
X0542463Y0124403D01*
X0542748Y0124544D01*
X0543035Y0124677D01*
X0543325Y0124803D01*
X0543619Y0124921D01*
X0543915Y0125033D01*
X0544214Y0125138D01*
X0544516Y0125235D01*
X0544819Y0125324D01*
X0545125Y0125406D01*
X0545433Y0125481D01*
X0545742Y0125548D01*
X0546053Y0125608D01*
X0546366Y0125660D01*
X0546679Y0125704D01*
X0546994Y0125741D01*
X0547309Y0125769D01*
X0547625Y0125791D01*
X0547941Y0125804D01*
X0548258Y0125810D01*
X0548575Y0125808D01*
X0548891Y0125798D01*
X0549207Y0125780D01*
X0549523Y0125755D01*
X0549838Y0125722D01*
X0550152Y0125682D01*
X0550465Y0125633D01*
X0550777Y0125577D01*
X0551087Y0125514D01*
X0551395Y0125443D01*
X0551702Y0125364D01*
X0552007Y0125278D01*
X0552309Y0125184D01*
X0552610Y0125083D01*
X0552907Y0124975D01*
X0553202Y0124860D01*
X0553494Y0124737D01*
X0553783Y0124607D01*
X0554068Y0124471D01*
X0554351Y0124327D01*
X0554629Y0124176D01*
X0554904Y0124019D01*
X0555175Y0123855D01*
X0555442Y0123684D01*
X0555704Y0123507D01*
X0555962Y0123324D01*
X0556216Y0123134D01*
X0556465Y0122939D01*
X0556709Y0122737D01*
X0556948Y0122529D01*
X0557182Y0122315D01*
X0557410Y0122096D01*
X0557633Y0121871D01*
X0557851Y0121641D01*
X0558063Y0121406D01*
X0558269Y0121166D01*
X0558469Y0120920D01*
X0558663Y0120670D01*
X0558588Y0120614D01*
X0558395Y0120862D01*
X0558196Y0121106D01*
X0557992Y0121344D01*
X0557782Y0121578D01*
X0557566Y0121806D01*
X0557344Y0122029D01*
X0557117Y0122247D01*
X0556885Y0122459D01*
X0556648Y0122665D01*
X0556406Y0122866D01*
X0556158Y0123060D01*
X0555907Y0123248D01*
X0555650Y0123430D01*
X0555390Y0123606D01*
X0555125Y0123775D01*
X0554856Y0123938D01*
X0554583Y0124094D01*
X0554307Y0124244D01*
X0554027Y0124386D01*
X0553743Y0124522D01*
X0553456Y0124651D01*
X0553166Y0124773D01*
X0552874Y0124887D01*
X0552578Y0124995D01*
X0552280Y0125095D01*
X0551980Y0125188D01*
X0551677Y0125273D01*
X0551373Y0125351D01*
X0551067Y0125422D01*
X0550759Y0125485D01*
X0550449Y0125541D01*
X0550139Y0125589D01*
X0549827Y0125629D01*
X0549514Y0125662D01*
X0549201Y0125687D01*
X0548887Y0125704D01*
X0548573Y0125714D01*
X0548258Y0125716D01*
X0547944Y0125710D01*
X0547630Y0125697D01*
X0547316Y0125676D01*
X0547003Y0125647D01*
X0546691Y0125611D01*
X0546380Y0125567D01*
X0546070Y0125515D01*
X0545761Y0125456D01*
X0545454Y0125389D01*
X0545148Y0125315D01*
X0544845Y0125234D01*
X0544543Y0125145D01*
X0544244Y0125048D01*
X0543947Y0124945D01*
X0543653Y0124834D01*
X0543362Y0124716D01*
X0543073Y0124591D01*
X0542788Y0124459D01*
X0542506Y0124320D01*
X0542228Y0124174D01*
X0541953Y0124021D01*
X0541682Y0123862D01*
X0541415Y0123696D01*
X0541152Y0123523D01*
X0540893Y0123345D01*
X0540639Y0123160D01*
X0540390Y0122968D01*
X0540145Y0122771D01*
X0539905Y0122568D01*
X0539670Y0122359D01*
X0539440Y0122144D01*
X0539216Y0121924D01*
X0538997Y0121699D01*
X0538784Y0121468D01*
X0538576Y0121232D01*
X0538374Y0120990D01*
X0538179Y0120745D01*
X0537989Y0120494D01*
X0537805Y0120239D01*
X0537628Y0119979D01*
X0537457Y0119715D01*
X0537293Y0119447D01*
X0537135Y0119175D01*
X0536984Y0118900D01*
X0536840Y0118620D01*
X0536702Y0118338D01*
X0536572Y0118052D01*
X0536448Y0117763D01*
X0536332Y0117470D01*
X0536223Y0117176D01*
X0536121Y0116878D01*
X0536027Y0116579D01*
X0535939Y0116276D01*
X0535859Y0115972D01*
X0535787Y0115667D01*
X0535722Y0115359D01*
X0535665Y0115050D01*
X0535615Y0114739D01*
X0535573Y0114428D01*
X0535538Y0114115D01*
X0535512Y0113802D01*
X0535492Y0113488D01*
X0535481Y0113174D01*
X0535477Y0112860D01*
X0535481Y0112546D01*
X0535492Y0112232D01*
X0535512Y0111918D01*
X0535538Y0111605D01*
X0535573Y0111292D01*
X0535615Y0110981D01*
X0535665Y0110670D01*
X0535722Y0110361D01*
X0535787Y0110053D01*
X0535859Y0109748D01*
X0535939Y0109444D01*
X0536027Y0109141D01*
X0536121Y0108842D01*
X0536223Y0108544D01*
X0536332Y0108250D01*
X0536448Y0107957D01*
X0536572Y0107668D01*
X0536702Y0107382D01*
X0536840Y0107100D01*
X0536984Y0106820D01*
X0537135Y0106545D01*
X0537293Y0106273D01*
X0537457Y0106005D01*
X0537628Y0105741D01*
X0537805Y0105481D01*
X0537989Y0105226D01*
X0538179Y0104975D01*
X0538374Y0104730D01*
X0538576Y0104488D01*
X0538784Y0104252D01*
X0538997Y0104021D01*
X0539216Y0103796D01*
X0539440Y0103576D01*
X0539670Y0103361D01*
X0539905Y0103152D01*
X0540145Y0102949D01*
X0540390Y0102752D01*
X0540639Y0102560D01*
X0540893Y0102375D01*
X0541152Y0102197D01*
X0541415Y0102024D01*
X0541682Y0101858D01*
X0541953Y0101699D01*
X0542228Y0101546D01*
X0542506Y0101400D01*
X0542788Y0101261D01*
X0543073Y0101129D01*
X0543362Y0101004D01*
X0543653Y0100886D01*
X0543947Y0100775D01*
X0544244Y0100672D01*
X0544543Y0100575D01*
X0544845Y0100486D01*
X0545148Y0100405D01*
X0545454Y0100331D01*
X0545761Y0100264D01*
X0546070Y0100205D01*
X0546380Y0100153D01*
X0546691Y0100109D01*
X0547003Y0100073D01*
X0547316Y0100044D01*
X0547630Y0100023D01*
X0547944Y0100010D01*
X0548258Y0100004D01*
X0548573Y0100006D01*
X0548887Y0100016D01*
X0549201Y0100033D01*
X0549514Y0100058D01*
X0549827Y0100091D01*
X0550139Y0100131D01*
X0550449Y0100179D01*
X0550759Y0100235D01*
X0551067Y0100298D01*
X0551373Y0100369D01*
X0551677Y0100447D01*
X0551980Y0100532D01*
X0552280Y0100625D01*
X0552578Y0100725D01*
X0552874Y0100833D01*
X0553166Y0100947D01*
X0553456Y0101069D01*
X0553743Y0101198D01*
X0554027Y0101334D01*
X0554307Y0101476D01*
X0554583Y0101626D01*
X0554856Y0101782D01*
X0555125Y0101945D01*
X0555390Y0102114D01*
X0555650Y0102290D01*
X0555907Y0102472D01*
X0556158Y0102660D01*
X0556406Y0102854D01*
X0556648Y0103055D01*
X0556885Y0103261D01*
X0557117Y0103473D01*
X0557344Y0103691D01*
X0557566Y0103914D01*
X0557782Y0104142D01*
X0557992Y0104376D01*
X0558196Y0104614D01*
X0558395Y0104858D01*
X0558588Y0105106D01*
X0558513Y0105163D01*
X0558321Y0104916D01*
X0558124Y0104674D01*
X0557921Y0104437D01*
X0557712Y0104206D01*
X0557498Y0103979D01*
X0557278Y0103757D01*
X0557053Y0103541D01*
X0556822Y0103331D01*
X0556587Y0103126D01*
X0556346Y0102927D01*
X0556101Y0102734D01*
X0555851Y0102548D01*
X0555597Y0102367D01*
X0555338Y0102192D01*
X0555075Y0102024D01*
X0554808Y0101863D01*
X0554537Y0101708D01*
X0554263Y0101559D01*
X0553985Y0101418D01*
X0553703Y0101283D01*
X0553419Y0101155D01*
X0553131Y0101034D01*
X0552840Y0100920D01*
X0552547Y0100814D01*
X0552251Y0100714D01*
X0551953Y0100622D01*
X0551653Y0100537D01*
X0551350Y0100460D01*
X0551046Y0100390D01*
X0550741Y0100327D01*
X0550434Y0100272D01*
X0550125Y0100224D01*
X0549816Y0100184D01*
X0549505Y0100152D01*
X0549194Y0100127D01*
X0548883Y0100110D01*
X0548571Y0100100D01*
X0548259Y0100098D01*
X0547947Y0100104D01*
X0547635Y0100117D01*
X0547324Y0100138D01*
X0547013Y0100166D01*
X0546703Y0100203D01*
X0546394Y0100246D01*
X0546086Y0100297D01*
X0545779Y0100356D01*
X0545475Y0100422D01*
X0545171Y0100496D01*
X0544870Y0100577D01*
X0544571Y0100665D01*
X0544274Y0100761D01*
X0543979Y0100864D01*
X0543687Y0100974D01*
X0543398Y0101091D01*
X0543111Y0101215D01*
X0542828Y0101346D01*
X0542548Y0101484D01*
X0542272Y0101629D01*
X0541999Y0101781D01*
X0541730Y0101939D01*
X0541465Y0102104D01*
X0541204Y0102275D01*
X0540948Y0102452D01*
X0540695Y0102636D01*
X0540448Y0102826D01*
X0540205Y0103021D01*
X0539966Y0103223D01*
X0539733Y0103431D01*
X0539505Y0103644D01*
X0539283Y0103862D01*
X0539065Y0104086D01*
X0538854Y0104315D01*
X0538648Y0104550D01*
X0538447Y0104789D01*
X0538253Y0105033D01*
X0538065Y0105282D01*
X0537882Y0105535D01*
X0537706Y0105793D01*
X0537537Y0106055D01*
X0537374Y0106321D01*
X0537217Y0106591D01*
X0537067Y0106865D01*
X0536924Y0107142D01*
X0536787Y0107422D01*
X0536658Y0107706D01*
X0536535Y0107993D01*
X0536420Y0108283D01*
X0536312Y0108576D01*
X0536210Y0108871D01*
X0536116Y0109169D01*
X0536030Y0109469D01*
X0535951Y0109770D01*
X0535879Y0110074D01*
X0535814Y0110379D01*
X0535757Y0110686D01*
X0535708Y0110994D01*
X0535666Y0111304D01*
X0535632Y0111614D01*
X0535605Y0111925D01*
X0535586Y0112236D01*
X0535575Y0112548D01*
X0535571Y0112860D01*
X0535575Y0113172D01*
X0535586Y0113484D01*
X0535605Y0113795D01*
X0535632Y0114106D01*
X0535666Y0114416D01*
X0535708Y0114726D01*
X0535757Y0115034D01*
X0535814Y0115341D01*
X0535879Y0115646D01*
X0535951Y0115950D01*
X0536030Y0116251D01*
X0536116Y0116551D01*
X0536210Y0116849D01*
X0536312Y0117144D01*
X0536420Y0117437D01*
X0536535Y0117727D01*
X0536658Y0118014D01*
X0536787Y0118298D01*
X0536924Y0118578D01*
X0537067Y0118855D01*
X0537217Y0119129D01*
X0537374Y0119399D01*
X0537537Y0119665D01*
X0537706Y0119927D01*
X0537882Y0120185D01*
X0538065Y0120438D01*
X0538253Y0120687D01*
X0538447Y0120931D01*
X0538648Y0121170D01*
X0538854Y0121405D01*
X0539065Y0121634D01*
X0539283Y0121858D01*
X0539505Y0122076D01*
X0539733Y0122289D01*
X0539966Y0122497D01*
X0540205Y0122699D01*
X0540448Y0122894D01*
X0540695Y0123084D01*
X0540948Y0123268D01*
X0541204Y0123445D01*
X0541465Y0123616D01*
X0541730Y0123781D01*
X0541999Y0123939D01*
X0542272Y0124091D01*
X0542548Y0124236D01*
X0542828Y0124374D01*
X0543111Y0124505D01*
X0543398Y0124629D01*
X0543687Y0124746D01*
X0543979Y0124856D01*
X0544274Y0124959D01*
X0544571Y0125055D01*
X0544870Y0125143D01*
X0545171Y0125224D01*
X0545475Y0125298D01*
X0545779Y0125364D01*
X0546086Y0125423D01*
X0546394Y0125474D01*
X0546703Y0125517D01*
X0547013Y0125554D01*
X0547324Y0125582D01*
X0547635Y0125603D01*
X0547947Y0125616D01*
X0548259Y0125622D01*
X0548571Y0125620D01*
X0548883Y0125610D01*
X0549194Y0125593D01*
X0549505Y0125568D01*
X0549816Y0125536D01*
X0550125Y0125496D01*
X0550434Y0125448D01*
X0550741Y0125393D01*
X0551046Y0125330D01*
X0551350Y0125260D01*
X0551653Y0125183D01*
X0551953Y0125098D01*
X0552251Y0125006D01*
X0552547Y0124906D01*
X0552840Y0124800D01*
X0553131Y0124686D01*
X0553419Y0124565D01*
X0553703Y0124437D01*
X0553985Y0124302D01*
X0554263Y0124161D01*
X0554537Y0124012D01*
X0554808Y0123857D01*
X0555075Y0123696D01*
X0555338Y0123528D01*
X0555597Y0123353D01*
X0555851Y0123172D01*
X0556101Y0122986D01*
X0556346Y0122793D01*
X0556587Y0122594D01*
X0556822Y0122389D01*
X0557053Y0122179D01*
X0557278Y0121963D01*
X0557498Y0121741D01*
X0557712Y0121514D01*
X0557921Y0121283D01*
X0558124Y0121046D01*
X0558321Y0120804D01*
X0558513Y0120557D01*
X0558437Y0120501D01*
X0558247Y0120746D01*
X0558052Y0120986D01*
X0557850Y0121221D01*
X0557643Y0121451D01*
X0557430Y0121676D01*
X0557212Y0121896D01*
X0556988Y0122110D01*
X0556759Y0122319D01*
X0556526Y0122522D01*
X0556287Y0122720D01*
X0556044Y0122911D01*
X0555795Y0123097D01*
X0555543Y0123276D01*
X0555286Y0123449D01*
X0555025Y0123616D01*
X0554760Y0123777D01*
X0554491Y0123930D01*
X0554219Y0124078D01*
X0553943Y0124218D01*
X0553663Y0124352D01*
X0553381Y0124479D01*
X0553095Y0124599D01*
X0552807Y0124712D01*
X0552516Y0124818D01*
X0552222Y0124916D01*
X0551926Y0125008D01*
X0551628Y0125092D01*
X0551328Y0125169D01*
X0551026Y0125238D01*
X0550723Y0125301D01*
X0550418Y0125355D01*
X0550112Y0125403D01*
X0549804Y0125442D01*
X0549496Y0125474D01*
X0549188Y0125499D01*
X0548878Y0125516D01*
X0548569Y0125526D01*
X0548259Y0125528D01*
X0547949Y0125522D01*
X0547640Y0125509D01*
X0547331Y0125488D01*
X0547022Y0125460D01*
X0546715Y0125424D01*
X0546408Y0125381D01*
X0546102Y0125330D01*
X0545798Y0125272D01*
X0545495Y0125206D01*
X0545194Y0125133D01*
X0544895Y0125053D01*
X0544598Y0124965D01*
X0544303Y0124870D01*
X0544011Y0124768D01*
X0543721Y0124659D01*
X0543434Y0124542D01*
X0543150Y0124419D01*
X0542869Y0124289D01*
X0542591Y0124152D01*
X0542317Y0124008D01*
X0542046Y0123858D01*
X0541779Y0123701D01*
X0541516Y0123537D01*
X0541257Y0123367D01*
X0541002Y0123191D01*
X0540751Y0123009D01*
X0540506Y0122820D01*
X0540264Y0122626D01*
X0540028Y0122426D01*
X0539797Y0122220D01*
X0539570Y0122008D01*
X0539349Y0121791D01*
X0539134Y0121569D01*
X0538923Y0121342D01*
X0538719Y0121109D01*
X0538520Y0120871D01*
X0538327Y0120629D01*
X0538140Y0120382D01*
X0537959Y0120131D01*
X0537785Y0119875D01*
X0537616Y0119615D01*
X0537454Y0119351D01*
X0537299Y0119083D01*
X0537150Y0118811D01*
X0537008Y0118536D01*
X0536872Y0118257D01*
X0536744Y0117976D01*
X0536622Y0117691D01*
X0536508Y0117403D01*
X0536400Y0117112D01*
X0536300Y0116819D01*
X0536206Y0116524D01*
X0536120Y0116226D01*
X0536042Y0115927D01*
X0535971Y0115625D01*
X0535907Y0115322D01*
X0535850Y0115018D01*
X0535801Y0114712D01*
X0535760Y0114405D01*
X0535726Y0114097D01*
X0535699Y0113788D01*
X0535680Y0113479D01*
X0535669Y0113170D01*
X0535665Y0112860D01*
X0535669Y0112550D01*
X0535680Y0112241D01*
X0535699Y0111932D01*
X0535726Y0111623D01*
X0535760Y0111315D01*
X0535801Y0111008D01*
X0535850Y0110702D01*
X0535907Y0110398D01*
X0535971Y0110095D01*
X0536042Y0109793D01*
X0536120Y0109494D01*
X0536206Y0109196D01*
X0536300Y0108901D01*
X0536400Y0108608D01*
X0536508Y0108317D01*
X0536622Y0108029D01*
X0536744Y0107744D01*
X0536872Y0107463D01*
X0537008Y0107184D01*
X0537150Y0106909D01*
X0537299Y0106637D01*
X0537454Y0106369D01*
X0537616Y0106105D01*
X0537785Y0105845D01*
X0537959Y0105589D01*
X0538140Y0105338D01*
X0538327Y0105091D01*
X0538520Y0104849D01*
X0538719Y0104611D01*
X0538923Y0104378D01*
X0539134Y0104151D01*
X0539349Y0103929D01*
X0539570Y0103712D01*
X0539797Y0103500D01*
X0540028Y0103294D01*
X0540264Y0103094D01*
X0540506Y0102900D01*
X0540751Y0102711D01*
X0541002Y0102529D01*
X0541257Y0102353D01*
X0541516Y0102183D01*
X0541779Y0102019D01*
X0542046Y0101862D01*
X0542317Y0101712D01*
X0542591Y0101568D01*
X0542869Y0101431D01*
X0543150Y0101301D01*
X0543434Y0101178D01*
X0543721Y0101061D01*
X0544011Y0100952D01*
X0544303Y0100850D01*
X0544598Y0100755D01*
X0544895Y0100667D01*
X0545194Y0100587D01*
X0545495Y0100514D01*
X0545798Y0100448D01*
X0546102Y0100390D01*
X0546408Y0100339D01*
X0546715Y0100296D01*
X0547022Y0100260D01*
X0547331Y0100232D01*
X0547640Y0100211D01*
X0547949Y0100198D01*
X0548259Y0100192D01*
X0548569Y0100194D01*
X0548878Y0100204D01*
X0549188Y0100221D01*
X0549496Y0100246D01*
X0549804Y0100278D01*
X0550112Y0100317D01*
X0550418Y0100365D01*
X0550723Y0100419D01*
X0551026Y0100482D01*
X0551328Y0100551D01*
X0551628Y0100628D01*
X0551926Y0100712D01*
X0552222Y0100804D01*
X0552516Y0100902D01*
X0552807Y0101008D01*
X0553095Y0101121D01*
X0553381Y0101241D01*
X0553663Y0101368D01*
X0553943Y0101502D01*
X0554219Y0101642D01*
X0554491Y0101790D01*
X0554760Y0101943D01*
X0555025Y0102104D01*
X0555286Y0102271D01*
X0555543Y0102444D01*
X0555795Y0102623D01*
X0556044Y0102809D01*
X0556287Y0103000D01*
X0556526Y0103198D01*
X0556759Y0103401D01*
X0556988Y0103610D01*
X0557212Y0103824D01*
X0557430Y0104044D01*
X0557643Y0104269D01*
X0557850Y0104499D01*
X0558052Y0104734D01*
X0558247Y0104974D01*
X0558437Y0105219D01*
X0558362Y0105276D01*
X0558174Y0105033D01*
X0557979Y0104794D01*
X0557779Y0104561D01*
X0557574Y0104333D01*
X0557362Y0104109D01*
X0557146Y0103891D01*
X0556924Y0103678D01*
X0556697Y0103471D01*
X0556465Y0103269D01*
X0556228Y0103073D01*
X0555986Y0102883D01*
X0555740Y0102699D01*
X0555489Y0102521D01*
X0555234Y0102349D01*
X0554975Y0102184D01*
X0554712Y0102024D01*
X0554445Y0101872D01*
X0554175Y0101725D01*
X0553901Y0101586D01*
X0553624Y0101453D01*
X0553343Y0101327D01*
X0553060Y0101208D01*
X0552773Y0101096D01*
X0552484Y0100991D01*
X0552193Y0100893D01*
X0551899Y0100802D01*
X0551603Y0100719D01*
X0551306Y0100642D01*
X0551006Y0100573D01*
X0550705Y0100512D01*
X0550402Y0100457D01*
X0550098Y0100411D01*
X0549793Y0100371D01*
X0549488Y0100339D01*
X0549181Y0100315D01*
X0548874Y0100298D01*
X0548567Y0100288D01*
X0548259Y0100286D01*
X0547952Y0100292D01*
X0547645Y0100305D01*
X0547338Y0100325D01*
X0547032Y0100354D01*
X0546726Y0100389D01*
X0546422Y0100432D01*
X0546119Y0100483D01*
X0545817Y0100540D01*
X0545516Y0100606D01*
X0545217Y0100678D01*
X0544921Y0100758D01*
X0544626Y0100845D01*
X0544333Y0100939D01*
X0544043Y0101041D01*
X0543755Y0101149D01*
X0543470Y0101264D01*
X0543188Y0101387D01*
X0542909Y0101516D01*
X0542633Y0101652D01*
X0542361Y0101795D01*
X0542092Y0101944D01*
X0541827Y0102100D01*
X0541566Y0102262D01*
X0541309Y0102431D01*
X0541056Y0102606D01*
X0540808Y0102787D01*
X0540564Y0102974D01*
X0540324Y0103167D01*
X0540090Y0103365D01*
X0539860Y0103570D01*
X0539635Y0103780D01*
X0539416Y0103995D01*
X0539202Y0104216D01*
X0538993Y0104441D01*
X0538790Y0104672D01*
X0538593Y0104908D01*
X0538401Y0105149D01*
X0538216Y0105394D01*
X0538036Y0105643D01*
X0537863Y0105897D01*
X0537696Y0106155D01*
X0537535Y0106417D01*
X0537381Y0106683D01*
X0537233Y0106953D01*
X0537092Y0107226D01*
X0536957Y0107503D01*
X0536830Y0107782D01*
X0536709Y0108065D01*
X0536595Y0108351D01*
X0536489Y0108639D01*
X0536389Y0108930D01*
X0536296Y0109223D01*
X0536211Y0109519D01*
X0536133Y0109816D01*
X0536062Y0110115D01*
X0535999Y0110416D01*
X0535943Y0110718D01*
X0535894Y0111022D01*
X0535853Y0111327D01*
X0535819Y0111632D01*
X0535793Y0111938D01*
X0535774Y0112245D01*
X0535763Y0112553D01*
X0535759Y0112860D01*
X0535763Y0113167D01*
X0535774Y0113475D01*
X0535793Y0113782D01*
X0535819Y0114088D01*
X0535853Y0114393D01*
X0535894Y0114698D01*
X0535943Y0115002D01*
X0535999Y0115304D01*
X0536062Y0115605D01*
X0536133Y0115904D01*
X0536211Y0116201D01*
X0536296Y0116497D01*
X0536389Y0116790D01*
X0536489Y0117081D01*
X0536595Y0117369D01*
X0536709Y0117655D01*
X0536830Y0117938D01*
X0536957Y0118217D01*
X0537092Y0118494D01*
X0537233Y0118767D01*
X0537381Y0119037D01*
X0537535Y0119303D01*
X0537696Y0119565D01*
X0537863Y0119823D01*
X0538036Y0120077D01*
X0538216Y0120326D01*
X0538401Y0120571D01*
X0538593Y0120812D01*
X0538790Y0121048D01*
X0538993Y0121279D01*
X0539202Y0121504D01*
X0539416Y0121725D01*
X0539635Y0121940D01*
X0539860Y0122150D01*
X0540090Y0122355D01*
X0540324Y0122553D01*
X0540564Y0122746D01*
X0540808Y0122933D01*
X0541056Y0123114D01*
X0541309Y0123289D01*
X0541566Y0123458D01*
X0541827Y0123620D01*
X0542092Y0123776D01*
X0542361Y0123925D01*
X0542633Y0124068D01*
X0542909Y0124204D01*
X0543188Y0124333D01*
X0543470Y0124456D01*
X0543755Y0124571D01*
X0544043Y0124679D01*
X0544333Y0124781D01*
X0544626Y0124875D01*
X0544921Y0124962D01*
X0545217Y0125042D01*
X0545516Y0125114D01*
X0545817Y0125180D01*
X0546119Y0125237D01*
X0546422Y0125288D01*
X0546726Y0125331D01*
X0547032Y0125366D01*
X0547338Y0125395D01*
X0547645Y0125415D01*
X0547952Y0125428D01*
X0548259Y0125434D01*
X0548567Y0125432D01*
X0548874Y0125422D01*
X0549181Y0125405D01*
X0549488Y0125381D01*
X0549793Y0125349D01*
X0550098Y0125309D01*
X0550402Y0125263D01*
X0550705Y0125208D01*
X0551006Y0125147D01*
X0551306Y0125078D01*
X0551603Y0125001D01*
X0551899Y0124918D01*
X0552193Y0124827D01*
X0552484Y0124729D01*
X0552773Y0124624D01*
X0553060Y0124512D01*
X0553343Y0124393D01*
X0553624Y0124267D01*
X0553901Y0124134D01*
X0554175Y0123995D01*
X0554445Y0123848D01*
X0554712Y0123696D01*
X0554975Y0123536D01*
X0555234Y0123371D01*
X0555489Y0123199D01*
X0555740Y0123021D01*
X0555986Y0122837D01*
X0556228Y0122647D01*
X0556465Y0122451D01*
X0556697Y0122249D01*
X0556924Y0122042D01*
X0557146Y0121829D01*
X0557362Y0121611D01*
X0557574Y0121387D01*
X0557779Y0121159D01*
X0557979Y0120926D01*
X0558174Y0120687D01*
X0558362Y0120444D01*
X0558287Y0120388D01*
X0558100Y0120629D01*
X0557907Y0120866D01*
X0557708Y0121097D01*
X0557504Y0121324D01*
X0557295Y0121546D01*
X0557080Y0121762D01*
X0556859Y0121973D01*
X0556634Y0122179D01*
X0556404Y0122379D01*
X0556168Y0122574D01*
X0555929Y0122762D01*
X0555684Y0122945D01*
X0555435Y0123122D01*
X0555182Y0123292D01*
X0554925Y0123457D01*
X0554664Y0123615D01*
X0554399Y0123766D01*
X0554131Y0123911D01*
X0553859Y0124050D01*
X0553584Y0124182D01*
X0553305Y0124307D01*
X0553024Y0124425D01*
X0552740Y0124536D01*
X0552453Y0124640D01*
X0552164Y0124738D01*
X0551872Y0124828D01*
X0551579Y0124911D01*
X0551283Y0124986D01*
X0550986Y0125055D01*
X0550687Y0125116D01*
X0550386Y0125170D01*
X0550085Y0125216D01*
X0549782Y0125256D01*
X0549479Y0125287D01*
X0549174Y0125312D01*
X0548870Y0125328D01*
X0548565Y0125338D01*
X0548260Y0125340D01*
X0547955Y0125334D01*
X0547650Y0125321D01*
X0547345Y0125301D01*
X0547041Y0125273D01*
X0546738Y0125238D01*
X0546436Y0125195D01*
X0546135Y0125145D01*
X0545835Y0125088D01*
X0545537Y0125023D01*
X0545241Y0124951D01*
X0544946Y0124872D01*
X0544653Y0124785D01*
X0544363Y0124692D01*
X0544075Y0124591D01*
X0543789Y0124483D01*
X0543506Y0124369D01*
X0543226Y0124247D01*
X0542949Y0124119D01*
X0542676Y0123984D01*
X0542406Y0123843D01*
X0542139Y0123694D01*
X0541876Y0123540D01*
X0541617Y0123379D01*
X0541361Y0123211D01*
X0541110Y0123038D01*
X0540864Y0122858D01*
X0540622Y0122672D01*
X0540384Y0122481D01*
X0540151Y0122284D01*
X0539923Y0122081D01*
X0539700Y0121872D01*
X0539482Y0121659D01*
X0539270Y0121440D01*
X0539063Y0121216D01*
X0538861Y0120986D01*
X0538665Y0120752D01*
X0538475Y0120514D01*
X0538291Y0120270D01*
X0538113Y0120023D01*
X0537941Y0119771D01*
X0537775Y0119514D01*
X0537616Y0119254D01*
X0537462Y0118990D01*
X0537316Y0118723D01*
X0537176Y0118452D01*
X0537042Y0118177D01*
X0536916Y0117900D01*
X0536796Y0117619D01*
X0536683Y0117335D01*
X0536577Y0117049D01*
X0536478Y0116761D01*
X0536386Y0116470D01*
X0536302Y0116176D01*
X0536224Y0115881D01*
X0536154Y0115584D01*
X0536091Y0115286D01*
X0536035Y0114986D01*
X0535987Y0114684D01*
X0535946Y0114382D01*
X0535913Y0114079D01*
X0535887Y0113775D01*
X0535868Y0113470D01*
X0535857Y0113165D01*
X0535853Y0112860D01*
X0535857Y0112555D01*
X0535868Y0112250D01*
X0535887Y0111945D01*
X0535913Y0111641D01*
X0535946Y0111338D01*
X0535987Y0111036D01*
X0536035Y0110734D01*
X0536091Y0110434D01*
X0536154Y0110136D01*
X0536224Y0109839D01*
X0536302Y0109544D01*
X0536386Y0109250D01*
X0536478Y0108959D01*
X0536577Y0108671D01*
X0536683Y0108385D01*
X0536796Y0108101D01*
X0536916Y0107820D01*
X0537042Y0107543D01*
X0537176Y0107268D01*
X0537316Y0106997D01*
X0537462Y0106730D01*
X0537616Y0106466D01*
X0537775Y0106206D01*
X0537941Y0105949D01*
X0538113Y0105697D01*
X0538291Y0105450D01*
X0538475Y0105206D01*
X0538665Y0104968D01*
X0538861Y0104734D01*
X0539063Y0104504D01*
X0539270Y0104280D01*
X0539482Y0104061D01*
X0539700Y0103848D01*
X0539923Y0103639D01*
X0540151Y0103436D01*
X0540384Y0103239D01*
X0540622Y0103048D01*
X0540864Y0102862D01*
X0541110Y0102682D01*
X0541361Y0102509D01*
X0541617Y0102341D01*
X0541876Y0102180D01*
X0542139Y0102026D01*
X0542406Y0101877D01*
X0542676Y0101736D01*
X0542949Y0101601D01*
X0543226Y0101473D01*
X0543506Y0101351D01*
X0543789Y0101237D01*
X0544075Y0101129D01*
X0544363Y0101028D01*
X0544653Y0100935D01*
X0544946Y0100848D01*
X0545241Y0100769D01*
X0545537Y0100697D01*
X0545835Y0100632D01*
X0546135Y0100575D01*
X0546436Y0100525D01*
X0546738Y0100482D01*
X0547041Y0100447D01*
X0547345Y0100419D01*
X0547650Y0100399D01*
X0547955Y0100386D01*
X0548260Y0100380D01*
X0548565Y0100382D01*
X0548870Y0100392D01*
X0549174Y0100408D01*
X0549479Y0100433D01*
X0549782Y0100464D01*
X0550085Y0100504D01*
X0550386Y0100550D01*
X0550687Y0100604D01*
X0550986Y0100665D01*
X0551283Y0100734D01*
X0551579Y0100809D01*
X0551872Y0100892D01*
X0552164Y0100982D01*
X0552453Y0101080D01*
X0552740Y0101184D01*
X0553024Y0101295D01*
X0553305Y0101413D01*
X0553584Y0101538D01*
X0553859Y0101670D01*
X0554131Y0101809D01*
X0554399Y0101954D01*
X0554664Y0102105D01*
X0554925Y0102263D01*
X0555182Y0102428D01*
X0555435Y0102598D01*
X0555684Y0102775D01*
X0555929Y0102958D01*
X0556168Y0103146D01*
X0556404Y0103341D01*
X0556634Y0103541D01*
X0556859Y0103747D01*
X0557080Y0103958D01*
X0557295Y0104174D01*
X0557504Y0104396D01*
X0557708Y0104623D01*
X0557907Y0104854D01*
X0558100Y0105091D01*
X0558287Y0105332D01*
X0558212Y0105388D01*
X0558026Y0105149D01*
X0557835Y0104914D01*
X0557638Y0104685D01*
X0557435Y0104460D01*
X0557227Y0104239D01*
X0557013Y0104025D01*
X0556795Y0103815D01*
X0556571Y0103611D01*
X0556343Y0103412D01*
X0556109Y0103219D01*
X0555871Y0103032D01*
X0555629Y0102851D01*
X0555382Y0102675D01*
X0555131Y0102506D01*
X0554875Y0102343D01*
X0554616Y0102186D01*
X0554353Y0102036D01*
X0554087Y0101892D01*
X0553817Y0101754D01*
X0553544Y0101623D01*
X0553268Y0101499D01*
X0552988Y0101382D01*
X0552706Y0101272D01*
X0552422Y0101168D01*
X0552135Y0101072D01*
X0551845Y0100982D01*
X0551554Y0100900D01*
X0551261Y0100825D01*
X0550965Y0100757D01*
X0550669Y0100696D01*
X0550371Y0100643D01*
X0550071Y0100597D01*
X0549771Y0100558D01*
X0549470Y0100526D01*
X0549168Y0100502D01*
X0548865Y0100485D01*
X0548563Y0100476D01*
X0548260Y0100474D01*
X0547957Y0100480D01*
X0547655Y0100493D01*
X0547352Y0100513D01*
X0547051Y0100541D01*
X0546750Y0100576D01*
X0546450Y0100618D01*
X0546151Y0100668D01*
X0545854Y0100725D01*
X0545558Y0100789D01*
X0545264Y0100860D01*
X0544971Y0100939D01*
X0544681Y0101025D01*
X0544392Y0101118D01*
X0544107Y0101217D01*
X0543823Y0101324D01*
X0543543Y0101438D01*
X0543265Y0101558D01*
X0542990Y0101686D01*
X0542718Y0101820D01*
X0542450Y0101960D01*
X0542185Y0102107D01*
X0541924Y0102261D01*
X0541667Y0102421D01*
X0541414Y0102587D01*
X0541165Y0102759D01*
X0540920Y0102937D01*
X0540679Y0103122D01*
X0540444Y0103312D01*
X0540213Y0103507D01*
X0539986Y0103709D01*
X0539765Y0103915D01*
X0539549Y0104128D01*
X0539338Y0104345D01*
X0539133Y0104567D01*
X0538933Y0104795D01*
X0538738Y0105027D01*
X0538550Y0105264D01*
X0538367Y0105506D01*
X0538190Y0105751D01*
X0538019Y0106002D01*
X0537855Y0106256D01*
X0537696Y0106514D01*
X0537544Y0106776D01*
X0537399Y0107041D01*
X0537260Y0107310D01*
X0537127Y0107583D01*
X0537002Y0107858D01*
X0536883Y0108137D01*
X0536771Y0108418D01*
X0536666Y0108702D01*
X0536567Y0108989D01*
X0536476Y0109278D01*
X0536392Y0109569D01*
X0536315Y0109862D01*
X0536246Y0110156D01*
X0536183Y0110453D01*
X0536128Y0110750D01*
X0536080Y0111049D01*
X0536039Y0111349D01*
X0536006Y0111651D01*
X0535980Y0111952D01*
X0535962Y0112255D01*
X0535951Y0112557D01*
X0535947Y0112860D01*
X0535951Y0113163D01*
X0535962Y0113465D01*
X0535980Y0113768D01*
X0536006Y0114069D01*
X0536039Y0114371D01*
X0536080Y0114671D01*
X0536128Y0114970D01*
X0536183Y0115267D01*
X0536246Y0115564D01*
X0536315Y0115858D01*
X0536392Y0116151D01*
X0536476Y0116442D01*
X0536567Y0116731D01*
X0536666Y0117018D01*
X0536771Y0117302D01*
X0536883Y0117583D01*
X0537002Y0117862D01*
X0537127Y0118137D01*
X0537260Y0118410D01*
X0537399Y0118679D01*
X0537544Y0118944D01*
X0537696Y0119206D01*
X0537855Y0119464D01*
X0538019Y0119718D01*
X0538190Y0119969D01*
X0538367Y0120214D01*
X0538550Y0120456D01*
X0538738Y0120693D01*
X0538933Y0120925D01*
X0539133Y0121153D01*
X0539338Y0121375D01*
X0539549Y0121592D01*
X0539765Y0121805D01*
X0539986Y0122011D01*
X0540213Y0122213D01*
X0540444Y0122408D01*
X0540679Y0122598D01*
X0540920Y0122783D01*
X0541165Y0122961D01*
X0541414Y0123133D01*
X0541667Y0123299D01*
X0541924Y0123459D01*
X0542185Y0123613D01*
X0542450Y0123760D01*
X0542718Y0123900D01*
X0542990Y0124034D01*
X0543265Y0124162D01*
X0543543Y0124282D01*
X0543823Y0124396D01*
X0544107Y0124503D01*
X0544392Y0124602D01*
X0544681Y0124695D01*
X0544971Y0124781D01*
X0545264Y0124860D01*
X0545558Y0124931D01*
X0545854Y0124995D01*
X0546151Y0125052D01*
X0546450Y0125102D01*
X0546750Y0125144D01*
X0547051Y0125179D01*
X0547352Y0125207D01*
X0547655Y0125227D01*
X0547957Y0125240D01*
X0548260Y0125246D01*
X0548563Y0125244D01*
X0548865Y0125235D01*
X0549168Y0125218D01*
X0549470Y0125194D01*
X0549771Y0125162D01*
X0550071Y0125123D01*
X0550371Y0125077D01*
X0550669Y0125024D01*
X0550965Y0124963D01*
X0551261Y0124895D01*
X0551554Y0124820D01*
X0551845Y0124738D01*
X0552135Y0124648D01*
X0552422Y0124552D01*
X0552706Y0124448D01*
X0552988Y0124338D01*
X0553268Y0124221D01*
X0553544Y0124097D01*
X0553817Y0123966D01*
X0554087Y0123828D01*
X0554353Y0123684D01*
X0554616Y0123534D01*
X0554875Y0123377D01*
X0555131Y0123214D01*
X0555382Y0123045D01*
X0555629Y0122869D01*
X0555871Y0122688D01*
X0556109Y0122501D01*
X0556343Y0122308D01*
X0556571Y0122109D01*
X0556795Y0121905D01*
X0557013Y0121695D01*
X0557227Y0121481D01*
X0557435Y0121260D01*
X0557638Y0121035D01*
X0557835Y0120806D01*
X0558026Y0120571D01*
X0558212Y0120332D01*
X0558137Y0120275D01*
X0557952Y0120513D01*
X0557762Y0120745D01*
X0557567Y0120974D01*
X0557366Y0121197D01*
X0557159Y0121415D01*
X0556947Y0121629D01*
X0556730Y0121837D01*
X0556508Y0122039D01*
X0556281Y0122236D01*
X0556050Y0122428D01*
X0555814Y0122614D01*
X0555573Y0122794D01*
X0555328Y0122968D01*
X0555079Y0123136D01*
X0554825Y0123298D01*
X0554568Y0123453D01*
X0554307Y0123602D01*
X0554043Y0123745D01*
X0553775Y0123882D01*
X0553504Y0124011D01*
X0553230Y0124134D01*
X0552953Y0124251D01*
X0552673Y0124360D01*
X0552390Y0124463D01*
X0552106Y0124559D01*
X0551818Y0124647D01*
X0551529Y0124729D01*
X0551238Y0124804D01*
X0550945Y0124871D01*
X0550651Y0124932D01*
X0550355Y0124985D01*
X0550058Y0125030D01*
X0549760Y0125069D01*
X0549461Y0125100D01*
X0549161Y0125124D01*
X0548861Y0125141D01*
X0548561Y0125150D01*
X0548260Y0125152D01*
X0547960Y0125146D01*
X0547659Y0125134D01*
X0547360Y0125113D01*
X0547060Y0125086D01*
X0546762Y0125051D01*
X0546464Y0125009D01*
X0546168Y0124960D01*
X0545873Y0124903D01*
X0545579Y0124839D01*
X0545287Y0124769D01*
X0544997Y0124691D01*
X0544708Y0124605D01*
X0544422Y0124513D01*
X0544138Y0124414D01*
X0543857Y0124308D01*
X0543579Y0124195D01*
X0543303Y0124076D01*
X0543030Y0123949D01*
X0542761Y0123816D01*
X0542495Y0123677D01*
X0542232Y0123531D01*
X0541973Y0123379D01*
X0541717Y0123220D01*
X0541466Y0123055D01*
X0541219Y0122884D01*
X0540976Y0122707D01*
X0540737Y0122524D01*
X0540503Y0122336D01*
X0540274Y0122142D01*
X0540050Y0121942D01*
X0539830Y0121737D01*
X0539616Y0121526D01*
X0539406Y0121310D01*
X0539202Y0121090D01*
X0539004Y0120864D01*
X0538811Y0120633D01*
X0538624Y0120398D01*
X0538442Y0120159D01*
X0538267Y0119915D01*
X0538097Y0119666D01*
X0537934Y0119414D01*
X0537777Y0119158D01*
X0537626Y0118898D01*
X0537482Y0118634D01*
X0537344Y0118367D01*
X0537212Y0118097D01*
X0537088Y0117824D01*
X0536970Y0117547D01*
X0536859Y0117268D01*
X0536754Y0116986D01*
X0536657Y0116702D01*
X0536566Y0116415D01*
X0536483Y0116126D01*
X0536407Y0115836D01*
X0536337Y0115543D01*
X0536275Y0115249D01*
X0536221Y0114954D01*
X0536173Y0114657D01*
X0536133Y0114359D01*
X0536100Y0114060D01*
X0536074Y0113761D01*
X0536056Y0113461D01*
X0536045Y0113161D01*
X0536041Y0112860D01*
X0536045Y0112559D01*
X0536056Y0112259D01*
X0536074Y0111959D01*
X0536100Y0111660D01*
X0536133Y0111361D01*
X0536173Y0111063D01*
X0536221Y0110766D01*
X0536275Y0110471D01*
X0536337Y0110177D01*
X0536407Y0109884D01*
X0536483Y0109594D01*
X0536566Y0109305D01*
X0536657Y0109018D01*
X0536754Y0108734D01*
X0536859Y0108452D01*
X0536970Y0108173D01*
X0537088Y0107896D01*
X0537212Y0107623D01*
X0537344Y0107353D01*
X0537482Y0107086D01*
X0537626Y0106822D01*
X0537777Y0106562D01*
X0537934Y0106306D01*
X0538097Y0106054D01*
X0538267Y0105805D01*
X0538442Y0105561D01*
X0538624Y0105322D01*
X0538811Y0105087D01*
X0539004Y0104856D01*
X0539202Y0104630D01*
X0539406Y0104410D01*
X0539616Y0104194D01*
X0539830Y0103983D01*
X0540050Y0103778D01*
X0540274Y0103578D01*
X0540503Y0103384D01*
X0540737Y0103196D01*
X0540976Y0103013D01*
X0541219Y0102836D01*
X0541466Y0102665D01*
X0541717Y0102500D01*
X0541973Y0102341D01*
X0542232Y0102189D01*
X0542495Y0102043D01*
X0542761Y0101904D01*
X0543030Y0101771D01*
X0543303Y0101644D01*
X0543579Y0101525D01*
X0543857Y0101412D01*
X0544138Y0101306D01*
X0544422Y0101207D01*
X0544708Y0101115D01*
X0544997Y0101029D01*
X0545287Y0100951D01*
X0545579Y0100881D01*
X0545873Y0100817D01*
X0546168Y0100760D01*
X0546464Y0100711D01*
X0546762Y0100669D01*
X0547060Y0100634D01*
X0547360Y0100607D01*
X0547659Y0100586D01*
X0547960Y0100574D01*
X0548260Y0100568D01*
X0548561Y0100570D01*
X0548861Y0100579D01*
X0549161Y0100596D01*
X0549461Y0100620D01*
X0549760Y0100651D01*
X0550058Y0100690D01*
X0550355Y0100735D01*
X0550651Y0100788D01*
X0550945Y0100849D01*
X0551238Y0100916D01*
X0551529Y0100991D01*
X0551818Y0101073D01*
X0552106Y0101161D01*
X0552390Y0101257D01*
X0552673Y0101360D01*
X0552953Y0101469D01*
X0553230Y0101586D01*
X0553504Y0101709D01*
X0553775Y0101838D01*
X0554043Y0101975D01*
X0554307Y0102118D01*
X0554568Y0102267D01*
X0554825Y0102422D01*
X0555079Y0102584D01*
X0555328Y0102752D01*
X0555573Y0102926D01*
X0555814Y0103106D01*
X0556050Y0103292D01*
X0556281Y0103484D01*
X0556508Y0103681D01*
X0556730Y0103883D01*
X0556947Y0104091D01*
X0557159Y0104305D01*
X0557366Y0104523D01*
X0557567Y0104746D01*
X0557762Y0104975D01*
X0557952Y0105207D01*
X0558137Y0105445D01*
X0558061Y0105501D01*
X0557879Y0105266D01*
X0557690Y0105035D01*
X0557496Y0104808D01*
X0557296Y0104586D01*
X0557091Y0104370D01*
X0556881Y0104158D01*
X0556666Y0103952D01*
X0556446Y0103751D01*
X0556220Y0103555D01*
X0555991Y0103365D01*
X0555756Y0103181D01*
X0555517Y0103002D01*
X0555274Y0102829D01*
X0555027Y0102663D01*
X0554775Y0102502D01*
X0554520Y0102348D01*
X0554261Y0102200D01*
X0553999Y0102058D01*
X0553733Y0101923D01*
X0553464Y0101794D01*
X0553192Y0101672D01*
X0552917Y0101556D01*
X0552639Y0101447D01*
X0552359Y0101346D01*
X0552076Y0101251D01*
X0551791Y0101163D01*
X0551504Y0101082D01*
X0551216Y0101007D01*
X0550925Y0100941D01*
X0550633Y0100881D01*
X0550339Y0100828D01*
X0550044Y0100783D01*
X0549749Y0100744D01*
X0549452Y0100713D01*
X0549155Y0100690D01*
X0548857Y0100673D01*
X0548559Y0100664D01*
X0548261Y0100662D01*
X0547962Y0100668D01*
X0547664Y0100680D01*
X0547367Y0100700D01*
X0547070Y0100728D01*
X0546774Y0100762D01*
X0546478Y0100804D01*
X0546184Y0100853D01*
X0545891Y0100909D01*
X0545600Y0100972D01*
X0545310Y0101043D01*
X0545022Y0101120D01*
X0544736Y0101204D01*
X0544452Y0101296D01*
X0544170Y0101394D01*
X0543891Y0101499D01*
X0543615Y0101611D01*
X0543341Y0101730D01*
X0543071Y0101855D01*
X0542803Y0101987D01*
X0542539Y0102126D01*
X0542278Y0102271D01*
X0542021Y0102422D01*
X0541768Y0102579D01*
X0541519Y0102743D01*
X0541273Y0102913D01*
X0541032Y0103088D01*
X0540795Y0103270D01*
X0540563Y0103457D01*
X0540336Y0103649D01*
X0540113Y0103848D01*
X0539895Y0104051D01*
X0539682Y0104260D01*
X0539474Y0104474D01*
X0539272Y0104694D01*
X0539075Y0104917D01*
X0538884Y0105146D01*
X0538698Y0105380D01*
X0538518Y0105617D01*
X0538344Y0105859D01*
X0538176Y0106106D01*
X0538014Y0106356D01*
X0537858Y0106610D01*
X0537708Y0106868D01*
X0537565Y0107130D01*
X0537428Y0107395D01*
X0537297Y0107663D01*
X0537174Y0107934D01*
X0537057Y0108209D01*
X0536946Y0108486D01*
X0536843Y0108766D01*
X0536746Y0109048D01*
X0536656Y0109332D01*
X0536574Y0109619D01*
X0536498Y0109907D01*
X0536429Y0110197D01*
X0536368Y0110489D01*
X0536313Y0110782D01*
X0536266Y0111077D01*
X0536226Y0111372D01*
X0536193Y0111669D01*
X0536168Y0111966D01*
X0536150Y0112264D01*
X0536139Y0112562D01*
X0536135Y0112860D01*
X0536139Y0113158D01*
X0536150Y0113456D01*
X0536168Y0113754D01*
X0536193Y0114051D01*
X0536226Y0114348D01*
X0536266Y0114643D01*
X0536313Y0114938D01*
X0536368Y0115231D01*
X0536429Y0115523D01*
X0536498Y0115813D01*
X0536574Y0116101D01*
X0536656Y0116388D01*
X0536746Y0116672D01*
X0536843Y0116954D01*
X0536946Y0117234D01*
X0537057Y0117511D01*
X0537174Y0117786D01*
X0537297Y0118057D01*
X0537428Y0118325D01*
X0537565Y0118590D01*
X0537708Y0118852D01*
X0537858Y0119110D01*
X0538014Y0119364D01*
X0538176Y0119614D01*
X0538344Y0119861D01*
X0538518Y0120103D01*
X0538698Y0120340D01*
X0538884Y0120574D01*
X0539075Y0120803D01*
X0539272Y0121026D01*
X0539474Y0121246D01*
X0539682Y0121460D01*
X0539895Y0121669D01*
X0540113Y0121872D01*
X0540336Y0122071D01*
X0540563Y0122263D01*
X0540795Y0122450D01*
X0541032Y0122632D01*
X0541273Y0122807D01*
X0541519Y0122977D01*
X0541768Y0123141D01*
X0542021Y0123298D01*
X0542278Y0123449D01*
X0542539Y0123594D01*
X0542803Y0123733D01*
X0543071Y0123865D01*
X0543341Y0123990D01*
X0543615Y0124109D01*
X0543891Y0124221D01*
X0544170Y0124326D01*
X0544452Y0124424D01*
X0544736Y0124516D01*
X0545022Y0124600D01*
X0545310Y0124677D01*
X0545600Y0124748D01*
X0545891Y0124811D01*
X0546184Y0124867D01*
X0546478Y0124916D01*
X0546774Y0124958D01*
X0547070Y0124992D01*
X0547367Y0125020D01*
X0547664Y0125040D01*
X0547962Y0125052D01*
X0548261Y0125058D01*
X0548559Y0125056D01*
X0548857Y0125047D01*
X0549155Y0125030D01*
X0549452Y0125007D01*
X0549749Y0124976D01*
X0550044Y0124937D01*
X0550339Y0124892D01*
X0550633Y0124839D01*
X0550925Y0124779D01*
X0551216Y0124713D01*
X0551504Y0124638D01*
X0551791Y0124557D01*
X0552076Y0124469D01*
X0552359Y0124374D01*
X0552639Y0124273D01*
X0552917Y0124164D01*
X0553192Y0124048D01*
X0553464Y0123926D01*
X0553733Y0123797D01*
X0553999Y0123662D01*
X0554261Y0123520D01*
X0554520Y0123372D01*
X0554775Y0123218D01*
X0555027Y0123057D01*
X0555274Y0122891D01*
X0555517Y0122718D01*
X0555756Y0122539D01*
X0555991Y0122355D01*
X0556220Y0122165D01*
X0556446Y0121969D01*
X0556666Y0121768D01*
X0556881Y0121562D01*
X0557091Y0121350D01*
X0557296Y0121134D01*
X0557496Y0120912D01*
X0557690Y0120685D01*
X0557879Y0120454D01*
X0558061Y0120219D01*
X0557986Y0120162D01*
X0557805Y0120396D01*
X0557618Y0120625D01*
X0557425Y0120850D01*
X0557227Y0121070D01*
X0557024Y0121285D01*
X0556815Y0121495D01*
X0556601Y0121700D01*
X0556383Y0121899D01*
X0556159Y0122093D01*
X0555931Y0122282D01*
X0555699Y0122465D01*
X0555462Y0122642D01*
X0555220Y0122813D01*
X0554975Y0122979D01*
X0554726Y0123138D01*
X0554472Y0123291D01*
X0554216Y0123438D01*
X0553955Y0123579D01*
X0553691Y0123713D01*
X0553424Y0123841D01*
X0553154Y0123962D01*
X0552882Y0124077D01*
X0552606Y0124185D01*
X0552328Y0124286D01*
X0552047Y0124380D01*
X0551765Y0124467D01*
X0551480Y0124548D01*
X0551193Y0124621D01*
X0550905Y0124688D01*
X0550615Y0124747D01*
X0550323Y0124799D01*
X0550031Y0124844D01*
X0549737Y0124882D01*
X0549443Y0124913D01*
X0549148Y0124937D01*
X0548853Y0124953D01*
X0548557Y0124962D01*
X0548261Y0124964D01*
X0547965Y0124958D01*
X0547669Y0124946D01*
X0547374Y0124926D01*
X0547079Y0124899D01*
X0546785Y0124865D01*
X0546492Y0124823D01*
X0546200Y0124775D01*
X0545910Y0124719D01*
X0545621Y0124656D01*
X0545333Y0124586D01*
X0545047Y0124509D01*
X0544763Y0124426D01*
X0544482Y0124335D01*
X0544202Y0124237D01*
X0543925Y0124133D01*
X0543651Y0124022D01*
X0543380Y0123904D01*
X0543111Y0123780D01*
X0542846Y0123649D01*
X0542584Y0123511D01*
X0542325Y0123368D01*
X0542070Y0123218D01*
X0541818Y0123061D01*
X0541571Y0122899D01*
X0541328Y0122731D01*
X0541088Y0122556D01*
X0540853Y0122376D01*
X0540623Y0122191D01*
X0540397Y0121999D01*
X0540176Y0121803D01*
X0539960Y0121601D01*
X0539749Y0121393D01*
X0539543Y0121181D01*
X0539342Y0120963D01*
X0539146Y0120741D01*
X0538956Y0120514D01*
X0538772Y0120283D01*
X0538594Y0120047D01*
X0538421Y0119807D01*
X0538254Y0119562D01*
X0538093Y0119314D01*
X0537938Y0119061D01*
X0537790Y0118805D01*
X0537648Y0118546D01*
X0537512Y0118283D01*
X0537382Y0118017D01*
X0537260Y0117748D01*
X0537143Y0117475D01*
X0537034Y0117200D01*
X0536931Y0116923D01*
X0536835Y0116643D01*
X0536746Y0116361D01*
X0536664Y0116076D01*
X0536589Y0115790D01*
X0536521Y0115502D01*
X0536460Y0115213D01*
X0536406Y0114922D01*
X0536359Y0114629D01*
X0536319Y0114336D01*
X0536287Y0114042D01*
X0536262Y0113747D01*
X0536243Y0113452D01*
X0536233Y0113156D01*
X0536229Y0112860D01*
X0536233Y0112564D01*
X0536243Y0112268D01*
X0536262Y0111973D01*
X0536287Y0111678D01*
X0536319Y0111384D01*
X0536359Y0111091D01*
X0536406Y0110798D01*
X0536460Y0110507D01*
X0536521Y0110218D01*
X0536589Y0109930D01*
X0536664Y0109644D01*
X0536746Y0109359D01*
X0536835Y0109077D01*
X0536931Y0108797D01*
X0537034Y0108520D01*
X0537143Y0108245D01*
X0537260Y0107972D01*
X0537382Y0107703D01*
X0537512Y0107437D01*
X0537648Y0107174D01*
X0537790Y0106915D01*
X0537938Y0106659D01*
X0538093Y0106406D01*
X0538254Y0106158D01*
X0538421Y0105913D01*
X0538594Y0105673D01*
X0538772Y0105437D01*
X0538956Y0105206D01*
X0539146Y0104979D01*
X0539342Y0104757D01*
X0539543Y0104539D01*
X0539749Y0104327D01*
X0539960Y0104119D01*
X0540176Y0103917D01*
X0540397Y0103721D01*
X0540623Y0103529D01*
X0540853Y0103344D01*
X0541088Y0103164D01*
X0541328Y0102989D01*
X0541571Y0102821D01*
X0541818Y0102659D01*
X0542070Y0102502D01*
X0542325Y0102352D01*
X0542584Y0102209D01*
X0542846Y0102071D01*
X0543111Y0101940D01*
X0543380Y0101816D01*
X0543651Y0101698D01*
X0543925Y0101587D01*
X0544202Y0101483D01*
X0544482Y0101385D01*
X0544763Y0101294D01*
X0545047Y0101211D01*
X0545333Y0101134D01*
X0545621Y0101064D01*
X0545910Y0101001D01*
X0546200Y0100945D01*
X0546492Y0100897D01*
X0546785Y0100855D01*
X0547079Y0100821D01*
X0547374Y0100794D01*
X0547669Y0100774D01*
X0547965Y0100762D01*
X0548261Y0100756D01*
X0548557Y0100758D01*
X0548853Y0100767D01*
X0549148Y0100783D01*
X0549443Y0100807D01*
X0549737Y0100838D01*
X0550031Y0100876D01*
X0550323Y0100921D01*
X0550615Y0100973D01*
X0550905Y0101032D01*
X0551193Y0101099D01*
X0551480Y0101172D01*
X0551765Y0101253D01*
X0552047Y0101340D01*
X0552328Y0101434D01*
X0552606Y0101535D01*
X0552882Y0101643D01*
X0553154Y0101758D01*
X0553424Y0101879D01*
X0553691Y0102007D01*
X0553955Y0102141D01*
X0554216Y0102282D01*
X0554472Y0102429D01*
X0554726Y0102582D01*
X0554975Y0102741D01*
X0555220Y0102907D01*
X0555462Y0103078D01*
X0555699Y0103255D01*
X0555931Y0103438D01*
X0556159Y0103627D01*
X0556383Y0103821D01*
X0556601Y0104020D01*
X0556815Y0104225D01*
X0557024Y0104435D01*
X0557227Y0104650D01*
X0557425Y0104870D01*
X0557618Y0105095D01*
X0557805Y0105324D01*
X0557986Y0105558D01*
X0558662Y0080669D02*
X0557942Y0080129D01*
X0557943Y0080130D02*
X0557762Y0080363D01*
X0557576Y0080591D01*
X0557384Y0080815D01*
X0557187Y0081034D01*
X0556985Y0081248D01*
X0556777Y0081457D01*
X0556564Y0081660D01*
X0556347Y0081859D01*
X0556124Y0082052D01*
X0555897Y0082240D01*
X0555666Y0082422D01*
X0555430Y0082599D01*
X0555189Y0082769D01*
X0554945Y0082934D01*
X0554697Y0083092D01*
X0554445Y0083245D01*
X0554189Y0083391D01*
X0553930Y0083531D01*
X0553667Y0083665D01*
X0553402Y0083792D01*
X0553133Y0083913D01*
X0552861Y0084027D01*
X0552587Y0084134D01*
X0552310Y0084235D01*
X0552031Y0084329D01*
X0551749Y0084416D01*
X0551466Y0084496D01*
X0551180Y0084569D01*
X0550893Y0084635D01*
X0550604Y0084694D01*
X0550314Y0084746D01*
X0550023Y0084791D01*
X0549731Y0084829D01*
X0549438Y0084859D01*
X0549144Y0084883D01*
X0548850Y0084899D01*
X0548556Y0084908D01*
X0548261Y0084910D01*
X0547966Y0084904D01*
X0547672Y0084892D01*
X0547378Y0084872D01*
X0547085Y0084845D01*
X0546792Y0084811D01*
X0546500Y0084770D01*
X0546210Y0084721D01*
X0545920Y0084666D01*
X0545633Y0084604D01*
X0545346Y0084534D01*
X0545062Y0084457D01*
X0544779Y0084374D01*
X0544499Y0084284D01*
X0544221Y0084187D01*
X0543945Y0084083D01*
X0543672Y0083972D01*
X0543402Y0083855D01*
X0543134Y0083731D01*
X0542870Y0083601D01*
X0542609Y0083464D01*
X0542352Y0083321D01*
X0542098Y0083171D01*
X0541847Y0083016D01*
X0541601Y0082854D01*
X0541359Y0082687D01*
X0541121Y0082513D01*
X0540887Y0082334D01*
X0540657Y0082149D01*
X0540433Y0081959D01*
X0540212Y0081763D01*
X0539997Y0081562D01*
X0539787Y0081355D01*
X0539582Y0081144D01*
X0539382Y0080927D01*
X0539187Y0080706D01*
X0538998Y0080480D01*
X0538815Y0080250D01*
X0538637Y0080015D01*
X0538465Y0079775D01*
X0538299Y0079532D01*
X0538139Y0079285D01*
X0537985Y0079034D01*
X0537837Y0078779D01*
X0537695Y0078520D01*
X0537560Y0078259D01*
X0537431Y0077994D01*
X0537309Y0077726D01*
X0537193Y0077455D01*
X0537084Y0077181D01*
X0536982Y0076905D01*
X0536887Y0076626D01*
X0536798Y0076345D01*
X0536716Y0076062D01*
X0536641Y0075777D01*
X0536574Y0075490D01*
X0536513Y0075202D01*
X0536459Y0074912D01*
X0536412Y0074621D01*
X0536373Y0074329D01*
X0536341Y0074037D01*
X0536315Y0073743D01*
X0536297Y0073449D01*
X0536287Y0073155D01*
X0536283Y0072860D01*
X0536287Y0072565D01*
X0536297Y0072271D01*
X0536315Y0071977D01*
X0536341Y0071683D01*
X0536373Y0071391D01*
X0536412Y0071099D01*
X0536459Y0070808D01*
X0536513Y0070518D01*
X0536574Y0070230D01*
X0536641Y0069943D01*
X0536716Y0069658D01*
X0536798Y0069375D01*
X0536887Y0069094D01*
X0536982Y0068815D01*
X0537084Y0068539D01*
X0537193Y0068265D01*
X0537309Y0067994D01*
X0537431Y0067726D01*
X0537560Y0067461D01*
X0537695Y0067200D01*
X0537837Y0066941D01*
X0537985Y0066686D01*
X0538139Y0066435D01*
X0538299Y0066188D01*
X0538465Y0065945D01*
X0538637Y0065705D01*
X0538815Y0065470D01*
X0538998Y0065240D01*
X0539187Y0065014D01*
X0539382Y0064793D01*
X0539582Y0064576D01*
X0539787Y0064365D01*
X0539997Y0064158D01*
X0540212Y0063957D01*
X0540433Y0063761D01*
X0540657Y0063571D01*
X0540887Y0063386D01*
X0541121Y0063207D01*
X0541359Y0063033D01*
X0541601Y0062866D01*
X0541847Y0062704D01*
X0542098Y0062549D01*
X0542352Y0062399D01*
X0542609Y0062256D01*
X0542870Y0062119D01*
X0543134Y0061989D01*
X0543402Y0061865D01*
X0543672Y0061748D01*
X0543945Y0061637D01*
X0544221Y0061533D01*
X0544499Y0061436D01*
X0544779Y0061346D01*
X0545062Y0061263D01*
X0545346Y0061186D01*
X0545633Y0061116D01*
X0545920Y0061054D01*
X0546210Y0060999D01*
X0546500Y0060950D01*
X0546792Y0060909D01*
X0547085Y0060875D01*
X0547378Y0060848D01*
X0547672Y0060828D01*
X0547966Y0060816D01*
X0548261Y0060810D01*
X0548556Y0060812D01*
X0548850Y0060821D01*
X0549144Y0060837D01*
X0549438Y0060861D01*
X0549731Y0060891D01*
X0550023Y0060929D01*
X0550314Y0060974D01*
X0550604Y0061026D01*
X0550893Y0061085D01*
X0551180Y0061151D01*
X0551466Y0061224D01*
X0551749Y0061304D01*
X0552031Y0061391D01*
X0552310Y0061485D01*
X0552587Y0061586D01*
X0552861Y0061693D01*
X0553133Y0061807D01*
X0553402Y0061928D01*
X0553667Y0062055D01*
X0553930Y0062189D01*
X0554189Y0062329D01*
X0554445Y0062475D01*
X0554697Y0062628D01*
X0554945Y0062786D01*
X0555189Y0062951D01*
X0555430Y0063121D01*
X0555666Y0063298D01*
X0555897Y0063480D01*
X0556124Y0063668D01*
X0556347Y0063861D01*
X0556564Y0064060D01*
X0556777Y0064263D01*
X0556985Y0064472D01*
X0557187Y0064686D01*
X0557384Y0064905D01*
X0557576Y0065129D01*
X0557762Y0065357D01*
X0557943Y0065590D01*
X0558662Y0065051D01*
X0558663Y0065050D01*
X0558469Y0064800D01*
X0558269Y0064554D01*
X0558063Y0064314D01*
X0557851Y0064079D01*
X0557633Y0063849D01*
X0557410Y0063624D01*
X0557182Y0063405D01*
X0556948Y0063191D01*
X0556709Y0062983D01*
X0556465Y0062781D01*
X0556216Y0062586D01*
X0555962Y0062396D01*
X0555704Y0062213D01*
X0555442Y0062036D01*
X0555175Y0061865D01*
X0554904Y0061701D01*
X0554629Y0061544D01*
X0554351Y0061393D01*
X0554068Y0061249D01*
X0553783Y0061113D01*
X0553494Y0060983D01*
X0553202Y0060860D01*
X0552907Y0060745D01*
X0552610Y0060637D01*
X0552309Y0060536D01*
X0552007Y0060442D01*
X0551702Y0060356D01*
X0551395Y0060277D01*
X0551087Y0060206D01*
X0550777Y0060143D01*
X0550465Y0060087D01*
X0550152Y0060038D01*
X0549838Y0059998D01*
X0549523Y0059965D01*
X0549207Y0059940D01*
X0548891Y0059922D01*
X0548575Y0059912D01*
X0548258Y0059910D01*
X0547941Y0059916D01*
X0547625Y0059929D01*
X0547309Y0059951D01*
X0546994Y0059979D01*
X0546679Y0060016D01*
X0546366Y0060060D01*
X0546053Y0060112D01*
X0545742Y0060172D01*
X0545433Y0060239D01*
X0545125Y0060314D01*
X0544819Y0060396D01*
X0544516Y0060485D01*
X0544214Y0060582D01*
X0543915Y0060687D01*
X0543619Y0060799D01*
X0543325Y0060917D01*
X0543035Y0061043D01*
X0542748Y0061176D01*
X0542463Y0061317D01*
X0542183Y0061464D01*
X0541906Y0061617D01*
X0541633Y0061778D01*
X0541364Y0061945D01*
X0541099Y0062119D01*
X0540839Y0062299D01*
X0540583Y0062485D01*
X0540332Y0062678D01*
X0540085Y0062876D01*
X0539843Y0063081D01*
X0539607Y0063291D01*
X0539375Y0063508D01*
X0539150Y0063730D01*
X0538929Y0063957D01*
X0538714Y0064189D01*
X0538505Y0064427D01*
X0538302Y0064670D01*
X0538104Y0064918D01*
X0537913Y0065170D01*
X0537728Y0065427D01*
X0537550Y0065689D01*
X0537378Y0065955D01*
X0537212Y0066224D01*
X0537053Y0066498D01*
X0536901Y0066776D01*
X0536756Y0067057D01*
X0536617Y0067342D01*
X0536486Y0067630D01*
X0536362Y0067922D01*
X0536244Y0068216D01*
X0536134Y0068513D01*
X0536032Y0068812D01*
X0535937Y0069114D01*
X0535849Y0069418D01*
X0535768Y0069725D01*
X0535695Y0070033D01*
X0535630Y0070343D01*
X0535572Y0070654D01*
X0535522Y0070967D01*
X0535480Y0071281D01*
X0535445Y0071595D01*
X0535418Y0071911D01*
X0535398Y0072227D01*
X0535387Y0072543D01*
X0535383Y0072860D01*
X0535387Y0073177D01*
X0535398Y0073493D01*
X0535418Y0073809D01*
X0535445Y0074125D01*
X0535480Y0074439D01*
X0535522Y0074753D01*
X0535572Y0075066D01*
X0535630Y0075377D01*
X0535695Y0075687D01*
X0535768Y0075995D01*
X0535849Y0076302D01*
X0535937Y0076606D01*
X0536032Y0076908D01*
X0536134Y0077207D01*
X0536244Y0077504D01*
X0536362Y0077798D01*
X0536486Y0078090D01*
X0536617Y0078378D01*
X0536756Y0078663D01*
X0536901Y0078944D01*
X0537053Y0079222D01*
X0537212Y0079496D01*
X0537378Y0079765D01*
X0537550Y0080031D01*
X0537728Y0080293D01*
X0537913Y0080550D01*
X0538104Y0080802D01*
X0538302Y0081050D01*
X0538505Y0081293D01*
X0538714Y0081531D01*
X0538929Y0081763D01*
X0539150Y0081990D01*
X0539375Y0082212D01*
X0539607Y0082429D01*
X0539843Y0082639D01*
X0540085Y0082844D01*
X0540332Y0083042D01*
X0540583Y0083235D01*
X0540839Y0083421D01*
X0541099Y0083601D01*
X0541364Y0083775D01*
X0541633Y0083942D01*
X0541906Y0084103D01*
X0542183Y0084256D01*
X0542463Y0084403D01*
X0542748Y0084544D01*
X0543035Y0084677D01*
X0543325Y0084803D01*
X0543619Y0084921D01*
X0543915Y0085033D01*
X0544214Y0085138D01*
X0544516Y0085235D01*
X0544819Y0085324D01*
X0545125Y0085406D01*
X0545433Y0085481D01*
X0545742Y0085548D01*
X0546053Y0085608D01*
X0546366Y0085660D01*
X0546679Y0085704D01*
X0546994Y0085741D01*
X0547309Y0085769D01*
X0547625Y0085791D01*
X0547941Y0085804D01*
X0548258Y0085810D01*
X0548575Y0085808D01*
X0548891Y0085798D01*
X0549207Y0085780D01*
X0549523Y0085755D01*
X0549838Y0085722D01*
X0550152Y0085682D01*
X0550465Y0085633D01*
X0550777Y0085577D01*
X0551087Y0085514D01*
X0551395Y0085443D01*
X0551702Y0085364D01*
X0552007Y0085278D01*
X0552309Y0085184D01*
X0552610Y0085083D01*
X0552907Y0084975D01*
X0553202Y0084860D01*
X0553494Y0084737D01*
X0553783Y0084607D01*
X0554068Y0084471D01*
X0554351Y0084327D01*
X0554629Y0084176D01*
X0554904Y0084019D01*
X0555175Y0083855D01*
X0555442Y0083684D01*
X0555704Y0083507D01*
X0555962Y0083324D01*
X0556216Y0083134D01*
X0556465Y0082939D01*
X0556709Y0082737D01*
X0556948Y0082529D01*
X0557182Y0082315D01*
X0557410Y0082096D01*
X0557633Y0081871D01*
X0557851Y0081641D01*
X0558063Y0081406D01*
X0558269Y0081166D01*
X0558469Y0080920D01*
X0558663Y0080670D01*
X0558588Y0080614D01*
X0558395Y0080862D01*
X0558196Y0081106D01*
X0557992Y0081344D01*
X0557782Y0081578D01*
X0557566Y0081806D01*
X0557344Y0082029D01*
X0557117Y0082247D01*
X0556885Y0082459D01*
X0556648Y0082665D01*
X0556406Y0082866D01*
X0556158Y0083060D01*
X0555907Y0083248D01*
X0555650Y0083430D01*
X0555390Y0083606D01*
X0555125Y0083775D01*
X0554856Y0083938D01*
X0554583Y0084094D01*
X0554307Y0084244D01*
X0554027Y0084386D01*
X0553743Y0084522D01*
X0553456Y0084651D01*
X0553166Y0084773D01*
X0552874Y0084887D01*
X0552578Y0084995D01*
X0552280Y0085095D01*
X0551980Y0085188D01*
X0551677Y0085273D01*
X0551373Y0085351D01*
X0551067Y0085422D01*
X0550759Y0085485D01*
X0550449Y0085541D01*
X0550139Y0085589D01*
X0549827Y0085629D01*
X0549514Y0085662D01*
X0549201Y0085687D01*
X0548887Y0085704D01*
X0548573Y0085714D01*
X0548258Y0085716D01*
X0547944Y0085710D01*
X0547630Y0085697D01*
X0547316Y0085676D01*
X0547003Y0085647D01*
X0546691Y0085611D01*
X0546380Y0085567D01*
X0546070Y0085515D01*
X0545761Y0085456D01*
X0545454Y0085389D01*
X0545148Y0085315D01*
X0544845Y0085234D01*
X0544543Y0085145D01*
X0544244Y0085048D01*
X0543947Y0084945D01*
X0543653Y0084834D01*
X0543362Y0084716D01*
X0543073Y0084591D01*
X0542788Y0084459D01*
X0542506Y0084320D01*
X0542228Y0084174D01*
X0541953Y0084021D01*
X0541682Y0083862D01*
X0541415Y0083696D01*
X0541152Y0083523D01*
X0540893Y0083345D01*
X0540639Y0083160D01*
X0540390Y0082968D01*
X0540145Y0082771D01*
X0539905Y0082568D01*
X0539670Y0082359D01*
X0539440Y0082144D01*
X0539216Y0081924D01*
X0538997Y0081699D01*
X0538784Y0081468D01*
X0538576Y0081232D01*
X0538374Y0080990D01*
X0538179Y0080745D01*
X0537989Y0080494D01*
X0537805Y0080239D01*
X0537628Y0079979D01*
X0537457Y0079715D01*
X0537293Y0079447D01*
X0537135Y0079175D01*
X0536984Y0078900D01*
X0536840Y0078620D01*
X0536702Y0078338D01*
X0536572Y0078052D01*
X0536448Y0077763D01*
X0536332Y0077470D01*
X0536223Y0077176D01*
X0536121Y0076878D01*
X0536027Y0076579D01*
X0535939Y0076276D01*
X0535859Y0075972D01*
X0535787Y0075667D01*
X0535722Y0075359D01*
X0535665Y0075050D01*
X0535615Y0074739D01*
X0535573Y0074428D01*
X0535538Y0074115D01*
X0535512Y0073802D01*
X0535492Y0073488D01*
X0535481Y0073174D01*
X0535477Y0072860D01*
X0535481Y0072546D01*
X0535492Y0072232D01*
X0535512Y0071918D01*
X0535538Y0071605D01*
X0535573Y0071292D01*
X0535615Y0070981D01*
X0535665Y0070670D01*
X0535722Y0070361D01*
X0535787Y0070053D01*
X0535859Y0069748D01*
X0535939Y0069444D01*
X0536027Y0069141D01*
X0536121Y0068842D01*
X0536223Y0068544D01*
X0536332Y0068250D01*
X0536448Y0067957D01*
X0536572Y0067668D01*
X0536702Y0067382D01*
X0536840Y0067100D01*
X0536984Y0066820D01*
X0537135Y0066545D01*
X0537293Y0066273D01*
X0537457Y0066005D01*
X0537628Y0065741D01*
X0537805Y0065481D01*
X0537989Y0065226D01*
X0538179Y0064975D01*
X0538374Y0064730D01*
X0538576Y0064488D01*
X0538784Y0064252D01*
X0538997Y0064021D01*
X0539216Y0063796D01*
X0539440Y0063576D01*
X0539670Y0063361D01*
X0539905Y0063152D01*
X0540145Y0062949D01*
X0540390Y0062752D01*
X0540639Y0062560D01*
X0540893Y0062375D01*
X0541152Y0062197D01*
X0541415Y0062024D01*
X0541682Y0061858D01*
X0541953Y0061699D01*
X0542228Y0061546D01*
X0542506Y0061400D01*
X0542788Y0061261D01*
X0543073Y0061129D01*
X0543362Y0061004D01*
X0543653Y0060886D01*
X0543947Y0060775D01*
X0544244Y0060672D01*
X0544543Y0060575D01*
X0544845Y0060486D01*
X0545148Y0060405D01*
X0545454Y0060331D01*
X0545761Y0060264D01*
X0546070Y0060205D01*
X0546380Y0060153D01*
X0546691Y0060109D01*
X0547003Y0060073D01*
X0547316Y0060044D01*
X0547630Y0060023D01*
X0547944Y0060010D01*
X0548258Y0060004D01*
X0548573Y0060006D01*
X0548887Y0060016D01*
X0549201Y0060033D01*
X0549514Y0060058D01*
X0549827Y0060091D01*
X0550139Y0060131D01*
X0550449Y0060179D01*
X0550759Y0060235D01*
X0551067Y0060298D01*
X0551373Y0060369D01*
X0551677Y0060447D01*
X0551980Y0060532D01*
X0552280Y0060625D01*
X0552578Y0060725D01*
X0552874Y0060833D01*
X0553166Y0060947D01*
X0553456Y0061069D01*
X0553743Y0061198D01*
X0554027Y0061334D01*
X0554307Y0061476D01*
X0554583Y0061626D01*
X0554856Y0061782D01*
X0555125Y0061945D01*
X0555390Y0062114D01*
X0555650Y0062290D01*
X0555907Y0062472D01*
X0556158Y0062660D01*
X0556406Y0062854D01*
X0556648Y0063055D01*
X0556885Y0063261D01*
X0557117Y0063473D01*
X0557344Y0063691D01*
X0557566Y0063914D01*
X0557782Y0064142D01*
X0557992Y0064376D01*
X0558196Y0064614D01*
X0558395Y0064858D01*
X0558588Y0065106D01*
X0558513Y0065163D01*
X0558321Y0064916D01*
X0558124Y0064674D01*
X0557921Y0064437D01*
X0557712Y0064206D01*
X0557498Y0063979D01*
X0557278Y0063757D01*
X0557053Y0063541D01*
X0556822Y0063331D01*
X0556587Y0063126D01*
X0556346Y0062927D01*
X0556101Y0062734D01*
X0555851Y0062548D01*
X0555597Y0062367D01*
X0555338Y0062192D01*
X0555075Y0062024D01*
X0554808Y0061863D01*
X0554537Y0061708D01*
X0554263Y0061559D01*
X0553985Y0061418D01*
X0553703Y0061283D01*
X0553419Y0061155D01*
X0553131Y0061034D01*
X0552840Y0060920D01*
X0552547Y0060814D01*
X0552251Y0060714D01*
X0551953Y0060622D01*
X0551653Y0060537D01*
X0551350Y0060460D01*
X0551046Y0060390D01*
X0550741Y0060327D01*
X0550434Y0060272D01*
X0550125Y0060224D01*
X0549816Y0060184D01*
X0549505Y0060152D01*
X0549194Y0060127D01*
X0548883Y0060110D01*
X0548571Y0060100D01*
X0548259Y0060098D01*
X0547947Y0060104D01*
X0547635Y0060117D01*
X0547324Y0060138D01*
X0547013Y0060166D01*
X0546703Y0060203D01*
X0546394Y0060246D01*
X0546086Y0060297D01*
X0545779Y0060356D01*
X0545475Y0060422D01*
X0545171Y0060496D01*
X0544870Y0060577D01*
X0544571Y0060665D01*
X0544274Y0060761D01*
X0543979Y0060864D01*
X0543687Y0060974D01*
X0543398Y0061091D01*
X0543111Y0061215D01*
X0542828Y0061346D01*
X0542548Y0061484D01*
X0542272Y0061629D01*
X0541999Y0061781D01*
X0541730Y0061939D01*
X0541465Y0062104D01*
X0541204Y0062275D01*
X0540948Y0062452D01*
X0540695Y0062636D01*
X0540448Y0062826D01*
X0540205Y0063021D01*
X0539966Y0063223D01*
X0539733Y0063431D01*
X0539505Y0063644D01*
X0539283Y0063862D01*
X0539065Y0064086D01*
X0538854Y0064315D01*
X0538648Y0064550D01*
X0538447Y0064789D01*
X0538253Y0065033D01*
X0538065Y0065282D01*
X0537882Y0065535D01*
X0537706Y0065793D01*
X0537537Y0066055D01*
X0537374Y0066321D01*
X0537217Y0066591D01*
X0537067Y0066865D01*
X0536924Y0067142D01*
X0536787Y0067422D01*
X0536658Y0067706D01*
X0536535Y0067993D01*
X0536420Y0068283D01*
X0536312Y0068576D01*
X0536210Y0068871D01*
X0536116Y0069169D01*
X0536030Y0069469D01*
X0535951Y0069770D01*
X0535879Y0070074D01*
X0535814Y0070379D01*
X0535757Y0070686D01*
X0535708Y0070994D01*
X0535666Y0071304D01*
X0535632Y0071614D01*
X0535605Y0071925D01*
X0535586Y0072236D01*
X0535575Y0072548D01*
X0535571Y0072860D01*
X0535575Y0073172D01*
X0535586Y0073484D01*
X0535605Y0073795D01*
X0535632Y0074106D01*
X0535666Y0074416D01*
X0535708Y0074726D01*
X0535757Y0075034D01*
X0535814Y0075341D01*
X0535879Y0075646D01*
X0535951Y0075950D01*
X0536030Y0076251D01*
X0536116Y0076551D01*
X0536210Y0076849D01*
X0536312Y0077144D01*
X0536420Y0077437D01*
X0536535Y0077727D01*
X0536658Y0078014D01*
X0536787Y0078298D01*
X0536924Y0078578D01*
X0537067Y0078855D01*
X0537217Y0079129D01*
X0537374Y0079399D01*
X0537537Y0079665D01*
X0537706Y0079927D01*
X0537882Y0080185D01*
X0538065Y0080438D01*
X0538253Y0080687D01*
X0538447Y0080931D01*
X0538648Y0081170D01*
X0538854Y0081405D01*
X0539065Y0081634D01*
X0539283Y0081858D01*
X0539505Y0082076D01*
X0539733Y0082289D01*
X0539966Y0082497D01*
X0540205Y0082699D01*
X0540448Y0082894D01*
X0540695Y0083084D01*
X0540948Y0083268D01*
X0541204Y0083445D01*
X0541465Y0083616D01*
X0541730Y0083781D01*
X0541999Y0083939D01*
X0542272Y0084091D01*
X0542548Y0084236D01*
X0542828Y0084374D01*
X0543111Y0084505D01*
X0543398Y0084629D01*
X0543687Y0084746D01*
X0543979Y0084856D01*
X0544274Y0084959D01*
X0544571Y0085055D01*
X0544870Y0085143D01*
X0545171Y0085224D01*
X0545475Y0085298D01*
X0545779Y0085364D01*
X0546086Y0085423D01*
X0546394Y0085474D01*
X0546703Y0085517D01*
X0547013Y0085554D01*
X0547324Y0085582D01*
X0547635Y0085603D01*
X0547947Y0085616D01*
X0548259Y0085622D01*
X0548571Y0085620D01*
X0548883Y0085610D01*
X0549194Y0085593D01*
X0549505Y0085568D01*
X0549816Y0085536D01*
X0550125Y0085496D01*
X0550434Y0085448D01*
X0550741Y0085393D01*
X0551046Y0085330D01*
X0551350Y0085260D01*
X0551653Y0085183D01*
X0551953Y0085098D01*
X0552251Y0085006D01*
X0552547Y0084906D01*
X0552840Y0084800D01*
X0553131Y0084686D01*
X0553419Y0084565D01*
X0553703Y0084437D01*
X0553985Y0084302D01*
X0554263Y0084161D01*
X0554537Y0084012D01*
X0554808Y0083857D01*
X0555075Y0083696D01*
X0555338Y0083528D01*
X0555597Y0083353D01*
X0555851Y0083172D01*
X0556101Y0082986D01*
X0556346Y0082793D01*
X0556587Y0082594D01*
X0556822Y0082389D01*
X0557053Y0082179D01*
X0557278Y0081963D01*
X0557498Y0081741D01*
X0557712Y0081514D01*
X0557921Y0081283D01*
X0558124Y0081046D01*
X0558321Y0080804D01*
X0558513Y0080557D01*
X0558437Y0080501D01*
X0558247Y0080746D01*
X0558052Y0080986D01*
X0557850Y0081221D01*
X0557643Y0081451D01*
X0557430Y0081676D01*
X0557212Y0081896D01*
X0556988Y0082110D01*
X0556759Y0082319D01*
X0556526Y0082522D01*
X0556287Y0082720D01*
X0556044Y0082911D01*
X0555795Y0083097D01*
X0555543Y0083276D01*
X0555286Y0083449D01*
X0555025Y0083616D01*
X0554760Y0083777D01*
X0554491Y0083930D01*
X0554219Y0084078D01*
X0553943Y0084218D01*
X0553663Y0084352D01*
X0553381Y0084479D01*
X0553095Y0084599D01*
X0552807Y0084712D01*
X0552516Y0084818D01*
X0552222Y0084916D01*
X0551926Y0085008D01*
X0551628Y0085092D01*
X0551328Y0085169D01*
X0551026Y0085238D01*
X0550723Y0085301D01*
X0550418Y0085355D01*
X0550112Y0085403D01*
X0549804Y0085442D01*
X0549496Y0085474D01*
X0549188Y0085499D01*
X0548878Y0085516D01*
X0548569Y0085526D01*
X0548259Y0085528D01*
X0547949Y0085522D01*
X0547640Y0085509D01*
X0547331Y0085488D01*
X0547022Y0085460D01*
X0546715Y0085424D01*
X0546408Y0085381D01*
X0546102Y0085330D01*
X0545798Y0085272D01*
X0545495Y0085206D01*
X0545194Y0085133D01*
X0544895Y0085053D01*
X0544598Y0084965D01*
X0544303Y0084870D01*
X0544011Y0084768D01*
X0543721Y0084659D01*
X0543434Y0084542D01*
X0543150Y0084419D01*
X0542869Y0084289D01*
X0542591Y0084152D01*
X0542317Y0084008D01*
X0542046Y0083858D01*
X0541779Y0083701D01*
X0541516Y0083537D01*
X0541257Y0083367D01*
X0541002Y0083191D01*
X0540751Y0083009D01*
X0540506Y0082820D01*
X0540264Y0082626D01*
X0540028Y0082426D01*
X0539797Y0082220D01*
X0539570Y0082008D01*
X0539349Y0081791D01*
X0539134Y0081569D01*
X0538923Y0081342D01*
X0538719Y0081109D01*
X0538520Y0080871D01*
X0538327Y0080629D01*
X0538140Y0080382D01*
X0537959Y0080131D01*
X0537785Y0079875D01*
X0537616Y0079615D01*
X0537454Y0079351D01*
X0537299Y0079083D01*
X0537150Y0078811D01*
X0537008Y0078536D01*
X0536872Y0078257D01*
X0536744Y0077976D01*
X0536622Y0077691D01*
X0536508Y0077403D01*
X0536400Y0077112D01*
X0536300Y0076819D01*
X0536206Y0076524D01*
X0536120Y0076226D01*
X0536042Y0075927D01*
X0535971Y0075625D01*
X0535907Y0075322D01*
X0535850Y0075018D01*
X0535801Y0074712D01*
X0535760Y0074405D01*
X0535726Y0074097D01*
X0535699Y0073788D01*
X0535680Y0073479D01*
X0535669Y0073170D01*
X0535665Y0072860D01*
X0535669Y0072550D01*
X0535680Y0072241D01*
X0535699Y0071932D01*
X0535726Y0071623D01*
X0535760Y0071315D01*
X0535801Y0071008D01*
X0535850Y0070702D01*
X0535907Y0070398D01*
X0535971Y0070095D01*
X0536042Y0069793D01*
X0536120Y0069494D01*
X0536206Y0069196D01*
X0536300Y0068901D01*
X0536400Y0068608D01*
X0536508Y0068317D01*
X0536622Y0068029D01*
X0536744Y0067744D01*
X0536872Y0067463D01*
X0537008Y0067184D01*
X0537150Y0066909D01*
X0537299Y0066637D01*
X0537454Y0066369D01*
X0537616Y0066105D01*
X0537785Y0065845D01*
X0537959Y0065589D01*
X0538140Y0065338D01*
X0538327Y0065091D01*
X0538520Y0064849D01*
X0538719Y0064611D01*
X0538923Y0064378D01*
X0539134Y0064151D01*
X0539349Y0063929D01*
X0539570Y0063712D01*
X0539797Y0063500D01*
X0540028Y0063294D01*
X0540264Y0063094D01*
X0540506Y0062900D01*
X0540751Y0062711D01*
X0541002Y0062529D01*
X0541257Y0062353D01*
X0541516Y0062183D01*
X0541779Y0062019D01*
X0542046Y0061862D01*
X0542317Y0061712D01*
X0542591Y0061568D01*
X0542869Y0061431D01*
X0543150Y0061301D01*
X0543434Y0061178D01*
X0543721Y0061061D01*
X0544011Y0060952D01*
X0544303Y0060850D01*
X0544598Y0060755D01*
X0544895Y0060667D01*
X0545194Y0060587D01*
X0545495Y0060514D01*
X0545798Y0060448D01*
X0546102Y0060390D01*
X0546408Y0060339D01*
X0546715Y0060296D01*
X0547022Y0060260D01*
X0547331Y0060232D01*
X0547640Y0060211D01*
X0547949Y0060198D01*
X0548259Y0060192D01*
X0548569Y0060194D01*
X0548878Y0060204D01*
X0549188Y0060221D01*
X0549496Y0060246D01*
X0549804Y0060278D01*
X0550112Y0060317D01*
X0550418Y0060365D01*
X0550723Y0060419D01*
X0551026Y0060482D01*
X0551328Y0060551D01*
X0551628Y0060628D01*
X0551926Y0060712D01*
X0552222Y0060804D01*
X0552516Y0060902D01*
X0552807Y0061008D01*
X0553095Y0061121D01*
X0553381Y0061241D01*
X0553663Y0061368D01*
X0553943Y0061502D01*
X0554219Y0061642D01*
X0554491Y0061790D01*
X0554760Y0061943D01*
X0555025Y0062104D01*
X0555286Y0062271D01*
X0555543Y0062444D01*
X0555795Y0062623D01*
X0556044Y0062809D01*
X0556287Y0063000D01*
X0556526Y0063198D01*
X0556759Y0063401D01*
X0556988Y0063610D01*
X0557212Y0063824D01*
X0557430Y0064044D01*
X0557643Y0064269D01*
X0557850Y0064499D01*
X0558052Y0064734D01*
X0558247Y0064974D01*
X0558437Y0065219D01*
X0558362Y0065276D01*
X0558174Y0065033D01*
X0557979Y0064794D01*
X0557779Y0064561D01*
X0557574Y0064333D01*
X0557362Y0064109D01*
X0557146Y0063891D01*
X0556924Y0063678D01*
X0556697Y0063471D01*
X0556465Y0063269D01*
X0556228Y0063073D01*
X0555986Y0062883D01*
X0555740Y0062699D01*
X0555489Y0062521D01*
X0555234Y0062349D01*
X0554975Y0062184D01*
X0554712Y0062024D01*
X0554445Y0061872D01*
X0554175Y0061725D01*
X0553901Y0061586D01*
X0553624Y0061453D01*
X0553343Y0061327D01*
X0553060Y0061208D01*
X0552773Y0061096D01*
X0552484Y0060991D01*
X0552193Y0060893D01*
X0551899Y0060802D01*
X0551603Y0060719D01*
X0551306Y0060642D01*
X0551006Y0060573D01*
X0550705Y0060512D01*
X0550402Y0060457D01*
X0550098Y0060411D01*
X0549793Y0060371D01*
X0549488Y0060339D01*
X0549181Y0060315D01*
X0548874Y0060298D01*
X0548567Y0060288D01*
X0548259Y0060286D01*
X0547952Y0060292D01*
X0547645Y0060305D01*
X0547338Y0060325D01*
X0547032Y0060354D01*
X0546726Y0060389D01*
X0546422Y0060432D01*
X0546119Y0060483D01*
X0545817Y0060540D01*
X0545516Y0060606D01*
X0545217Y0060678D01*
X0544921Y0060758D01*
X0544626Y0060845D01*
X0544333Y0060939D01*
X0544043Y0061041D01*
X0543755Y0061149D01*
X0543470Y0061264D01*
X0543188Y0061387D01*
X0542909Y0061516D01*
X0542633Y0061652D01*
X0542361Y0061795D01*
X0542092Y0061944D01*
X0541827Y0062100D01*
X0541566Y0062262D01*
X0541309Y0062431D01*
X0541056Y0062606D01*
X0540808Y0062787D01*
X0540564Y0062974D01*
X0540324Y0063167D01*
X0540090Y0063365D01*
X0539860Y0063570D01*
X0539635Y0063780D01*
X0539416Y0063995D01*
X0539202Y0064216D01*
X0538993Y0064441D01*
X0538790Y0064672D01*
X0538593Y0064908D01*
X0538401Y0065149D01*
X0538216Y0065394D01*
X0538036Y0065643D01*
X0537863Y0065897D01*
X0537696Y0066155D01*
X0537535Y0066417D01*
X0537381Y0066683D01*
X0537233Y0066953D01*
X0537092Y0067226D01*
X0536957Y0067503D01*
X0536830Y0067782D01*
X0536709Y0068065D01*
X0536595Y0068351D01*
X0536489Y0068639D01*
X0536389Y0068930D01*
X0536296Y0069223D01*
X0536211Y0069519D01*
X0536133Y0069816D01*
X0536062Y0070115D01*
X0535999Y0070416D01*
X0535943Y0070718D01*
X0535894Y0071022D01*
X0535853Y0071327D01*
X0535819Y0071632D01*
X0535793Y0071938D01*
X0535774Y0072245D01*
X0535763Y0072553D01*
X0535759Y0072860D01*
X0535763Y0073167D01*
X0535774Y0073475D01*
X0535793Y0073782D01*
X0535819Y0074088D01*
X0535853Y0074393D01*
X0535894Y0074698D01*
X0535943Y0075002D01*
X0535999Y0075304D01*
X0536062Y0075605D01*
X0536133Y0075904D01*
X0536211Y0076201D01*
X0536296Y0076497D01*
X0536389Y0076790D01*
X0536489Y0077081D01*
X0536595Y0077369D01*
X0536709Y0077655D01*
X0536830Y0077938D01*
X0536957Y0078217D01*
X0537092Y0078494D01*
X0537233Y0078767D01*
X0537381Y0079037D01*
X0537535Y0079303D01*
X0537696Y0079565D01*
X0537863Y0079823D01*
X0538036Y0080077D01*
X0538216Y0080326D01*
X0538401Y0080571D01*
X0538593Y0080812D01*
X0538790Y0081048D01*
X0538993Y0081279D01*
X0539202Y0081504D01*
X0539416Y0081725D01*
X0539635Y0081940D01*
X0539860Y0082150D01*
X0540090Y0082355D01*
X0540324Y0082553D01*
X0540564Y0082746D01*
X0540808Y0082933D01*
X0541056Y0083114D01*
X0541309Y0083289D01*
X0541566Y0083458D01*
X0541827Y0083620D01*
X0542092Y0083776D01*
X0542361Y0083925D01*
X0542633Y0084068D01*
X0542909Y0084204D01*
X0543188Y0084333D01*
X0543470Y0084456D01*
X0543755Y0084571D01*
X0544043Y0084679D01*
X0544333Y0084781D01*
X0544626Y0084875D01*
X0544921Y0084962D01*
X0545217Y0085042D01*
X0545516Y0085114D01*
X0545817Y0085180D01*
X0546119Y0085237D01*
X0546422Y0085288D01*
X0546726Y0085331D01*
X0547032Y0085366D01*
X0547338Y0085395D01*
X0547645Y0085415D01*
X0547952Y0085428D01*
X0548259Y0085434D01*
X0548567Y0085432D01*
X0548874Y0085422D01*
X0549181Y0085405D01*
X0549488Y0085381D01*
X0549793Y0085349D01*
X0550098Y0085309D01*
X0550402Y0085263D01*
X0550705Y0085208D01*
X0551006Y0085147D01*
X0551306Y0085078D01*
X0551603Y0085001D01*
X0551899Y0084918D01*
X0552193Y0084827D01*
X0552484Y0084729D01*
X0552773Y0084624D01*
X0553060Y0084512D01*
X0553343Y0084393D01*
X0553624Y0084267D01*
X0553901Y0084134D01*
X0554175Y0083995D01*
X0554445Y0083848D01*
X0554712Y0083696D01*
X0554975Y0083536D01*
X0555234Y0083371D01*
X0555489Y0083199D01*
X0555740Y0083021D01*
X0555986Y0082837D01*
X0556228Y0082647D01*
X0556465Y0082451D01*
X0556697Y0082249D01*
X0556924Y0082042D01*
X0557146Y0081829D01*
X0557362Y0081611D01*
X0557574Y0081387D01*
X0557779Y0081159D01*
X0557979Y0080926D01*
X0558174Y0080687D01*
X0558362Y0080444D01*
X0558287Y0080388D01*
X0558100Y0080629D01*
X0557907Y0080866D01*
X0557708Y0081097D01*
X0557504Y0081324D01*
X0557295Y0081546D01*
X0557080Y0081762D01*
X0556859Y0081973D01*
X0556634Y0082179D01*
X0556404Y0082379D01*
X0556168Y0082574D01*
X0555929Y0082762D01*
X0555684Y0082945D01*
X0555435Y0083122D01*
X0555182Y0083292D01*
X0554925Y0083457D01*
X0554664Y0083615D01*
X0554399Y0083766D01*
X0554131Y0083911D01*
X0553859Y0084050D01*
X0553584Y0084182D01*
X0553305Y0084307D01*
X0553024Y0084425D01*
X0552740Y0084536D01*
X0552453Y0084640D01*
X0552164Y0084738D01*
X0551872Y0084828D01*
X0551579Y0084911D01*
X0551283Y0084986D01*
X0550986Y0085055D01*
X0550687Y0085116D01*
X0550386Y0085170D01*
X0550085Y0085216D01*
X0549782Y0085256D01*
X0549479Y0085287D01*
X0549174Y0085312D01*
X0548870Y0085328D01*
X0548565Y0085338D01*
X0548260Y0085340D01*
X0547955Y0085334D01*
X0547650Y0085321D01*
X0547345Y0085301D01*
X0547041Y0085273D01*
X0546738Y0085238D01*
X0546436Y0085195D01*
X0546135Y0085145D01*
X0545835Y0085088D01*
X0545537Y0085023D01*
X0545241Y0084951D01*
X0544946Y0084872D01*
X0544653Y0084785D01*
X0544363Y0084692D01*
X0544075Y0084591D01*
X0543789Y0084483D01*
X0543506Y0084369D01*
X0543226Y0084247D01*
X0542949Y0084119D01*
X0542676Y0083984D01*
X0542406Y0083843D01*
X0542139Y0083694D01*
X0541876Y0083540D01*
X0541617Y0083379D01*
X0541361Y0083211D01*
X0541110Y0083038D01*
X0540864Y0082858D01*
X0540622Y0082672D01*
X0540384Y0082481D01*
X0540151Y0082284D01*
X0539923Y0082081D01*
X0539700Y0081872D01*
X0539482Y0081659D01*
X0539270Y0081440D01*
X0539063Y0081216D01*
X0538861Y0080986D01*
X0538665Y0080752D01*
X0538475Y0080514D01*
X0538291Y0080270D01*
X0538113Y0080023D01*
X0537941Y0079771D01*
X0537775Y0079514D01*
X0537616Y0079254D01*
X0537462Y0078990D01*
X0537316Y0078723D01*
X0537176Y0078452D01*
X0537042Y0078177D01*
X0536916Y0077900D01*
X0536796Y0077619D01*
X0536683Y0077335D01*
X0536577Y0077049D01*
X0536478Y0076761D01*
X0536386Y0076470D01*
X0536302Y0076176D01*
X0536224Y0075881D01*
X0536154Y0075584D01*
X0536091Y0075286D01*
X0536035Y0074986D01*
X0535987Y0074684D01*
X0535946Y0074382D01*
X0535913Y0074079D01*
X0535887Y0073775D01*
X0535868Y0073470D01*
X0535857Y0073165D01*
X0535853Y0072860D01*
X0535857Y0072555D01*
X0535868Y0072250D01*
X0535887Y0071945D01*
X0535913Y0071641D01*
X0535946Y0071338D01*
X0535987Y0071036D01*
X0536035Y0070734D01*
X0536091Y0070434D01*
X0536154Y0070136D01*
X0536224Y0069839D01*
X0536302Y0069544D01*
X0536386Y0069250D01*
X0536478Y0068959D01*
X0536577Y0068671D01*
X0536683Y0068385D01*
X0536796Y0068101D01*
X0536916Y0067820D01*
X0537042Y0067543D01*
X0537176Y0067268D01*
X0537316Y0066997D01*
X0537462Y0066730D01*
X0537616Y0066466D01*
X0537775Y0066206D01*
X0537941Y0065949D01*
X0538113Y0065697D01*
X0538291Y0065450D01*
X0538475Y0065206D01*
X0538665Y0064968D01*
X0538861Y0064734D01*
X0539063Y0064504D01*
X0539270Y0064280D01*
X0539482Y0064061D01*
X0539700Y0063848D01*
X0539923Y0063639D01*
X0540151Y0063436D01*
X0540384Y0063239D01*
X0540622Y0063048D01*
X0540864Y0062862D01*
X0541110Y0062682D01*
X0541361Y0062509D01*
X0541617Y0062341D01*
X0541876Y0062180D01*
X0542139Y0062026D01*
X0542406Y0061877D01*
X0542676Y0061736D01*
X0542949Y0061601D01*
X0543226Y0061473D01*
X0543506Y0061351D01*
X0543789Y0061237D01*
X0544075Y0061129D01*
X0544363Y0061028D01*
X0544653Y0060935D01*
X0544946Y0060848D01*
X0545241Y0060769D01*
X0545537Y0060697D01*
X0545835Y0060632D01*
X0546135Y0060575D01*
X0546436Y0060525D01*
X0546738Y0060482D01*
X0547041Y0060447D01*
X0547345Y0060419D01*
X0547650Y0060399D01*
X0547955Y0060386D01*
X0548260Y0060380D01*
X0548565Y0060382D01*
X0548870Y0060392D01*
X0549174Y0060408D01*
X0549479Y0060433D01*
X0549782Y0060464D01*
X0550085Y0060504D01*
X0550386Y0060550D01*
X0550687Y0060604D01*
X0550986Y0060665D01*
X0551283Y0060734D01*
X0551579Y0060809D01*
X0551872Y0060892D01*
X0552164Y0060982D01*
X0552453Y0061080D01*
X0552740Y0061184D01*
X0553024Y0061295D01*
X0553305Y0061413D01*
X0553584Y0061538D01*
X0553859Y0061670D01*
X0554131Y0061809D01*
X0554399Y0061954D01*
X0554664Y0062105D01*
X0554925Y0062263D01*
X0555182Y0062428D01*
X0555435Y0062598D01*
X0555684Y0062775D01*
X0555929Y0062958D01*
X0556168Y0063146D01*
X0556404Y0063341D01*
X0556634Y0063541D01*
X0556859Y0063747D01*
X0557080Y0063958D01*
X0557295Y0064174D01*
X0557504Y0064396D01*
X0557708Y0064623D01*
X0557907Y0064854D01*
X0558100Y0065091D01*
X0558287Y0065332D01*
X0558212Y0065388D01*
X0558026Y0065149D01*
X0557835Y0064914D01*
X0557638Y0064685D01*
X0557435Y0064460D01*
X0557227Y0064239D01*
X0557013Y0064025D01*
X0556795Y0063815D01*
X0556571Y0063611D01*
X0556343Y0063412D01*
X0556109Y0063219D01*
X0555871Y0063032D01*
X0555629Y0062851D01*
X0555382Y0062675D01*
X0555131Y0062506D01*
X0554875Y0062343D01*
X0554616Y0062186D01*
X0554353Y0062036D01*
X0554087Y0061892D01*
X0553817Y0061754D01*
X0553544Y0061623D01*
X0553268Y0061499D01*
X0552988Y0061382D01*
X0552706Y0061272D01*
X0552422Y0061168D01*
X0552135Y0061072D01*
X0551845Y0060982D01*
X0551554Y0060900D01*
X0551261Y0060825D01*
X0550965Y0060757D01*
X0550669Y0060696D01*
X0550371Y0060643D01*
X0550071Y0060597D01*
X0549771Y0060558D01*
X0549470Y0060526D01*
X0549168Y0060502D01*
X0548865Y0060485D01*
X0548563Y0060476D01*
X0548260Y0060474D01*
X0547957Y0060480D01*
X0547655Y0060493D01*
X0547352Y0060513D01*
X0547051Y0060541D01*
X0546750Y0060576D01*
X0546450Y0060618D01*
X0546151Y0060668D01*
X0545854Y0060725D01*
X0545558Y0060789D01*
X0545264Y0060860D01*
X0544971Y0060939D01*
X0544681Y0061025D01*
X0544392Y0061118D01*
X0544107Y0061217D01*
X0543823Y0061324D01*
X0543543Y0061438D01*
X0543265Y0061558D01*
X0542990Y0061686D01*
X0542718Y0061820D01*
X0542450Y0061960D01*
X0542185Y0062107D01*
X0541924Y0062261D01*
X0541667Y0062421D01*
X0541414Y0062587D01*
X0541165Y0062759D01*
X0540920Y0062937D01*
X0540679Y0063122D01*
X0540444Y0063312D01*
X0540213Y0063507D01*
X0539986Y0063709D01*
X0539765Y0063915D01*
X0539549Y0064128D01*
X0539338Y0064345D01*
X0539133Y0064567D01*
X0538933Y0064795D01*
X0538738Y0065027D01*
X0538550Y0065264D01*
X0538367Y0065506D01*
X0538190Y0065751D01*
X0538019Y0066002D01*
X0537855Y0066256D01*
X0537696Y0066514D01*
X0537544Y0066776D01*
X0537399Y0067041D01*
X0537260Y0067310D01*
X0537127Y0067583D01*
X0537002Y0067858D01*
X0536883Y0068137D01*
X0536771Y0068418D01*
X0536666Y0068702D01*
X0536567Y0068989D01*
X0536476Y0069278D01*
X0536392Y0069569D01*
X0536315Y0069862D01*
X0536246Y0070156D01*
X0536183Y0070453D01*
X0536128Y0070750D01*
X0536080Y0071049D01*
X0536039Y0071349D01*
X0536006Y0071651D01*
X0535980Y0071952D01*
X0535962Y0072255D01*
X0535951Y0072557D01*
X0535947Y0072860D01*
X0535951Y0073163D01*
X0535962Y0073465D01*
X0535980Y0073768D01*
X0536006Y0074069D01*
X0536039Y0074371D01*
X0536080Y0074671D01*
X0536128Y0074970D01*
X0536183Y0075267D01*
X0536246Y0075564D01*
X0536315Y0075858D01*
X0536392Y0076151D01*
X0536476Y0076442D01*
X0536567Y0076731D01*
X0536666Y0077018D01*
X0536771Y0077302D01*
X0536883Y0077583D01*
X0537002Y0077862D01*
X0537127Y0078137D01*
X0537260Y0078410D01*
X0537399Y0078679D01*
X0537544Y0078944D01*
X0537696Y0079206D01*
X0537855Y0079464D01*
X0538019Y0079718D01*
X0538190Y0079969D01*
X0538367Y0080214D01*
X0538550Y0080456D01*
X0538738Y0080693D01*
X0538933Y0080925D01*
X0539133Y0081153D01*
X0539338Y0081375D01*
X0539549Y0081592D01*
X0539765Y0081805D01*
X0539986Y0082011D01*
X0540213Y0082213D01*
X0540444Y0082408D01*
X0540679Y0082598D01*
X0540920Y0082783D01*
X0541165Y0082961D01*
X0541414Y0083133D01*
X0541667Y0083299D01*
X0541924Y0083459D01*
X0542185Y0083613D01*
X0542450Y0083760D01*
X0542718Y0083900D01*
X0542990Y0084034D01*
X0543265Y0084162D01*
X0543543Y0084282D01*
X0543823Y0084396D01*
X0544107Y0084503D01*
X0544392Y0084602D01*
X0544681Y0084695D01*
X0544971Y0084781D01*
X0545264Y0084860D01*
X0545558Y0084931D01*
X0545854Y0084995D01*
X0546151Y0085052D01*
X0546450Y0085102D01*
X0546750Y0085144D01*
X0547051Y0085179D01*
X0547352Y0085207D01*
X0547655Y0085227D01*
X0547957Y0085240D01*
X0548260Y0085246D01*
X0548563Y0085244D01*
X0548865Y0085235D01*
X0549168Y0085218D01*
X0549470Y0085194D01*
X0549771Y0085162D01*
X0550071Y0085123D01*
X0550371Y0085077D01*
X0550669Y0085024D01*
X0550965Y0084963D01*
X0551261Y0084895D01*
X0551554Y0084820D01*
X0551845Y0084738D01*
X0552135Y0084648D01*
X0552422Y0084552D01*
X0552706Y0084448D01*
X0552988Y0084338D01*
X0553268Y0084221D01*
X0553544Y0084097D01*
X0553817Y0083966D01*
X0554087Y0083828D01*
X0554353Y0083684D01*
X0554616Y0083534D01*
X0554875Y0083377D01*
X0555131Y0083214D01*
X0555382Y0083045D01*
X0555629Y0082869D01*
X0555871Y0082688D01*
X0556109Y0082501D01*
X0556343Y0082308D01*
X0556571Y0082109D01*
X0556795Y0081905D01*
X0557013Y0081695D01*
X0557227Y0081481D01*
X0557435Y0081260D01*
X0557638Y0081035D01*
X0557835Y0080806D01*
X0558026Y0080571D01*
X0558212Y0080332D01*
X0558137Y0080275D01*
X0557952Y0080513D01*
X0557762Y0080745D01*
X0557567Y0080974D01*
X0557366Y0081197D01*
X0557159Y0081415D01*
X0556947Y0081629D01*
X0556730Y0081837D01*
X0556508Y0082039D01*
X0556281Y0082236D01*
X0556050Y0082428D01*
X0555814Y0082614D01*
X0555573Y0082794D01*
X0555328Y0082968D01*
X0555079Y0083136D01*
X0554825Y0083298D01*
X0554568Y0083453D01*
X0554307Y0083602D01*
X0554043Y0083745D01*
X0553775Y0083882D01*
X0553504Y0084011D01*
X0553230Y0084134D01*
X0552953Y0084251D01*
X0552673Y0084360D01*
X0552390Y0084463D01*
X0552106Y0084559D01*
X0551818Y0084647D01*
X0551529Y0084729D01*
X0551238Y0084804D01*
X0550945Y0084871D01*
X0550651Y0084932D01*
X0550355Y0084985D01*
X0550058Y0085030D01*
X0549760Y0085069D01*
X0549461Y0085100D01*
X0549161Y0085124D01*
X0548861Y0085141D01*
X0548561Y0085150D01*
X0548260Y0085152D01*
X0547960Y0085146D01*
X0547659Y0085134D01*
X0547360Y0085113D01*
X0547060Y0085086D01*
X0546762Y0085051D01*
X0546464Y0085009D01*
X0546168Y0084960D01*
X0545873Y0084903D01*
X0545579Y0084839D01*
X0545287Y0084769D01*
X0544997Y0084691D01*
X0544708Y0084605D01*
X0544422Y0084513D01*
X0544138Y0084414D01*
X0543857Y0084308D01*
X0543579Y0084195D01*
X0543303Y0084076D01*
X0543030Y0083949D01*
X0542761Y0083816D01*
X0542495Y0083677D01*
X0542232Y0083531D01*
X0541973Y0083379D01*
X0541717Y0083220D01*
X0541466Y0083055D01*
X0541219Y0082884D01*
X0540976Y0082707D01*
X0540737Y0082524D01*
X0540503Y0082336D01*
X0540274Y0082142D01*
X0540050Y0081942D01*
X0539830Y0081737D01*
X0539616Y0081526D01*
X0539406Y0081310D01*
X0539202Y0081090D01*
X0539004Y0080864D01*
X0538811Y0080633D01*
X0538624Y0080398D01*
X0538442Y0080159D01*
X0538267Y0079915D01*
X0538097Y0079666D01*
X0537934Y0079414D01*
X0537777Y0079158D01*
X0537626Y0078898D01*
X0537482Y0078634D01*
X0537344Y0078367D01*
X0537212Y0078097D01*
X0537088Y0077824D01*
X0536970Y0077547D01*
X0536859Y0077268D01*
X0536754Y0076986D01*
X0536657Y0076702D01*
X0536566Y0076415D01*
X0536483Y0076126D01*
X0536407Y0075836D01*
X0536337Y0075543D01*
X0536275Y0075249D01*
X0536221Y0074954D01*
X0536173Y0074657D01*
X0536133Y0074359D01*
X0536100Y0074060D01*
X0536074Y0073761D01*
X0536056Y0073461D01*
X0536045Y0073161D01*
X0536041Y0072860D01*
X0536045Y0072559D01*
X0536056Y0072259D01*
X0536074Y0071959D01*
X0536100Y0071660D01*
X0536133Y0071361D01*
X0536173Y0071063D01*
X0536221Y0070766D01*
X0536275Y0070471D01*
X0536337Y0070177D01*
X0536407Y0069884D01*
X0536483Y0069594D01*
X0536566Y0069305D01*
X0536657Y0069018D01*
X0536754Y0068734D01*
X0536859Y0068452D01*
X0536970Y0068173D01*
X0537088Y0067896D01*
X0537212Y0067623D01*
X0537344Y0067353D01*
X0537482Y0067086D01*
X0537626Y0066822D01*
X0537777Y0066562D01*
X0537934Y0066306D01*
X0538097Y0066054D01*
X0538267Y0065805D01*
X0538442Y0065561D01*
X0538624Y0065322D01*
X0538811Y0065087D01*
X0539004Y0064856D01*
X0539202Y0064630D01*
X0539406Y0064410D01*
X0539616Y0064194D01*
X0539830Y0063983D01*
X0540050Y0063778D01*
X0540274Y0063578D01*
X0540503Y0063384D01*
X0540737Y0063196D01*
X0540976Y0063013D01*
X0541219Y0062836D01*
X0541466Y0062665D01*
X0541717Y0062500D01*
X0541973Y0062341D01*
X0542232Y0062189D01*
X0542495Y0062043D01*
X0542761Y0061904D01*
X0543030Y0061771D01*
X0543303Y0061644D01*
X0543579Y0061525D01*
X0543857Y0061412D01*
X0544138Y0061306D01*
X0544422Y0061207D01*
X0544708Y0061115D01*
X0544997Y0061029D01*
X0545287Y0060951D01*
X0545579Y0060881D01*
X0545873Y0060817D01*
X0546168Y0060760D01*
X0546464Y0060711D01*
X0546762Y0060669D01*
X0547060Y0060634D01*
X0547360Y0060607D01*
X0547659Y0060586D01*
X0547960Y0060574D01*
X0548260Y0060568D01*
X0548561Y0060570D01*
X0548861Y0060579D01*
X0549161Y0060596D01*
X0549461Y0060620D01*
X0549760Y0060651D01*
X0550058Y0060690D01*
X0550355Y0060735D01*
X0550651Y0060788D01*
X0550945Y0060849D01*
X0551238Y0060916D01*
X0551529Y0060991D01*
X0551818Y0061073D01*
X0552106Y0061161D01*
X0552390Y0061257D01*
X0552673Y0061360D01*
X0552953Y0061469D01*
X0553230Y0061586D01*
X0553504Y0061709D01*
X0553775Y0061838D01*
X0554043Y0061975D01*
X0554307Y0062118D01*
X0554568Y0062267D01*
X0554825Y0062422D01*
X0555079Y0062584D01*
X0555328Y0062752D01*
X0555573Y0062926D01*
X0555814Y0063106D01*
X0556050Y0063292D01*
X0556281Y0063484D01*
X0556508Y0063681D01*
X0556730Y0063883D01*
X0556947Y0064091D01*
X0557159Y0064305D01*
X0557366Y0064523D01*
X0557567Y0064746D01*
X0557762Y0064975D01*
X0557952Y0065207D01*
X0558137Y0065445D01*
X0558061Y0065501D01*
X0557879Y0065266D01*
X0557690Y0065035D01*
X0557496Y0064808D01*
X0557296Y0064586D01*
X0557091Y0064370D01*
X0556881Y0064158D01*
X0556666Y0063952D01*
X0556446Y0063751D01*
X0556220Y0063555D01*
X0555991Y0063365D01*
X0555756Y0063181D01*
X0555517Y0063002D01*
X0555274Y0062829D01*
X0555027Y0062663D01*
X0554775Y0062502D01*
X0554520Y0062348D01*
X0554261Y0062200D01*
X0553999Y0062058D01*
X0553733Y0061923D01*
X0553464Y0061794D01*
X0553192Y0061672D01*
X0552917Y0061556D01*
X0552639Y0061447D01*
X0552359Y0061346D01*
X0552076Y0061251D01*
X0551791Y0061163D01*
X0551504Y0061082D01*
X0551216Y0061007D01*
X0550925Y0060941D01*
X0550633Y0060881D01*
X0550339Y0060828D01*
X0550044Y0060783D01*
X0549749Y0060744D01*
X0549452Y0060713D01*
X0549155Y0060690D01*
X0548857Y0060673D01*
X0548559Y0060664D01*
X0548261Y0060662D01*
X0547962Y0060668D01*
X0547664Y0060680D01*
X0547367Y0060700D01*
X0547070Y0060728D01*
X0546774Y0060762D01*
X0546478Y0060804D01*
X0546184Y0060853D01*
X0545891Y0060909D01*
X0545600Y0060972D01*
X0545310Y0061043D01*
X0545022Y0061120D01*
X0544736Y0061204D01*
X0544452Y0061296D01*
X0544170Y0061394D01*
X0543891Y0061499D01*
X0543615Y0061611D01*
X0543341Y0061730D01*
X0543071Y0061855D01*
X0542803Y0061987D01*
X0542539Y0062126D01*
X0542278Y0062271D01*
X0542021Y0062422D01*
X0541768Y0062579D01*
X0541519Y0062743D01*
X0541273Y0062913D01*
X0541032Y0063088D01*
X0540795Y0063270D01*
X0540563Y0063457D01*
X0540336Y0063649D01*
X0540113Y0063848D01*
X0539895Y0064051D01*
X0539682Y0064260D01*
X0539474Y0064474D01*
X0539272Y0064694D01*
X0539075Y0064917D01*
X0538884Y0065146D01*
X0538698Y0065380D01*
X0538518Y0065617D01*
X0538344Y0065859D01*
X0538176Y0066106D01*
X0538014Y0066356D01*
X0537858Y0066610D01*
X0537708Y0066868D01*
X0537565Y0067130D01*
X0537428Y0067395D01*
X0537297Y0067663D01*
X0537174Y0067934D01*
X0537057Y0068209D01*
X0536946Y0068486D01*
X0536843Y0068766D01*
X0536746Y0069048D01*
X0536656Y0069332D01*
X0536574Y0069619D01*
X0536498Y0069907D01*
X0536429Y0070197D01*
X0536368Y0070489D01*
X0536313Y0070782D01*
X0536266Y0071077D01*
X0536226Y0071372D01*
X0536193Y0071669D01*
X0536168Y0071966D01*
X0536150Y0072264D01*
X0536139Y0072562D01*
X0536135Y0072860D01*
X0536139Y0073158D01*
X0536150Y0073456D01*
X0536168Y0073754D01*
X0536193Y0074051D01*
X0536226Y0074348D01*
X0536266Y0074643D01*
X0536313Y0074938D01*
X0536368Y0075231D01*
X0536429Y0075523D01*
X0536498Y0075813D01*
X0536574Y0076101D01*
X0536656Y0076388D01*
X0536746Y0076672D01*
X0536843Y0076954D01*
X0536946Y0077234D01*
X0537057Y0077511D01*
X0537174Y0077786D01*
X0537297Y0078057D01*
X0537428Y0078325D01*
X0537565Y0078590D01*
X0537708Y0078852D01*
X0537858Y0079110D01*
X0538014Y0079364D01*
X0538176Y0079614D01*
X0538344Y0079861D01*
X0538518Y0080103D01*
X0538698Y0080340D01*
X0538884Y0080574D01*
X0539075Y0080803D01*
X0539272Y0081026D01*
X0539474Y0081246D01*
X0539682Y0081460D01*
X0539895Y0081669D01*
X0540113Y0081872D01*
X0540336Y0082071D01*
X0540563Y0082263D01*
X0540795Y0082450D01*
X0541032Y0082632D01*
X0541273Y0082807D01*
X0541519Y0082977D01*
X0541768Y0083141D01*
X0542021Y0083298D01*
X0542278Y0083449D01*
X0542539Y0083594D01*
X0542803Y0083733D01*
X0543071Y0083865D01*
X0543341Y0083990D01*
X0543615Y0084109D01*
X0543891Y0084221D01*
X0544170Y0084326D01*
X0544452Y0084424D01*
X0544736Y0084516D01*
X0545022Y0084600D01*
X0545310Y0084677D01*
X0545600Y0084748D01*
X0545891Y0084811D01*
X0546184Y0084867D01*
X0546478Y0084916D01*
X0546774Y0084958D01*
X0547070Y0084992D01*
X0547367Y0085020D01*
X0547664Y0085040D01*
X0547962Y0085052D01*
X0548261Y0085058D01*
X0548559Y0085056D01*
X0548857Y0085047D01*
X0549155Y0085030D01*
X0549452Y0085007D01*
X0549749Y0084976D01*
X0550044Y0084937D01*
X0550339Y0084892D01*
X0550633Y0084839D01*
X0550925Y0084779D01*
X0551216Y0084713D01*
X0551504Y0084638D01*
X0551791Y0084557D01*
X0552076Y0084469D01*
X0552359Y0084374D01*
X0552639Y0084273D01*
X0552917Y0084164D01*
X0553192Y0084048D01*
X0553464Y0083926D01*
X0553733Y0083797D01*
X0553999Y0083662D01*
X0554261Y0083520D01*
X0554520Y0083372D01*
X0554775Y0083218D01*
X0555027Y0083057D01*
X0555274Y0082891D01*
X0555517Y0082718D01*
X0555756Y0082539D01*
X0555991Y0082355D01*
X0556220Y0082165D01*
X0556446Y0081969D01*
X0556666Y0081768D01*
X0556881Y0081562D01*
X0557091Y0081350D01*
X0557296Y0081134D01*
X0557496Y0080912D01*
X0557690Y0080685D01*
X0557879Y0080454D01*
X0558061Y0080219D01*
X0557986Y0080162D01*
X0557805Y0080396D01*
X0557618Y0080625D01*
X0557425Y0080850D01*
X0557227Y0081070D01*
X0557024Y0081285D01*
X0556815Y0081495D01*
X0556601Y0081700D01*
X0556383Y0081899D01*
X0556159Y0082093D01*
X0555931Y0082282D01*
X0555699Y0082465D01*
X0555462Y0082642D01*
X0555220Y0082813D01*
X0554975Y0082979D01*
X0554726Y0083138D01*
X0554472Y0083291D01*
X0554216Y0083438D01*
X0553955Y0083579D01*
X0553691Y0083713D01*
X0553424Y0083841D01*
X0553154Y0083962D01*
X0552882Y0084077D01*
X0552606Y0084185D01*
X0552328Y0084286D01*
X0552047Y0084380D01*
X0551765Y0084467D01*
X0551480Y0084548D01*
X0551193Y0084621D01*
X0550905Y0084688D01*
X0550615Y0084747D01*
X0550323Y0084799D01*
X0550031Y0084844D01*
X0549737Y0084882D01*
X0549443Y0084913D01*
X0549148Y0084937D01*
X0548853Y0084953D01*
X0548557Y0084962D01*
X0548261Y0084964D01*
X0547965Y0084958D01*
X0547669Y0084946D01*
X0547374Y0084926D01*
X0547079Y0084899D01*
X0546785Y0084865D01*
X0546492Y0084823D01*
X0546200Y0084775D01*
X0545910Y0084719D01*
X0545621Y0084656D01*
X0545333Y0084586D01*
X0545047Y0084509D01*
X0544763Y0084426D01*
X0544482Y0084335D01*
X0544202Y0084237D01*
X0543925Y0084133D01*
X0543651Y0084022D01*
X0543380Y0083904D01*
X0543111Y0083780D01*
X0542846Y0083649D01*
X0542584Y0083511D01*
X0542325Y0083368D01*
X0542070Y0083218D01*
X0541818Y0083061D01*
X0541571Y0082899D01*
X0541328Y0082731D01*
X0541088Y0082556D01*
X0540853Y0082376D01*
X0540623Y0082191D01*
X0540397Y0081999D01*
X0540176Y0081803D01*
X0539960Y0081601D01*
X0539749Y0081393D01*
X0539543Y0081181D01*
X0539342Y0080963D01*
X0539146Y0080741D01*
X0538956Y0080514D01*
X0538772Y0080283D01*
X0538594Y0080047D01*
X0538421Y0079807D01*
X0538254Y0079562D01*
X0538093Y0079314D01*
X0537938Y0079061D01*
X0537790Y0078805D01*
X0537648Y0078546D01*
X0537512Y0078283D01*
X0537382Y0078017D01*
X0537260Y0077748D01*
X0537143Y0077475D01*
X0537034Y0077200D01*
X0536931Y0076923D01*
X0536835Y0076643D01*
X0536746Y0076361D01*
X0536664Y0076076D01*
X0536589Y0075790D01*
X0536521Y0075502D01*
X0536460Y0075213D01*
X0536406Y0074922D01*
X0536359Y0074629D01*
X0536319Y0074336D01*
X0536287Y0074042D01*
X0536262Y0073747D01*
X0536243Y0073452D01*
X0536233Y0073156D01*
X0536229Y0072860D01*
X0536233Y0072564D01*
X0536243Y0072268D01*
X0536262Y0071973D01*
X0536287Y0071678D01*
X0536319Y0071384D01*
X0536359Y0071091D01*
X0536406Y0070798D01*
X0536460Y0070507D01*
X0536521Y0070218D01*
X0536589Y0069930D01*
X0536664Y0069644D01*
X0536746Y0069359D01*
X0536835Y0069077D01*
X0536931Y0068797D01*
X0537034Y0068520D01*
X0537143Y0068245D01*
X0537260Y0067972D01*
X0537382Y0067703D01*
X0537512Y0067437D01*
X0537648Y0067174D01*
X0537790Y0066915D01*
X0537938Y0066659D01*
X0538093Y0066406D01*
X0538254Y0066158D01*
X0538421Y0065913D01*
X0538594Y0065673D01*
X0538772Y0065437D01*
X0538956Y0065206D01*
X0539146Y0064979D01*
X0539342Y0064757D01*
X0539543Y0064539D01*
X0539749Y0064327D01*
X0539960Y0064119D01*
X0540176Y0063917D01*
X0540397Y0063721D01*
X0540623Y0063529D01*
X0540853Y0063344D01*
X0541088Y0063164D01*
X0541328Y0062989D01*
X0541571Y0062821D01*
X0541818Y0062659D01*
X0542070Y0062502D01*
X0542325Y0062352D01*
X0542584Y0062209D01*
X0542846Y0062071D01*
X0543111Y0061940D01*
X0543380Y0061816D01*
X0543651Y0061698D01*
X0543925Y0061587D01*
X0544202Y0061483D01*
X0544482Y0061385D01*
X0544763Y0061294D01*
X0545047Y0061211D01*
X0545333Y0061134D01*
X0545621Y0061064D01*
X0545910Y0061001D01*
X0546200Y0060945D01*
X0546492Y0060897D01*
X0546785Y0060855D01*
X0547079Y0060821D01*
X0547374Y0060794D01*
X0547669Y0060774D01*
X0547965Y0060762D01*
X0548261Y0060756D01*
X0548557Y0060758D01*
X0548853Y0060767D01*
X0549148Y0060783D01*
X0549443Y0060807D01*
X0549737Y0060838D01*
X0550031Y0060876D01*
X0550323Y0060921D01*
X0550615Y0060973D01*
X0550905Y0061032D01*
X0551193Y0061099D01*
X0551480Y0061172D01*
X0551765Y0061253D01*
X0552047Y0061340D01*
X0552328Y0061434D01*
X0552606Y0061535D01*
X0552882Y0061643D01*
X0553154Y0061758D01*
X0553424Y0061879D01*
X0553691Y0062007D01*
X0553955Y0062141D01*
X0554216Y0062282D01*
X0554472Y0062429D01*
X0554726Y0062582D01*
X0554975Y0062741D01*
X0555220Y0062907D01*
X0555462Y0063078D01*
X0555699Y0063255D01*
X0555931Y0063438D01*
X0556159Y0063627D01*
X0556383Y0063821D01*
X0556601Y0064020D01*
X0556815Y0064225D01*
X0557024Y0064435D01*
X0557227Y0064650D01*
X0557425Y0064870D01*
X0557618Y0065095D01*
X0557805Y0065324D01*
X0557986Y0065558D01*
X0558662Y0040669D02*
X0557942Y0040129D01*
X0557943Y0040130D02*
X0557762Y0040363D01*
X0557576Y0040591D01*
X0557384Y0040815D01*
X0557187Y0041034D01*
X0556985Y0041248D01*
X0556777Y0041457D01*
X0556564Y0041660D01*
X0556347Y0041859D01*
X0556124Y0042052D01*
X0555897Y0042240D01*
X0555666Y0042422D01*
X0555430Y0042599D01*
X0555189Y0042769D01*
X0554945Y0042934D01*
X0554697Y0043092D01*
X0554445Y0043245D01*
X0554189Y0043391D01*
X0553930Y0043531D01*
X0553667Y0043665D01*
X0553402Y0043792D01*
X0553133Y0043913D01*
X0552861Y0044027D01*
X0552587Y0044134D01*
X0552310Y0044235D01*
X0552031Y0044329D01*
X0551749Y0044416D01*
X0551466Y0044496D01*
X0551180Y0044569D01*
X0550893Y0044635D01*
X0550604Y0044694D01*
X0550314Y0044746D01*
X0550023Y0044791D01*
X0549731Y0044829D01*
X0549438Y0044859D01*
X0549144Y0044883D01*
X0548850Y0044899D01*
X0548556Y0044908D01*
X0548261Y0044910D01*
X0547966Y0044904D01*
X0547672Y0044892D01*
X0547378Y0044872D01*
X0547085Y0044845D01*
X0546792Y0044811D01*
X0546500Y0044770D01*
X0546210Y0044721D01*
X0545920Y0044666D01*
X0545633Y0044604D01*
X0545346Y0044534D01*
X0545062Y0044457D01*
X0544779Y0044374D01*
X0544499Y0044284D01*
X0544221Y0044187D01*
X0543945Y0044083D01*
X0543672Y0043972D01*
X0543402Y0043855D01*
X0543134Y0043731D01*
X0542870Y0043601D01*
X0542609Y0043464D01*
X0542352Y0043321D01*
X0542098Y0043171D01*
X0541847Y0043016D01*
X0541601Y0042854D01*
X0541359Y0042687D01*
X0541121Y0042513D01*
X0540887Y0042334D01*
X0540657Y0042149D01*
X0540433Y0041959D01*
X0540212Y0041763D01*
X0539997Y0041562D01*
X0539787Y0041355D01*
X0539582Y0041144D01*
X0539382Y0040927D01*
X0539187Y0040706D01*
X0538998Y0040480D01*
X0538815Y0040250D01*
X0538637Y0040015D01*
X0538465Y0039775D01*
X0538299Y0039532D01*
X0538139Y0039285D01*
X0537985Y0039034D01*
X0537837Y0038779D01*
X0537695Y0038520D01*
X0537560Y0038259D01*
X0537431Y0037994D01*
X0537309Y0037726D01*
X0537193Y0037455D01*
X0537084Y0037181D01*
X0536982Y0036905D01*
X0536887Y0036626D01*
X0536798Y0036345D01*
X0536716Y0036062D01*
X0536641Y0035777D01*
X0536574Y0035490D01*
X0536513Y0035202D01*
X0536459Y0034912D01*
X0536412Y0034621D01*
X0536373Y0034329D01*
X0536341Y0034037D01*
X0536315Y0033743D01*
X0536297Y0033449D01*
X0536287Y0033155D01*
X0536283Y0032860D01*
X0536287Y0032565D01*
X0536297Y0032271D01*
X0536315Y0031977D01*
X0536341Y0031683D01*
X0536373Y0031391D01*
X0536412Y0031099D01*
X0536459Y0030808D01*
X0536513Y0030518D01*
X0536574Y0030230D01*
X0536641Y0029943D01*
X0536716Y0029658D01*
X0536798Y0029375D01*
X0536887Y0029094D01*
X0536982Y0028815D01*
X0537084Y0028539D01*
X0537193Y0028265D01*
X0537309Y0027994D01*
X0537431Y0027726D01*
X0537560Y0027461D01*
X0537695Y0027200D01*
X0537837Y0026941D01*
X0537985Y0026686D01*
X0538139Y0026435D01*
X0538299Y0026188D01*
X0538465Y0025945D01*
X0538637Y0025705D01*
X0538815Y0025470D01*
X0538998Y0025240D01*
X0539187Y0025014D01*
X0539382Y0024793D01*
X0539582Y0024576D01*
X0539787Y0024365D01*
X0539997Y0024158D01*
X0540212Y0023957D01*
X0540433Y0023761D01*
X0540657Y0023571D01*
X0540887Y0023386D01*
X0541121Y0023207D01*
X0541359Y0023033D01*
X0541601Y0022866D01*
X0541847Y0022704D01*
X0542098Y0022549D01*
X0542352Y0022399D01*
X0542609Y0022256D01*
X0542870Y0022119D01*
X0543134Y0021989D01*
X0543402Y0021865D01*
X0543672Y0021748D01*
X0543945Y0021637D01*
X0544221Y0021533D01*
X0544499Y0021436D01*
X0544779Y0021346D01*
X0545062Y0021263D01*
X0545346Y0021186D01*
X0545633Y0021116D01*
X0545920Y0021054D01*
X0546210Y0020999D01*
X0546500Y0020950D01*
X0546792Y0020909D01*
X0547085Y0020875D01*
X0547378Y0020848D01*
X0547672Y0020828D01*
X0547966Y0020816D01*
X0548261Y0020810D01*
X0548556Y0020812D01*
X0548850Y0020821D01*
X0549144Y0020837D01*
X0549438Y0020861D01*
X0549731Y0020891D01*
X0550023Y0020929D01*
X0550314Y0020974D01*
X0550604Y0021026D01*
X0550893Y0021085D01*
X0551180Y0021151D01*
X0551466Y0021224D01*
X0551749Y0021304D01*
X0552031Y0021391D01*
X0552310Y0021485D01*
X0552587Y0021586D01*
X0552861Y0021693D01*
X0553133Y0021807D01*
X0553402Y0021928D01*
X0553667Y0022055D01*
X0553930Y0022189D01*
X0554189Y0022329D01*
X0554445Y0022475D01*
X0554697Y0022628D01*
X0554945Y0022786D01*
X0555189Y0022951D01*
X0555430Y0023121D01*
X0555666Y0023298D01*
X0555897Y0023480D01*
X0556124Y0023668D01*
X0556347Y0023861D01*
X0556564Y0024060D01*
X0556777Y0024263D01*
X0556985Y0024472D01*
X0557187Y0024686D01*
X0557384Y0024905D01*
X0557576Y0025129D01*
X0557762Y0025357D01*
X0557943Y0025590D01*
X0558662Y0025051D01*
X0558663Y0025050D01*
X0558469Y0024800D01*
X0558269Y0024554D01*
X0558063Y0024314D01*
X0557851Y0024079D01*
X0557633Y0023849D01*
X0557410Y0023624D01*
X0557182Y0023405D01*
X0556948Y0023191D01*
X0556709Y0022983D01*
X0556465Y0022781D01*
X0556216Y0022586D01*
X0555962Y0022396D01*
X0555704Y0022213D01*
X0555442Y0022036D01*
X0555175Y0021865D01*
X0554904Y0021701D01*
X0554629Y0021544D01*
X0554351Y0021393D01*
X0554068Y0021249D01*
X0553783Y0021113D01*
X0553494Y0020983D01*
X0553202Y0020860D01*
X0552907Y0020745D01*
X0552610Y0020637D01*
X0552309Y0020536D01*
X0552007Y0020442D01*
X0551702Y0020356D01*
X0551395Y0020277D01*
X0551087Y0020206D01*
X0550777Y0020143D01*
X0550465Y0020087D01*
X0550152Y0020038D01*
X0549838Y0019998D01*
X0549523Y0019965D01*
X0549207Y0019940D01*
X0548891Y0019922D01*
X0548575Y0019912D01*
X0548258Y0019910D01*
X0547941Y0019916D01*
X0547625Y0019929D01*
X0547309Y0019951D01*
X0546994Y0019979D01*
X0546679Y0020016D01*
X0546366Y0020060D01*
X0546053Y0020112D01*
X0545742Y0020172D01*
X0545433Y0020239D01*
X0545125Y0020314D01*
X0544819Y0020396D01*
X0544516Y0020485D01*
X0544214Y0020582D01*
X0543915Y0020687D01*
X0543619Y0020799D01*
X0543325Y0020917D01*
X0543035Y0021043D01*
X0542748Y0021176D01*
X0542463Y0021317D01*
X0542183Y0021464D01*
X0541906Y0021617D01*
X0541633Y0021778D01*
X0541364Y0021945D01*
X0541099Y0022119D01*
X0540839Y0022299D01*
X0540583Y0022485D01*
X0540332Y0022678D01*
X0540085Y0022876D01*
X0539843Y0023081D01*
X0539607Y0023291D01*
X0539375Y0023508D01*
X0539150Y0023730D01*
X0538929Y0023957D01*
X0538714Y0024189D01*
X0538505Y0024427D01*
X0538302Y0024670D01*
X0538104Y0024918D01*
X0537913Y0025170D01*
X0537728Y0025427D01*
X0537550Y0025689D01*
X0537378Y0025955D01*
X0537212Y0026224D01*
X0537053Y0026498D01*
X0536901Y0026776D01*
X0536756Y0027057D01*
X0536617Y0027342D01*
X0536486Y0027630D01*
X0536362Y0027922D01*
X0536244Y0028216D01*
X0536134Y0028513D01*
X0536032Y0028812D01*
X0535937Y0029114D01*
X0535849Y0029418D01*
X0535768Y0029725D01*
X0535695Y0030033D01*
X0535630Y0030343D01*
X0535572Y0030654D01*
X0535522Y0030967D01*
X0535480Y0031281D01*
X0535445Y0031595D01*
X0535418Y0031911D01*
X0535398Y0032227D01*
X0535387Y0032543D01*
X0535383Y0032860D01*
X0535387Y0033177D01*
X0535398Y0033493D01*
X0535418Y0033809D01*
X0535445Y0034125D01*
X0535480Y0034439D01*
X0535522Y0034753D01*
X0535572Y0035066D01*
X0535630Y0035377D01*
X0535695Y0035687D01*
X0535768Y0035995D01*
X0535849Y0036302D01*
X0535937Y0036606D01*
X0536032Y0036908D01*
X0536134Y0037207D01*
X0536244Y0037504D01*
X0536362Y0037798D01*
X0536486Y0038090D01*
X0536617Y0038378D01*
X0536756Y0038663D01*
X0536901Y0038944D01*
X0537053Y0039222D01*
X0537212Y0039496D01*
X0537378Y0039765D01*
X0537550Y0040031D01*
X0537728Y0040293D01*
X0537913Y0040550D01*
X0538104Y0040802D01*
X0538302Y0041050D01*
X0538505Y0041293D01*
X0538714Y0041531D01*
X0538929Y0041763D01*
X0539150Y0041990D01*
X0539375Y0042212D01*
X0539607Y0042429D01*
X0539843Y0042639D01*
X0540085Y0042844D01*
X0540332Y0043042D01*
X0540583Y0043235D01*
X0540839Y0043421D01*
X0541099Y0043601D01*
X0541364Y0043775D01*
X0541633Y0043942D01*
X0541906Y0044103D01*
X0542183Y0044256D01*
X0542463Y0044403D01*
X0542748Y0044544D01*
X0543035Y0044677D01*
X0543325Y0044803D01*
X0543619Y0044921D01*
X0543915Y0045033D01*
X0544214Y0045138D01*
X0544516Y0045235D01*
X0544819Y0045324D01*
X0545125Y0045406D01*
X0545433Y0045481D01*
X0545742Y0045548D01*
X0546053Y0045608D01*
X0546366Y0045660D01*
X0546679Y0045704D01*
X0546994Y0045741D01*
X0547309Y0045769D01*
X0547625Y0045791D01*
X0547941Y0045804D01*
X0548258Y0045810D01*
X0548575Y0045808D01*
X0548891Y0045798D01*
X0549207Y0045780D01*
X0549523Y0045755D01*
X0549838Y0045722D01*
X0550152Y0045682D01*
X0550465Y0045633D01*
X0550777Y0045577D01*
X0551087Y0045514D01*
X0551395Y0045443D01*
X0551702Y0045364D01*
X0552007Y0045278D01*
X0552309Y0045184D01*
X0552610Y0045083D01*
X0552907Y0044975D01*
X0553202Y0044860D01*
X0553494Y0044737D01*
X0553783Y0044607D01*
X0554068Y0044471D01*
X0554351Y0044327D01*
X0554629Y0044176D01*
X0554904Y0044019D01*
X0555175Y0043855D01*
X0555442Y0043684D01*
X0555704Y0043507D01*
X0555962Y0043324D01*
X0556216Y0043134D01*
X0556465Y0042939D01*
X0556709Y0042737D01*
X0556948Y0042529D01*
X0557182Y0042315D01*
X0557410Y0042096D01*
X0557633Y0041871D01*
X0557851Y0041641D01*
X0558063Y0041406D01*
X0558269Y0041166D01*
X0558469Y0040920D01*
X0558663Y0040670D01*
X0558588Y0040614D01*
X0558395Y0040862D01*
X0558196Y0041106D01*
X0557992Y0041344D01*
X0557782Y0041578D01*
X0557566Y0041806D01*
X0557344Y0042029D01*
X0557117Y0042247D01*
X0556885Y0042459D01*
X0556648Y0042665D01*
X0556406Y0042866D01*
X0556158Y0043060D01*
X0555907Y0043248D01*
X0555650Y0043430D01*
X0555390Y0043606D01*
X0555125Y0043775D01*
X0554856Y0043938D01*
X0554583Y0044094D01*
X0554307Y0044244D01*
X0554027Y0044386D01*
X0553743Y0044522D01*
X0553456Y0044651D01*
X0553166Y0044773D01*
X0552874Y0044887D01*
X0552578Y0044995D01*
X0552280Y0045095D01*
X0551980Y0045188D01*
X0551677Y0045273D01*
X0551373Y0045351D01*
X0551067Y0045422D01*
X0550759Y0045485D01*
X0550449Y0045541D01*
X0550139Y0045589D01*
X0549827Y0045629D01*
X0549514Y0045662D01*
X0549201Y0045687D01*
X0548887Y0045704D01*
X0548573Y0045714D01*
X0548258Y0045716D01*
X0547944Y0045710D01*
X0547630Y0045697D01*
X0547316Y0045676D01*
X0547003Y0045647D01*
X0546691Y0045611D01*
X0546380Y0045567D01*
X0546070Y0045515D01*
X0545761Y0045456D01*
X0545454Y0045389D01*
X0545148Y0045315D01*
X0544845Y0045234D01*
X0544543Y0045145D01*
X0544244Y0045048D01*
X0543947Y0044945D01*
X0543653Y0044834D01*
X0543362Y0044716D01*
X0543073Y0044591D01*
X0542788Y0044459D01*
X0542506Y0044320D01*
X0542228Y0044174D01*
X0541953Y0044021D01*
X0541682Y0043862D01*
X0541415Y0043696D01*
X0541152Y0043523D01*
X0540893Y0043345D01*
X0540639Y0043160D01*
X0540390Y0042968D01*
X0540145Y0042771D01*
X0539905Y0042568D01*
X0539670Y0042359D01*
X0539440Y0042144D01*
X0539216Y0041924D01*
X0538997Y0041699D01*
X0538784Y0041468D01*
X0538576Y0041232D01*
X0538374Y0040990D01*
X0538179Y0040745D01*
X0537989Y0040494D01*
X0537805Y0040239D01*
X0537628Y0039979D01*
X0537457Y0039715D01*
X0537293Y0039447D01*
X0537135Y0039175D01*
X0536984Y0038900D01*
X0536840Y0038620D01*
X0536702Y0038338D01*
X0536572Y0038052D01*
X0536448Y0037763D01*
X0536332Y0037470D01*
X0536223Y0037176D01*
X0536121Y0036878D01*
X0536027Y0036579D01*
X0535939Y0036276D01*
X0535859Y0035972D01*
X0535787Y0035667D01*
X0535722Y0035359D01*
X0535665Y0035050D01*
X0535615Y0034739D01*
X0535573Y0034428D01*
X0535538Y0034115D01*
X0535512Y0033802D01*
X0535492Y0033488D01*
X0535481Y0033174D01*
X0535477Y0032860D01*
X0535481Y0032546D01*
X0535492Y0032232D01*
X0535512Y0031918D01*
X0535538Y0031605D01*
X0535573Y0031292D01*
X0535615Y0030981D01*
X0535665Y0030670D01*
X0535722Y0030361D01*
X0535787Y0030053D01*
X0535859Y0029748D01*
X0535939Y0029444D01*
X0536027Y0029141D01*
X0536121Y0028842D01*
X0536223Y0028544D01*
X0536332Y0028250D01*
X0536448Y0027957D01*
X0536572Y0027668D01*
X0536702Y0027382D01*
X0536840Y0027100D01*
X0536984Y0026820D01*
X0537135Y0026545D01*
X0537293Y0026273D01*
X0537457Y0026005D01*
X0537628Y0025741D01*
X0537805Y0025481D01*
X0537989Y0025226D01*
X0538179Y0024975D01*
X0538374Y0024730D01*
X0538576Y0024488D01*
X0538784Y0024252D01*
X0538997Y0024021D01*
X0539216Y0023796D01*
X0539440Y0023576D01*
X0539670Y0023361D01*
X0539905Y0023152D01*
X0540145Y0022949D01*
X0540390Y0022752D01*
X0540639Y0022560D01*
X0540893Y0022375D01*
X0541152Y0022197D01*
X0541415Y0022024D01*
X0541682Y0021858D01*
X0541953Y0021699D01*
X0542228Y0021546D01*
X0542506Y0021400D01*
X0542788Y0021261D01*
X0543073Y0021129D01*
X0543362Y0021004D01*
X0543653Y0020886D01*
X0543947Y0020775D01*
X0544244Y0020672D01*
X0544543Y0020575D01*
X0544845Y0020486D01*
X0545148Y0020405D01*
X0545454Y0020331D01*
X0545761Y0020264D01*
X0546070Y0020205D01*
X0546380Y0020153D01*
X0546691Y0020109D01*
X0547003Y0020073D01*
X0547316Y0020044D01*
X0547630Y0020023D01*
X0547944Y0020010D01*
X0548258Y0020004D01*
X0548573Y0020006D01*
X0548887Y0020016D01*
X0549201Y0020033D01*
X0549514Y0020058D01*
X0549827Y0020091D01*
X0550139Y0020131D01*
X0550449Y0020179D01*
X0550759Y0020235D01*
X0551067Y0020298D01*
X0551373Y0020369D01*
X0551677Y0020447D01*
X0551980Y0020532D01*
X0552280Y0020625D01*
X0552578Y0020725D01*
X0552874Y0020833D01*
X0553166Y0020947D01*
X0553456Y0021069D01*
X0553743Y0021198D01*
X0554027Y0021334D01*
X0554307Y0021476D01*
X0554583Y0021626D01*
X0554856Y0021782D01*
X0555125Y0021945D01*
X0555390Y0022114D01*
X0555650Y0022290D01*
X0555907Y0022472D01*
X0556158Y0022660D01*
X0556406Y0022854D01*
X0556648Y0023055D01*
X0556885Y0023261D01*
X0557117Y0023473D01*
X0557344Y0023691D01*
X0557566Y0023914D01*
X0557782Y0024142D01*
X0557992Y0024376D01*
X0558196Y0024614D01*
X0558395Y0024858D01*
X0558588Y0025106D01*
X0558513Y0025163D01*
X0558321Y0024916D01*
X0558124Y0024674D01*
X0557921Y0024437D01*
X0557712Y0024206D01*
X0557498Y0023979D01*
X0557278Y0023757D01*
X0557053Y0023541D01*
X0556822Y0023331D01*
X0556587Y0023126D01*
X0556346Y0022927D01*
X0556101Y0022734D01*
X0555851Y0022548D01*
X0555597Y0022367D01*
X0555338Y0022192D01*
X0555075Y0022024D01*
X0554808Y0021863D01*
X0554537Y0021708D01*
X0554263Y0021559D01*
X0553985Y0021418D01*
X0553703Y0021283D01*
X0553419Y0021155D01*
X0553131Y0021034D01*
X0552840Y0020920D01*
X0552547Y0020814D01*
X0552251Y0020714D01*
X0551953Y0020622D01*
X0551653Y0020537D01*
X0551350Y0020460D01*
X0551046Y0020390D01*
X0550741Y0020327D01*
X0550434Y0020272D01*
X0550125Y0020224D01*
X0549816Y0020184D01*
X0549505Y0020152D01*
X0549194Y0020127D01*
X0548883Y0020110D01*
X0548571Y0020100D01*
X0548259Y0020098D01*
X0547947Y0020104D01*
X0547635Y0020117D01*
X0547324Y0020138D01*
X0547013Y0020166D01*
X0546703Y0020203D01*
X0546394Y0020246D01*
X0546086Y0020297D01*
X0545779Y0020356D01*
X0545475Y0020422D01*
X0545171Y0020496D01*
X0544870Y0020577D01*
X0544571Y0020665D01*
X0544274Y0020761D01*
X0543979Y0020864D01*
X0543687Y0020974D01*
X0543398Y0021091D01*
X0543111Y0021215D01*
X0542828Y0021346D01*
X0542548Y0021484D01*
X0542272Y0021629D01*
X0541999Y0021781D01*
X0541730Y0021939D01*
X0541465Y0022104D01*
X0541204Y0022275D01*
X0540948Y0022452D01*
X0540695Y0022636D01*
X0540448Y0022826D01*
X0540205Y0023021D01*
X0539966Y0023223D01*
X0539733Y0023431D01*
X0539505Y0023644D01*
X0539283Y0023862D01*
X0539065Y0024086D01*
X0538854Y0024315D01*
X0538648Y0024550D01*
X0538447Y0024789D01*
X0538253Y0025033D01*
X0538065Y0025282D01*
X0537882Y0025535D01*
X0537706Y0025793D01*
X0537537Y0026055D01*
X0537374Y0026321D01*
X0537217Y0026591D01*
X0537067Y0026865D01*
X0536924Y0027142D01*
X0536787Y0027422D01*
X0536658Y0027706D01*
X0536535Y0027993D01*
X0536420Y0028283D01*
X0536312Y0028576D01*
X0536210Y0028871D01*
X0536116Y0029169D01*
X0536030Y0029469D01*
X0535951Y0029770D01*
X0535879Y0030074D01*
X0535814Y0030379D01*
X0535757Y0030686D01*
X0535708Y0030994D01*
X0535666Y0031304D01*
X0535632Y0031614D01*
X0535605Y0031925D01*
X0535586Y0032236D01*
X0535575Y0032548D01*
X0535571Y0032860D01*
X0535575Y0033172D01*
X0535586Y0033484D01*
X0535605Y0033795D01*
X0535632Y0034106D01*
X0535666Y0034416D01*
X0535708Y0034726D01*
X0535757Y0035034D01*
X0535814Y0035341D01*
X0535879Y0035646D01*
X0535951Y0035950D01*
X0536030Y0036251D01*
X0536116Y0036551D01*
X0536210Y0036849D01*
X0536312Y0037144D01*
X0536420Y0037437D01*
X0536535Y0037727D01*
X0536658Y0038014D01*
X0536787Y0038298D01*
X0536924Y0038578D01*
X0537067Y0038855D01*
X0537217Y0039129D01*
X0537374Y0039399D01*
X0537537Y0039665D01*
X0537706Y0039927D01*
X0537882Y0040185D01*
X0538065Y0040438D01*
X0538253Y0040687D01*
X0538447Y0040931D01*
X0538648Y0041170D01*
X0538854Y0041405D01*
X0539065Y0041634D01*
X0539283Y0041858D01*
X0539505Y0042076D01*
X0539733Y0042289D01*
X0539966Y0042497D01*
X0540205Y0042699D01*
X0540448Y0042894D01*
X0540695Y0043084D01*
X0540948Y0043268D01*
X0541204Y0043445D01*
X0541465Y0043616D01*
X0541730Y0043781D01*
X0541999Y0043939D01*
X0542272Y0044091D01*
X0542548Y0044236D01*
X0542828Y0044374D01*
X0543111Y0044505D01*
X0543398Y0044629D01*
X0543687Y0044746D01*
X0543979Y0044856D01*
X0544274Y0044959D01*
X0544571Y0045055D01*
X0544870Y0045143D01*
X0545171Y0045224D01*
X0545475Y0045298D01*
X0545779Y0045364D01*
X0546086Y0045423D01*
X0546394Y0045474D01*
X0546703Y0045517D01*
X0547013Y0045554D01*
X0547324Y0045582D01*
X0547635Y0045603D01*
X0547947Y0045616D01*
X0548259Y0045622D01*
X0548571Y0045620D01*
X0548883Y0045610D01*
X0549194Y0045593D01*
X0549505Y0045568D01*
X0549816Y0045536D01*
X0550125Y0045496D01*
X0550434Y0045448D01*
X0550741Y0045393D01*
X0551046Y0045330D01*
X0551350Y0045260D01*
X0551653Y0045183D01*
X0551953Y0045098D01*
X0552251Y0045006D01*
X0552547Y0044906D01*
X0552840Y0044800D01*
X0553131Y0044686D01*
X0553419Y0044565D01*
X0553703Y0044437D01*
X0553985Y0044302D01*
X0554263Y0044161D01*
X0554537Y0044012D01*
X0554808Y0043857D01*
X0555075Y0043696D01*
X0555338Y0043528D01*
X0555597Y0043353D01*
X0555851Y0043172D01*
X0556101Y0042986D01*
X0556346Y0042793D01*
X0556587Y0042594D01*
X0556822Y0042389D01*
X0557053Y0042179D01*
X0557278Y0041963D01*
X0557498Y0041741D01*
X0557712Y0041514D01*
X0557921Y0041283D01*
X0558124Y0041046D01*
X0558321Y0040804D01*
X0558513Y0040557D01*
X0558437Y0040501D01*
X0558247Y0040746D01*
X0558052Y0040986D01*
X0557850Y0041221D01*
X0557643Y0041451D01*
X0557430Y0041676D01*
X0557212Y0041896D01*
X0556988Y0042110D01*
X0556759Y0042319D01*
X0556526Y0042522D01*
X0556287Y0042720D01*
X0556044Y0042911D01*
X0555795Y0043097D01*
X0555543Y0043276D01*
X0555286Y0043449D01*
X0555025Y0043616D01*
X0554760Y0043777D01*
X0554491Y0043930D01*
X0554219Y0044078D01*
X0553943Y0044218D01*
X0553663Y0044352D01*
X0553381Y0044479D01*
X0553095Y0044599D01*
X0552807Y0044712D01*
X0552516Y0044818D01*
X0552222Y0044916D01*
X0551926Y0045008D01*
X0551628Y0045092D01*
X0551328Y0045169D01*
X0551026Y0045238D01*
X0550723Y0045301D01*
X0550418Y0045355D01*
X0550112Y0045403D01*
X0549804Y0045442D01*
X0549496Y0045474D01*
X0549188Y0045499D01*
X0548878Y0045516D01*
X0548569Y0045526D01*
X0548259Y0045528D01*
X0547949Y0045522D01*
X0547640Y0045509D01*
X0547331Y0045488D01*
X0547022Y0045460D01*
X0546715Y0045424D01*
X0546408Y0045381D01*
X0546102Y0045330D01*
X0545798Y0045272D01*
X0545495Y0045206D01*
X0545194Y0045133D01*
X0544895Y0045053D01*
X0544598Y0044965D01*
X0544303Y0044870D01*
X0544011Y0044768D01*
X0543721Y0044659D01*
X0543434Y0044542D01*
X0543150Y0044419D01*
X0542869Y0044289D01*
X0542591Y0044152D01*
X0542317Y0044008D01*
X0542046Y0043858D01*
X0541779Y0043701D01*
X0541516Y0043537D01*
X0541257Y0043367D01*
X0541002Y0043191D01*
X0540751Y0043009D01*
X0540506Y0042820D01*
X0540264Y0042626D01*
X0540028Y0042426D01*
X0539797Y0042220D01*
X0539570Y0042008D01*
X0539349Y0041791D01*
X0539134Y0041569D01*
X0538923Y0041342D01*
X0538719Y0041109D01*
X0538520Y0040871D01*
X0538327Y0040629D01*
X0538140Y0040382D01*
X0537959Y0040131D01*
X0537785Y0039875D01*
X0537616Y0039615D01*
X0537454Y0039351D01*
X0537299Y0039083D01*
X0537150Y0038811D01*
X0537008Y0038536D01*
X0536872Y0038257D01*
X0536744Y0037976D01*
X0536622Y0037691D01*
X0536508Y0037403D01*
X0536400Y0037112D01*
X0536300Y0036819D01*
X0536206Y0036524D01*
X0536120Y0036226D01*
X0536042Y0035927D01*
X0535971Y0035625D01*
X0535907Y0035322D01*
X0535850Y0035018D01*
X0535801Y0034712D01*
X0535760Y0034405D01*
X0535726Y0034097D01*
X0535699Y0033788D01*
X0535680Y0033479D01*
X0535669Y0033170D01*
X0535665Y0032860D01*
X0535669Y0032550D01*
X0535680Y0032241D01*
X0535699Y0031932D01*
X0535726Y0031623D01*
X0535760Y0031315D01*
X0535801Y0031008D01*
X0535850Y0030702D01*
X0535907Y0030398D01*
X0535971Y0030095D01*
X0536042Y0029793D01*
X0536120Y0029494D01*
X0536206Y0029196D01*
X0536300Y0028901D01*
X0536400Y0028608D01*
X0536508Y0028317D01*
X0536622Y0028029D01*
X0536744Y0027744D01*
X0536872Y0027463D01*
X0537008Y0027184D01*
X0537150Y0026909D01*
X0537299Y0026637D01*
X0537454Y0026369D01*
X0537616Y0026105D01*
X0537785Y0025845D01*
X0537959Y0025589D01*
X0538140Y0025338D01*
X0538327Y0025091D01*
X0538520Y0024849D01*
X0538719Y0024611D01*
X0538923Y0024378D01*
X0539134Y0024151D01*
X0539349Y0023929D01*
X0539570Y0023712D01*
X0539797Y0023500D01*
X0540028Y0023294D01*
X0540264Y0023094D01*
X0540506Y0022900D01*
X0540751Y0022711D01*
X0541002Y0022529D01*
X0541257Y0022353D01*
X0541516Y0022183D01*
X0541779Y0022019D01*
X0542046Y0021862D01*
X0542317Y0021712D01*
X0542591Y0021568D01*
X0542869Y0021431D01*
X0543150Y0021301D01*
X0543434Y0021178D01*
X0543721Y0021061D01*
X0544011Y0020952D01*
X0544303Y0020850D01*
X0544598Y0020755D01*
X0544895Y0020667D01*
X0545194Y0020587D01*
X0545495Y0020514D01*
X0545798Y0020448D01*
X0546102Y0020390D01*
X0546408Y0020339D01*
X0546715Y0020296D01*
X0547022Y0020260D01*
X0547331Y0020232D01*
X0547640Y0020211D01*
X0547949Y0020198D01*
X0548259Y0020192D01*
X0548569Y0020194D01*
X0548878Y0020204D01*
X0549188Y0020221D01*
X0549496Y0020246D01*
X0549804Y0020278D01*
X0550112Y0020317D01*
X0550418Y0020365D01*
X0550723Y0020419D01*
X0551026Y0020482D01*
X0551328Y0020551D01*
X0551628Y0020628D01*
X0551926Y0020712D01*
X0552222Y0020804D01*
X0552516Y0020902D01*
X0552807Y0021008D01*
X0553095Y0021121D01*
X0553381Y0021241D01*
X0553663Y0021368D01*
X0553943Y0021502D01*
X0554219Y0021642D01*
X0554491Y0021790D01*
X0554760Y0021943D01*
X0555025Y0022104D01*
X0555286Y0022271D01*
X0555543Y0022444D01*
X0555795Y0022623D01*
X0556044Y0022809D01*
X0556287Y0023000D01*
X0556526Y0023198D01*
X0556759Y0023401D01*
X0556988Y0023610D01*
X0557212Y0023824D01*
X0557430Y0024044D01*
X0557643Y0024269D01*
X0557850Y0024499D01*
X0558052Y0024734D01*
X0558247Y0024974D01*
X0558437Y0025219D01*
X0558362Y0025276D01*
X0558174Y0025033D01*
X0557979Y0024794D01*
X0557779Y0024561D01*
X0557574Y0024333D01*
X0557362Y0024109D01*
X0557146Y0023891D01*
X0556924Y0023678D01*
X0556697Y0023471D01*
X0556465Y0023269D01*
X0556228Y0023073D01*
X0555986Y0022883D01*
X0555740Y0022699D01*
X0555489Y0022521D01*
X0555234Y0022349D01*
X0554975Y0022184D01*
X0554712Y0022024D01*
X0554445Y0021872D01*
X0554175Y0021725D01*
X0553901Y0021586D01*
X0553624Y0021453D01*
X0553343Y0021327D01*
X0553060Y0021208D01*
X0552773Y0021096D01*
X0552484Y0020991D01*
X0552193Y0020893D01*
X0551899Y0020802D01*
X0551603Y0020719D01*
X0551306Y0020642D01*
X0551006Y0020573D01*
X0550705Y0020512D01*
X0550402Y0020457D01*
X0550098Y0020411D01*
X0549793Y0020371D01*
X0549488Y0020339D01*
X0549181Y0020315D01*
X0548874Y0020298D01*
X0548567Y0020288D01*
X0548259Y0020286D01*
X0547952Y0020292D01*
X0547645Y0020305D01*
X0547338Y0020325D01*
X0547032Y0020354D01*
X0546726Y0020389D01*
X0546422Y0020432D01*
X0546119Y0020483D01*
X0545817Y0020540D01*
X0545516Y0020606D01*
X0545217Y0020678D01*
X0544921Y0020758D01*
X0544626Y0020845D01*
X0544333Y0020939D01*
X0544043Y0021041D01*
X0543755Y0021149D01*
X0543470Y0021264D01*
X0543188Y0021387D01*
X0542909Y0021516D01*
X0542633Y0021652D01*
X0542361Y0021795D01*
X0542092Y0021944D01*
X0541827Y0022100D01*
X0541566Y0022262D01*
X0541309Y0022431D01*
X0541056Y0022606D01*
X0540808Y0022787D01*
X0540564Y0022974D01*
X0540324Y0023167D01*
X0540090Y0023365D01*
X0539860Y0023570D01*
X0539635Y0023780D01*
X0539416Y0023995D01*
X0539202Y0024216D01*
X0538993Y0024441D01*
X0538790Y0024672D01*
X0538593Y0024908D01*
X0538401Y0025149D01*
X0538216Y0025394D01*
X0538036Y0025643D01*
X0537863Y0025897D01*
X0537696Y0026155D01*
X0537535Y0026417D01*
X0537381Y0026683D01*
X0537233Y0026953D01*
X0537092Y0027226D01*
X0536957Y0027503D01*
X0536830Y0027782D01*
X0536709Y0028065D01*
X0536595Y0028351D01*
X0536489Y0028639D01*
X0536389Y0028930D01*
X0536296Y0029223D01*
X0536211Y0029519D01*
X0536133Y0029816D01*
X0536062Y0030115D01*
X0535999Y0030416D01*
X0535943Y0030718D01*
X0535894Y0031022D01*
X0535853Y0031327D01*
X0535819Y0031632D01*
X0535793Y0031938D01*
X0535774Y0032245D01*
X0535763Y0032553D01*
X0535759Y0032860D01*
X0535763Y0033167D01*
X0535774Y0033475D01*
X0535793Y0033782D01*
X0535819Y0034088D01*
X0535853Y0034393D01*
X0535894Y0034698D01*
X0535943Y0035002D01*
X0535999Y0035304D01*
X0536062Y0035605D01*
X0536133Y0035904D01*
X0536211Y0036201D01*
X0536296Y0036497D01*
X0536389Y0036790D01*
X0536489Y0037081D01*
X0536595Y0037369D01*
X0536709Y0037655D01*
X0536830Y0037938D01*
X0536957Y0038217D01*
X0537092Y0038494D01*
X0537233Y0038767D01*
X0537381Y0039037D01*
X0537535Y0039303D01*
X0537696Y0039565D01*
X0537863Y0039823D01*
X0538036Y0040077D01*
X0538216Y0040326D01*
X0538401Y0040571D01*
X0538593Y0040812D01*
X0538790Y0041048D01*
X0538993Y0041279D01*
X0539202Y0041504D01*
X0539416Y0041725D01*
X0539635Y0041940D01*
X0539860Y0042150D01*
X0540090Y0042355D01*
X0540324Y0042553D01*
X0540564Y0042746D01*
X0540808Y0042933D01*
X0541056Y0043114D01*
X0541309Y0043289D01*
X0541566Y0043458D01*
X0541827Y0043620D01*
X0542092Y0043776D01*
X0542361Y0043925D01*
X0542633Y0044068D01*
X0542909Y0044204D01*
X0543188Y0044333D01*
X0543470Y0044456D01*
X0543755Y0044571D01*
X0544043Y0044679D01*
X0544333Y0044781D01*
X0544626Y0044875D01*
X0544921Y0044962D01*
X0545217Y0045042D01*
X0545516Y0045114D01*
X0545817Y0045180D01*
X0546119Y0045237D01*
X0546422Y0045288D01*
X0546726Y0045331D01*
X0547032Y0045366D01*
X0547338Y0045395D01*
X0547645Y0045415D01*
X0547952Y0045428D01*
X0548259Y0045434D01*
X0548567Y0045432D01*
X0548874Y0045422D01*
X0549181Y0045405D01*
X0549488Y0045381D01*
X0549793Y0045349D01*
X0550098Y0045309D01*
X0550402Y0045263D01*
X0550705Y0045208D01*
X0551006Y0045147D01*
X0551306Y0045078D01*
X0551603Y0045001D01*
X0551899Y0044918D01*
X0552193Y0044827D01*
X0552484Y0044729D01*
X0552773Y0044624D01*
X0553060Y0044512D01*
X0553343Y0044393D01*
X0553624Y0044267D01*
X0553901Y0044134D01*
X0554175Y0043995D01*
X0554445Y0043848D01*
X0554712Y0043696D01*
X0554975Y0043536D01*
X0555234Y0043371D01*
X0555489Y0043199D01*
X0555740Y0043021D01*
X0555986Y0042837D01*
X0556228Y0042647D01*
X0556465Y0042451D01*
X0556697Y0042249D01*
X0556924Y0042042D01*
X0557146Y0041829D01*
X0557362Y0041611D01*
X0557574Y0041387D01*
X0557779Y0041159D01*
X0557979Y0040926D01*
X0558174Y0040687D01*
X0558362Y0040444D01*
X0558287Y0040388D01*
X0558100Y0040629D01*
X0557907Y0040866D01*
X0557708Y0041097D01*
X0557504Y0041324D01*
X0557295Y0041546D01*
X0557080Y0041762D01*
X0556859Y0041973D01*
X0556634Y0042179D01*
X0556404Y0042379D01*
X0556168Y0042574D01*
X0555929Y0042762D01*
X0555684Y0042945D01*
X0555435Y0043122D01*
X0555182Y0043292D01*
X0554925Y0043457D01*
X0554664Y0043615D01*
X0554399Y0043766D01*
X0554131Y0043911D01*
X0553859Y0044050D01*
X0553584Y0044182D01*
X0553305Y0044307D01*
X0553024Y0044425D01*
X0552740Y0044536D01*
X0552453Y0044640D01*
X0552164Y0044738D01*
X0551872Y0044828D01*
X0551579Y0044911D01*
X0551283Y0044986D01*
X0550986Y0045055D01*
X0550687Y0045116D01*
X0550386Y0045170D01*
X0550085Y0045216D01*
X0549782Y0045256D01*
X0549479Y0045287D01*
X0549174Y0045312D01*
X0548870Y0045328D01*
X0548565Y0045338D01*
X0548260Y0045340D01*
X0547955Y0045334D01*
X0547650Y0045321D01*
X0547345Y0045301D01*
X0547041Y0045273D01*
X0546738Y0045238D01*
X0546436Y0045195D01*
X0546135Y0045145D01*
X0545835Y0045088D01*
X0545537Y0045023D01*
X0545241Y0044951D01*
X0544946Y0044872D01*
X0544653Y0044785D01*
X0544363Y0044692D01*
X0544075Y0044591D01*
X0543789Y0044483D01*
X0543506Y0044369D01*
X0543226Y0044247D01*
X0542949Y0044119D01*
X0542676Y0043984D01*
X0542406Y0043843D01*
X0542139Y0043694D01*
X0541876Y0043540D01*
X0541617Y0043379D01*
X0541361Y0043211D01*
X0541110Y0043038D01*
X0540864Y0042858D01*
X0540622Y0042672D01*
X0540384Y0042481D01*
X0540151Y0042284D01*
X0539923Y0042081D01*
X0539700Y0041872D01*
X0539482Y0041659D01*
X0539270Y0041440D01*
X0539063Y0041216D01*
X0538861Y0040986D01*
X0538665Y0040752D01*
X0538475Y0040514D01*
X0538291Y0040270D01*
X0538113Y0040023D01*
X0537941Y0039771D01*
X0537775Y0039514D01*
X0537616Y0039254D01*
X0537462Y0038990D01*
X0537316Y0038723D01*
X0537176Y0038452D01*
X0537042Y0038177D01*
X0536916Y0037900D01*
X0536796Y0037619D01*
X0536683Y0037335D01*
X0536577Y0037049D01*
X0536478Y0036761D01*
X0536386Y0036470D01*
X0536302Y0036176D01*
X0536224Y0035881D01*
X0536154Y0035584D01*
X0536091Y0035286D01*
X0536035Y0034986D01*
X0535987Y0034684D01*
X0535946Y0034382D01*
X0535913Y0034079D01*
X0535887Y0033775D01*
X0535868Y0033470D01*
X0535857Y0033165D01*
X0535853Y0032860D01*
X0535857Y0032555D01*
X0535868Y0032250D01*
X0535887Y0031945D01*
X0535913Y0031641D01*
X0535946Y0031338D01*
X0535987Y0031036D01*
X0536035Y0030734D01*
X0536091Y0030434D01*
X0536154Y0030136D01*
X0536224Y0029839D01*
X0536302Y0029544D01*
X0536386Y0029250D01*
X0536478Y0028959D01*
X0536577Y0028671D01*
X0536683Y0028385D01*
X0536796Y0028101D01*
X0536916Y0027820D01*
X0537042Y0027543D01*
X0537176Y0027268D01*
X0537316Y0026997D01*
X0537462Y0026730D01*
X0537616Y0026466D01*
X0537775Y0026206D01*
X0537941Y0025949D01*
X0538113Y0025697D01*
X0538291Y0025450D01*
X0538475Y0025206D01*
X0538665Y0024968D01*
X0538861Y0024734D01*
X0539063Y0024504D01*
X0539270Y0024280D01*
X0539482Y0024061D01*
X0539700Y0023848D01*
X0539923Y0023639D01*
X0540151Y0023436D01*
X0540384Y0023239D01*
X0540622Y0023048D01*
X0540864Y0022862D01*
X0541110Y0022682D01*
X0541361Y0022509D01*
X0541617Y0022341D01*
X0541876Y0022180D01*
X0542139Y0022026D01*
X0542406Y0021877D01*
X0542676Y0021736D01*
X0542949Y0021601D01*
X0543226Y0021473D01*
X0543506Y0021351D01*
X0543789Y0021237D01*
X0544075Y0021129D01*
X0544363Y0021028D01*
X0544653Y0020935D01*
X0544946Y0020848D01*
X0545241Y0020769D01*
X0545537Y0020697D01*
X0545835Y0020632D01*
X0546135Y0020575D01*
X0546436Y0020525D01*
X0546738Y0020482D01*
X0547041Y0020447D01*
X0547345Y0020419D01*
X0547650Y0020399D01*
X0547955Y0020386D01*
X0548260Y0020380D01*
X0548565Y0020382D01*
X0548870Y0020392D01*
X0549174Y0020408D01*
X0549479Y0020433D01*
X0549782Y0020464D01*
X0550085Y0020504D01*
X0550386Y0020550D01*
X0550687Y0020604D01*
X0550986Y0020665D01*
X0551283Y0020734D01*
X0551579Y0020809D01*
X0551872Y0020892D01*
X0552164Y0020982D01*
X0552453Y0021080D01*
X0552740Y0021184D01*
X0553024Y0021295D01*
X0553305Y0021413D01*
X0553584Y0021538D01*
X0553859Y0021670D01*
X0554131Y0021809D01*
X0554399Y0021954D01*
X0554664Y0022105D01*
X0554925Y0022263D01*
X0555182Y0022428D01*
X0555435Y0022598D01*
X0555684Y0022775D01*
X0555929Y0022958D01*
X0556168Y0023146D01*
X0556404Y0023341D01*
X0556634Y0023541D01*
X0556859Y0023747D01*
X0557080Y0023958D01*
X0557295Y0024174D01*
X0557504Y0024396D01*
X0557708Y0024623D01*
X0557907Y0024854D01*
X0558100Y0025091D01*
X0558287Y0025332D01*
X0558212Y0025388D01*
X0558026Y0025149D01*
X0557835Y0024914D01*
X0557638Y0024685D01*
X0557435Y0024460D01*
X0557227Y0024239D01*
X0557013Y0024025D01*
X0556795Y0023815D01*
X0556571Y0023611D01*
X0556343Y0023412D01*
X0556109Y0023219D01*
X0555871Y0023032D01*
X0555629Y0022851D01*
X0555382Y0022675D01*
X0555131Y0022506D01*
X0554875Y0022343D01*
X0554616Y0022186D01*
X0554353Y0022036D01*
X0554087Y0021892D01*
X0553817Y0021754D01*
X0553544Y0021623D01*
X0553268Y0021499D01*
X0552988Y0021382D01*
X0552706Y0021272D01*
X0552422Y0021168D01*
X0552135Y0021072D01*
X0551845Y0020982D01*
X0551554Y0020900D01*
X0551261Y0020825D01*
X0550965Y0020757D01*
X0550669Y0020696D01*
X0550371Y0020643D01*
X0550071Y0020597D01*
X0549771Y0020558D01*
X0549470Y0020526D01*
X0549168Y0020502D01*
X0548865Y0020485D01*
X0548563Y0020476D01*
X0548260Y0020474D01*
X0547957Y0020480D01*
X0547655Y0020493D01*
X0547352Y0020513D01*
X0547051Y0020541D01*
X0546750Y0020576D01*
X0546450Y0020618D01*
X0546151Y0020668D01*
X0545854Y0020725D01*
X0545558Y0020789D01*
X0545264Y0020860D01*
X0544971Y0020939D01*
X0544681Y0021025D01*
X0544392Y0021118D01*
X0544107Y0021217D01*
X0543823Y0021324D01*
X0543543Y0021438D01*
X0543265Y0021558D01*
X0542990Y0021686D01*
X0542718Y0021820D01*
X0542450Y0021960D01*
X0542185Y0022107D01*
X0541924Y0022261D01*
X0541667Y0022421D01*
X0541414Y0022587D01*
X0541165Y0022759D01*
X0540920Y0022937D01*
X0540679Y0023122D01*
X0540444Y0023312D01*
X0540213Y0023507D01*
X0539986Y0023709D01*
X0539765Y0023915D01*
X0539549Y0024128D01*
X0539338Y0024345D01*
X0539133Y0024567D01*
X0538933Y0024795D01*
X0538738Y0025027D01*
X0538550Y0025264D01*
X0538367Y0025506D01*
X0538190Y0025751D01*
X0538019Y0026002D01*
X0537855Y0026256D01*
X0537696Y0026514D01*
X0537544Y0026776D01*
X0537399Y0027041D01*
X0537260Y0027310D01*
X0537127Y0027583D01*
X0537002Y0027858D01*
X0536883Y0028137D01*
X0536771Y0028418D01*
X0536666Y0028702D01*
X0536567Y0028989D01*
X0536476Y0029278D01*
X0536392Y0029569D01*
X0536315Y0029862D01*
X0536246Y0030156D01*
X0536183Y0030453D01*
X0536128Y0030750D01*
X0536080Y0031049D01*
X0536039Y0031349D01*
X0536006Y0031651D01*
X0535980Y0031952D01*
X0535962Y0032255D01*
X0535951Y0032557D01*
X0535947Y0032860D01*
X0535951Y0033163D01*
X0535962Y0033465D01*
X0535980Y0033768D01*
X0536006Y0034069D01*
X0536039Y0034371D01*
X0536080Y0034671D01*
X0536128Y0034970D01*
X0536183Y0035267D01*
X0536246Y0035564D01*
X0536315Y0035858D01*
X0536392Y0036151D01*
X0536476Y0036442D01*
X0536567Y0036731D01*
X0536666Y0037018D01*
X0536771Y0037302D01*
X0536883Y0037583D01*
X0537002Y0037862D01*
X0537127Y0038137D01*
X0537260Y0038410D01*
X0537399Y0038679D01*
X0537544Y0038944D01*
X0537696Y0039206D01*
X0537855Y0039464D01*
X0538019Y0039718D01*
X0538190Y0039969D01*
X0538367Y0040214D01*
X0538550Y0040456D01*
X0538738Y0040693D01*
X0538933Y0040925D01*
X0539133Y0041153D01*
X0539338Y0041375D01*
X0539549Y0041592D01*
X0539765Y0041805D01*
X0539986Y0042011D01*
X0540213Y0042213D01*
X0540444Y0042408D01*
X0540679Y0042598D01*
X0540920Y0042783D01*
X0541165Y0042961D01*
X0541414Y0043133D01*
X0541667Y0043299D01*
X0541924Y0043459D01*
X0542185Y0043613D01*
X0542450Y0043760D01*
X0542718Y0043900D01*
X0542990Y0044034D01*
X0543265Y0044162D01*
X0543543Y0044282D01*
X0543823Y0044396D01*
X0544107Y0044503D01*
X0544392Y0044602D01*
X0544681Y0044695D01*
X0544971Y0044781D01*
X0545264Y0044860D01*
X0545558Y0044931D01*
X0545854Y0044995D01*
X0546151Y0045052D01*
X0546450Y0045102D01*
X0546750Y0045144D01*
X0547051Y0045179D01*
X0547352Y0045207D01*
X0547655Y0045227D01*
X0547957Y0045240D01*
X0548260Y0045246D01*
X0548563Y0045244D01*
X0548865Y0045235D01*
X0549168Y0045218D01*
X0549470Y0045194D01*
X0549771Y0045162D01*
X0550071Y0045123D01*
X0550371Y0045077D01*
X0550669Y0045024D01*
X0550965Y0044963D01*
X0551261Y0044895D01*
X0551554Y0044820D01*
X0551845Y0044738D01*
X0552135Y0044648D01*
X0552422Y0044552D01*
X0552706Y0044448D01*
X0552988Y0044338D01*
X0553268Y0044221D01*
X0553544Y0044097D01*
X0553817Y0043966D01*
X0554087Y0043828D01*
X0554353Y0043684D01*
X0554616Y0043534D01*
X0554875Y0043377D01*
X0555131Y0043214D01*
X0555382Y0043045D01*
X0555629Y0042869D01*
X0555871Y0042688D01*
X0556109Y0042501D01*
X0556343Y0042308D01*
X0556571Y0042109D01*
X0556795Y0041905D01*
X0557013Y0041695D01*
X0557227Y0041481D01*
X0557435Y0041260D01*
X0557638Y0041035D01*
X0557835Y0040806D01*
X0558026Y0040571D01*
X0558212Y0040332D01*
X0558137Y0040275D01*
X0557952Y0040513D01*
X0557762Y0040745D01*
X0557567Y0040974D01*
X0557366Y0041197D01*
X0557159Y0041415D01*
X0556947Y0041629D01*
X0556730Y0041837D01*
X0556508Y0042039D01*
X0556281Y0042236D01*
X0556050Y0042428D01*
X0555814Y0042614D01*
X0555573Y0042794D01*
X0555328Y0042968D01*
X0555079Y0043136D01*
X0554825Y0043298D01*
X0554568Y0043453D01*
X0554307Y0043602D01*
X0554043Y0043745D01*
X0553775Y0043882D01*
X0553504Y0044011D01*
X0553230Y0044134D01*
X0552953Y0044251D01*
X0552673Y0044360D01*
X0552390Y0044463D01*
X0552106Y0044559D01*
X0551818Y0044647D01*
X0551529Y0044729D01*
X0551238Y0044804D01*
X0550945Y0044871D01*
X0550651Y0044932D01*
X0550355Y0044985D01*
X0550058Y0045030D01*
X0549760Y0045069D01*
X0549461Y0045100D01*
X0549161Y0045124D01*
X0548861Y0045141D01*
X0548561Y0045150D01*
X0548260Y0045152D01*
X0547960Y0045146D01*
X0547659Y0045134D01*
X0547360Y0045113D01*
X0547060Y0045086D01*
X0546762Y0045051D01*
X0546464Y0045009D01*
X0546168Y0044960D01*
X0545873Y0044903D01*
X0545579Y0044839D01*
X0545287Y0044769D01*
X0544997Y0044691D01*
X0544708Y0044605D01*
X0544422Y0044513D01*
X0544138Y0044414D01*
X0543857Y0044308D01*
X0543579Y0044195D01*
X0543303Y0044076D01*
X0543030Y0043949D01*
X0542761Y0043816D01*
X0542495Y0043677D01*
X0542232Y0043531D01*
X0541973Y0043379D01*
X0541717Y0043220D01*
X0541466Y0043055D01*
X0541219Y0042884D01*
X0540976Y0042707D01*
X0540737Y0042524D01*
X0540503Y0042336D01*
X0540274Y0042142D01*
X0540050Y0041942D01*
X0539830Y0041737D01*
X0539616Y0041526D01*
X0539406Y0041310D01*
X0539202Y0041090D01*
X0539004Y0040864D01*
X0538811Y0040633D01*
X0538624Y0040398D01*
X0538442Y0040159D01*
X0538267Y0039915D01*
X0538097Y0039666D01*
X0537934Y0039414D01*
X0537777Y0039158D01*
X0537626Y0038898D01*
X0537482Y0038634D01*
X0537344Y0038367D01*
X0537212Y0038097D01*
X0537088Y0037824D01*
X0536970Y0037547D01*
X0536859Y0037268D01*
X0536754Y0036986D01*
X0536657Y0036702D01*
X0536566Y0036415D01*
X0536483Y0036126D01*
X0536407Y0035836D01*
X0536337Y0035543D01*
X0536275Y0035249D01*
X0536221Y0034954D01*
X0536173Y0034657D01*
X0536133Y0034359D01*
X0536100Y0034060D01*
X0536074Y0033761D01*
X0536056Y0033461D01*
X0536045Y0033161D01*
X0536041Y0032860D01*
X0536045Y0032559D01*
X0536056Y0032259D01*
X0536074Y0031959D01*
X0536100Y0031660D01*
X0536133Y0031361D01*
X0536173Y0031063D01*
X0536221Y0030766D01*
X0536275Y0030471D01*
X0536337Y0030177D01*
X0536407Y0029884D01*
X0536483Y0029594D01*
X0536566Y0029305D01*
X0536657Y0029018D01*
X0536754Y0028734D01*
X0536859Y0028452D01*
X0536970Y0028173D01*
X0537088Y0027896D01*
X0537212Y0027623D01*
X0537344Y0027353D01*
X0537482Y0027086D01*
X0537626Y0026822D01*
X0537777Y0026562D01*
X0537934Y0026306D01*
X0538097Y0026054D01*
X0538267Y0025805D01*
X0538442Y0025561D01*
X0538624Y0025322D01*
X0538811Y0025087D01*
X0539004Y0024856D01*
X0539202Y0024630D01*
X0539406Y0024410D01*
X0539616Y0024194D01*
X0539830Y0023983D01*
X0540050Y0023778D01*
X0540274Y0023578D01*
X0540503Y0023384D01*
X0540737Y0023196D01*
X0540976Y0023013D01*
X0541219Y0022836D01*
X0541466Y0022665D01*
X0541717Y0022500D01*
X0541973Y0022341D01*
X0542232Y0022189D01*
X0542495Y0022043D01*
X0542761Y0021904D01*
X0543030Y0021771D01*
X0543303Y0021644D01*
X0543579Y0021525D01*
X0543857Y0021412D01*
X0544138Y0021306D01*
X0544422Y0021207D01*
X0544708Y0021115D01*
X0544997Y0021029D01*
X0545287Y0020951D01*
X0545579Y0020881D01*
X0545873Y0020817D01*
X0546168Y0020760D01*
X0546464Y0020711D01*
X0546762Y0020669D01*
X0547060Y0020634D01*
X0547360Y0020607D01*
X0547659Y0020586D01*
X0547960Y0020574D01*
X0548260Y0020568D01*
X0548561Y0020570D01*
X0548861Y0020579D01*
X0549161Y0020596D01*
X0549461Y0020620D01*
X0549760Y0020651D01*
X0550058Y0020690D01*
X0550355Y0020735D01*
X0550651Y0020788D01*
X0550945Y0020849D01*
X0551238Y0020916D01*
X0551529Y0020991D01*
X0551818Y0021073D01*
X0552106Y0021161D01*
X0552390Y0021257D01*
X0552673Y0021360D01*
X0552953Y0021469D01*
X0553230Y0021586D01*
X0553504Y0021709D01*
X0553775Y0021838D01*
X0554043Y0021975D01*
X0554307Y0022118D01*
X0554568Y0022267D01*
X0554825Y0022422D01*
X0555079Y0022584D01*
X0555328Y0022752D01*
X0555573Y0022926D01*
X0555814Y0023106D01*
X0556050Y0023292D01*
X0556281Y0023484D01*
X0556508Y0023681D01*
X0556730Y0023883D01*
X0556947Y0024091D01*
X0557159Y0024305D01*
X0557366Y0024523D01*
X0557567Y0024746D01*
X0557762Y0024975D01*
X0557952Y0025207D01*
X0558137Y0025445D01*
X0558061Y0025501D01*
X0557879Y0025266D01*
X0557690Y0025035D01*
X0557496Y0024808D01*
X0557296Y0024586D01*
X0557091Y0024370D01*
X0556881Y0024158D01*
X0556666Y0023952D01*
X0556446Y0023751D01*
X0556220Y0023555D01*
X0555991Y0023365D01*
X0555756Y0023181D01*
X0555517Y0023002D01*
X0555274Y0022829D01*
X0555027Y0022663D01*
X0554775Y0022502D01*
X0554520Y0022348D01*
X0554261Y0022200D01*
X0553999Y0022058D01*
X0553733Y0021923D01*
X0553464Y0021794D01*
X0553192Y0021672D01*
X0552917Y0021556D01*
X0552639Y0021447D01*
X0552359Y0021346D01*
X0552076Y0021251D01*
X0551791Y0021163D01*
X0551504Y0021082D01*
X0551216Y0021007D01*
X0550925Y0020941D01*
X0550633Y0020881D01*
X0550339Y0020828D01*
X0550044Y0020783D01*
X0549749Y0020744D01*
X0549452Y0020713D01*
X0549155Y0020690D01*
X0548857Y0020673D01*
X0548559Y0020664D01*
X0548261Y0020662D01*
X0547962Y0020668D01*
X0547664Y0020680D01*
X0547367Y0020700D01*
X0547070Y0020728D01*
X0546774Y0020762D01*
X0546478Y0020804D01*
X0546184Y0020853D01*
X0545891Y0020909D01*
X0545600Y0020972D01*
X0545310Y0021043D01*
X0545022Y0021120D01*
X0544736Y0021204D01*
X0544452Y0021296D01*
X0544170Y0021394D01*
X0543891Y0021499D01*
X0543615Y0021611D01*
X0543341Y0021730D01*
X0543071Y0021855D01*
X0542803Y0021987D01*
X0542539Y0022126D01*
X0542278Y0022271D01*
X0542021Y0022422D01*
X0541768Y0022579D01*
X0541519Y0022743D01*
X0541273Y0022913D01*
X0541032Y0023088D01*
X0540795Y0023270D01*
X0540563Y0023457D01*
X0540336Y0023649D01*
X0540113Y0023848D01*
X0539895Y0024051D01*
X0539682Y0024260D01*
X0539474Y0024474D01*
X0539272Y0024694D01*
X0539075Y0024917D01*
X0538884Y0025146D01*
X0538698Y0025380D01*
X0538518Y0025617D01*
X0538344Y0025859D01*
X0538176Y0026106D01*
X0538014Y0026356D01*
X0537858Y0026610D01*
X0537708Y0026868D01*
X0537565Y0027130D01*
X0537428Y0027395D01*
X0537297Y0027663D01*
X0537174Y0027934D01*
X0537057Y0028209D01*
X0536946Y0028486D01*
X0536843Y0028766D01*
X0536746Y0029048D01*
X0536656Y0029332D01*
X0536574Y0029619D01*
X0536498Y0029907D01*
X0536429Y0030197D01*
X0536368Y0030489D01*
X0536313Y0030782D01*
X0536266Y0031077D01*
X0536226Y0031372D01*
X0536193Y0031669D01*
X0536168Y0031966D01*
X0536150Y0032264D01*
X0536139Y0032562D01*
X0536135Y0032860D01*
X0536139Y0033158D01*
X0536150Y0033456D01*
X0536168Y0033754D01*
X0536193Y0034051D01*
X0536226Y0034348D01*
X0536266Y0034643D01*
X0536313Y0034938D01*
X0536368Y0035231D01*
X0536429Y0035523D01*
X0536498Y0035813D01*
X0536574Y0036101D01*
X0536656Y0036388D01*
X0536746Y0036672D01*
X0536843Y0036954D01*
X0536946Y0037234D01*
X0537057Y0037511D01*
X0537174Y0037786D01*
X0537297Y0038057D01*
X0537428Y0038325D01*
X0537565Y0038590D01*
X0537708Y0038852D01*
X0537858Y0039110D01*
X0538014Y0039364D01*
X0538176Y0039614D01*
X0538344Y0039861D01*
X0538518Y0040103D01*
X0538698Y0040340D01*
X0538884Y0040574D01*
X0539075Y0040803D01*
X0539272Y0041026D01*
X0539474Y0041246D01*
X0539682Y0041460D01*
X0539895Y0041669D01*
X0540113Y0041872D01*
X0540336Y0042071D01*
X0540563Y0042263D01*
X0540795Y0042450D01*
X0541032Y0042632D01*
X0541273Y0042807D01*
X0541519Y0042977D01*
X0541768Y0043141D01*
X0542021Y0043298D01*
X0542278Y0043449D01*
X0542539Y0043594D01*
X0542803Y0043733D01*
X0543071Y0043865D01*
X0543341Y0043990D01*
X0543615Y0044109D01*
X0543891Y0044221D01*
X0544170Y0044326D01*
X0544452Y0044424D01*
X0544736Y0044516D01*
X0545022Y0044600D01*
X0545310Y0044677D01*
X0545600Y0044748D01*
X0545891Y0044811D01*
X0546184Y0044867D01*
X0546478Y0044916D01*
X0546774Y0044958D01*
X0547070Y0044992D01*
X0547367Y0045020D01*
X0547664Y0045040D01*
X0547962Y0045052D01*
X0548261Y0045058D01*
X0548559Y0045056D01*
X0548857Y0045047D01*
X0549155Y0045030D01*
X0549452Y0045007D01*
X0549749Y0044976D01*
X0550044Y0044937D01*
X0550339Y0044892D01*
X0550633Y0044839D01*
X0550925Y0044779D01*
X0551216Y0044713D01*
X0551504Y0044638D01*
X0551791Y0044557D01*
X0552076Y0044469D01*
X0552359Y0044374D01*
X0552639Y0044273D01*
X0552917Y0044164D01*
X0553192Y0044048D01*
X0553464Y0043926D01*
X0553733Y0043797D01*
X0553999Y0043662D01*
X0554261Y0043520D01*
X0554520Y0043372D01*
X0554775Y0043218D01*
X0555027Y0043057D01*
X0555274Y0042891D01*
X0555517Y0042718D01*
X0555756Y0042539D01*
X0555991Y0042355D01*
X0556220Y0042165D01*
X0556446Y0041969D01*
X0556666Y0041768D01*
X0556881Y0041562D01*
X0557091Y0041350D01*
X0557296Y0041134D01*
X0557496Y0040912D01*
X0557690Y0040685D01*
X0557879Y0040454D01*
X0558061Y0040219D01*
X0557986Y0040162D01*
X0557805Y0040396D01*
X0557618Y0040625D01*
X0557425Y0040850D01*
X0557227Y0041070D01*
X0557024Y0041285D01*
X0556815Y0041495D01*
X0556601Y0041700D01*
X0556383Y0041899D01*
X0556159Y0042093D01*
X0555931Y0042282D01*
X0555699Y0042465D01*
X0555462Y0042642D01*
X0555220Y0042813D01*
X0554975Y0042979D01*
X0554726Y0043138D01*
X0554472Y0043291D01*
X0554216Y0043438D01*
X0553955Y0043579D01*
X0553691Y0043713D01*
X0553424Y0043841D01*
X0553154Y0043962D01*
X0552882Y0044077D01*
X0552606Y0044185D01*
X0552328Y0044286D01*
X0552047Y0044380D01*
X0551765Y0044467D01*
X0551480Y0044548D01*
X0551193Y0044621D01*
X0550905Y0044688D01*
X0550615Y0044747D01*
X0550323Y0044799D01*
X0550031Y0044844D01*
X0549737Y0044882D01*
X0549443Y0044913D01*
X0549148Y0044937D01*
X0548853Y0044953D01*
X0548557Y0044962D01*
X0548261Y0044964D01*
X0547965Y0044958D01*
X0547669Y0044946D01*
X0547374Y0044926D01*
X0547079Y0044899D01*
X0546785Y0044865D01*
X0546492Y0044823D01*
X0546200Y0044775D01*
X0545910Y0044719D01*
X0545621Y0044656D01*
X0545333Y0044586D01*
X0545047Y0044509D01*
X0544763Y0044426D01*
X0544482Y0044335D01*
X0544202Y0044237D01*
X0543925Y0044133D01*
X0543651Y0044022D01*
X0543380Y0043904D01*
X0543111Y0043780D01*
X0542846Y0043649D01*
X0542584Y0043511D01*
X0542325Y0043368D01*
X0542070Y0043218D01*
X0541818Y0043061D01*
X0541571Y0042899D01*
X0541328Y0042731D01*
X0541088Y0042556D01*
X0540853Y0042376D01*
X0540623Y0042191D01*
X0540397Y0041999D01*
X0540176Y0041803D01*
X0539960Y0041601D01*
X0539749Y0041393D01*
X0539543Y0041181D01*
X0539342Y0040963D01*
X0539146Y0040741D01*
X0538956Y0040514D01*
X0538772Y0040283D01*
X0538594Y0040047D01*
X0538421Y0039807D01*
X0538254Y0039562D01*
X0538093Y0039314D01*
X0537938Y0039061D01*
X0537790Y0038805D01*
X0537648Y0038546D01*
X0537512Y0038283D01*
X0537382Y0038017D01*
X0537260Y0037748D01*
X0537143Y0037475D01*
X0537034Y0037200D01*
X0536931Y0036923D01*
X0536835Y0036643D01*
X0536746Y0036361D01*
X0536664Y0036076D01*
X0536589Y0035790D01*
X0536521Y0035502D01*
X0536460Y0035213D01*
X0536406Y0034922D01*
X0536359Y0034629D01*
X0536319Y0034336D01*
X0536287Y0034042D01*
X0536262Y0033747D01*
X0536243Y0033452D01*
X0536233Y0033156D01*
X0536229Y0032860D01*
X0536233Y0032564D01*
X0536243Y0032268D01*
X0536262Y0031973D01*
X0536287Y0031678D01*
X0536319Y0031384D01*
X0536359Y0031091D01*
X0536406Y0030798D01*
X0536460Y0030507D01*
X0536521Y0030218D01*
X0536589Y0029930D01*
X0536664Y0029644D01*
X0536746Y0029359D01*
X0536835Y0029077D01*
X0536931Y0028797D01*
X0537034Y0028520D01*
X0537143Y0028245D01*
X0537260Y0027972D01*
X0537382Y0027703D01*
X0537512Y0027437D01*
X0537648Y0027174D01*
X0537790Y0026915D01*
X0537938Y0026659D01*
X0538093Y0026406D01*
X0538254Y0026158D01*
X0538421Y0025913D01*
X0538594Y0025673D01*
X0538772Y0025437D01*
X0538956Y0025206D01*
X0539146Y0024979D01*
X0539342Y0024757D01*
X0539543Y0024539D01*
X0539749Y0024327D01*
X0539960Y0024119D01*
X0540176Y0023917D01*
X0540397Y0023721D01*
X0540623Y0023529D01*
X0540853Y0023344D01*
X0541088Y0023164D01*
X0541328Y0022989D01*
X0541571Y0022821D01*
X0541818Y0022659D01*
X0542070Y0022502D01*
X0542325Y0022352D01*
X0542584Y0022209D01*
X0542846Y0022071D01*
X0543111Y0021940D01*
X0543380Y0021816D01*
X0543651Y0021698D01*
X0543925Y0021587D01*
X0544202Y0021483D01*
X0544482Y0021385D01*
X0544763Y0021294D01*
X0545047Y0021211D01*
X0545333Y0021134D01*
X0545621Y0021064D01*
X0545910Y0021001D01*
X0546200Y0020945D01*
X0546492Y0020897D01*
X0546785Y0020855D01*
X0547079Y0020821D01*
X0547374Y0020794D01*
X0547669Y0020774D01*
X0547965Y0020762D01*
X0548261Y0020756D01*
X0548557Y0020758D01*
X0548853Y0020767D01*
X0549148Y0020783D01*
X0549443Y0020807D01*
X0549737Y0020838D01*
X0550031Y0020876D01*
X0550323Y0020921D01*
X0550615Y0020973D01*
X0550905Y0021032D01*
X0551193Y0021099D01*
X0551480Y0021172D01*
X0551765Y0021253D01*
X0552047Y0021340D01*
X0552328Y0021434D01*
X0552606Y0021535D01*
X0552882Y0021643D01*
X0553154Y0021758D01*
X0553424Y0021879D01*
X0553691Y0022007D01*
X0553955Y0022141D01*
X0554216Y0022282D01*
X0554472Y0022429D01*
X0554726Y0022582D01*
X0554975Y0022741D01*
X0555220Y0022907D01*
X0555462Y0023078D01*
X0555699Y0023255D01*
X0555931Y0023438D01*
X0556159Y0023627D01*
X0556383Y0023821D01*
X0556601Y0024020D01*
X0556815Y0024225D01*
X0557024Y0024435D01*
X0557227Y0024650D01*
X0557425Y0024870D01*
X0557618Y0025095D01*
X0557805Y0025324D01*
X0557986Y0025558D01*
M02*
