%
M48
M72
T01C0.02756
T02C0.03200
T03C0.03543
T04C0.04000
T05C0.11800
%
T01
X410333Y120756
X410333Y130756
X448333Y121256
X448333Y111256
T02
X468333Y111256
X468333Y121256
X468333Y131256
X468333Y141256
X468333Y151256
X468333Y161256
X468333Y171256
X468333Y181256
X498333Y181256
X498333Y171256
X498333Y161256
X498333Y151256
X498333Y141256
X498333Y131256
X498333Y121256
X498333Y111256
X498333Y101256
X498333Y91256
X498333Y81256
X498333Y71256
X498333Y61256
X498333Y51256
X468333Y51256
X468333Y61256
X453333Y61256
X443333Y61256
X468333Y71256
X468333Y81256
X453333Y86256
X443333Y86256
X468333Y91256
X468333Y101256
X503333Y36256
X503333Y26256
T03
X483333Y26256
X483332Y36012
X443335Y36500
X443333Y26256
X429333Y46256
X429333Y86256
X410833Y147756
X450833Y147756
T04
X410333Y55256
X410333Y65256
X410333Y75256
X410333Y85256
X410333Y95256
X410333Y105256
X522333Y106256
X522333Y96256
X522333Y86256
X522333Y76256
X522333Y66256
X522333Y56256
X522333Y121256
X522333Y131256
X522333Y141256
X522333Y151256
X522333Y161256
X522333Y171256
X522333Y181256
X522333Y191256
T05
X448270Y181256
X424648Y181256
X436459Y162752
M30
